<?xml version="1.0" standalone="no"?>
 <!DOCTYPE svg PUBLIC "-//W3C//DTD SVG 1.1//EN" 
 "http://www.w3.org/Graphics/SVG/1.1/DTD/svg11.dtd"> 
<svg xmlns="http://www.w3.org/2000/svg" version="1.1" 
    width="21.59cm" height="27.94cm" viewBox="0 0 85000 110000 ">
<title>SVG Picture created as FrosTool_ESP8266-B.Mask.svg date 2018/03/04 11:52:41 </title>
  <desc>Picture generated by PCBNEW </desc>
<g style="fill:#000000; fill-opacity:1;stroke:#000000; stroke-opacity:1;
stroke-linecap:round; stroke-linejoin:round; "
 transform="translate(0 0) scale(1 1)">
</g>
<g style="fill:#000000; fill-opacity:0.0; 
stroke:#000000; stroke-width:-0.000393701; stroke-opacity:1; 
stroke-linecap:round; stroke-linejoin:round;">
</g>
<g style="fill:#000000; fill-opacity:1.0; 
stroke:#000000; stroke-width:0; stroke-opacity:1; 
stroke-linecap:round; stroke-linejoin:round;">
<circle cx="23788" cy="17586" r="258.74" /> 
</g>
<g style="fill:#000000; fill-opacity:1.0; 
stroke:#000000; stroke-width:39.3701; stroke-opacity:1; 
stroke-linecap:round; stroke-linejoin:round;">
</g>
<g style="fill:#000000; fill-opacity:1.0; 
stroke:#000000; stroke-width:0; stroke-opacity:1; 
stroke-linecap:round; stroke-linejoin:round;">
<polyline style="fill-rule:evenodd;"
points="27978,18478
27421,18478
27421,17921
27978,17921
27978,18478
" /> 
<circle cx="28700" cy="18200" r="278.74" /> 
</g>
<g style="fill:#000000; fill-opacity:1.0; 
stroke:#000000; stroke-width:39.3701; stroke-opacity:1; 
stroke-linecap:round; stroke-linejoin:round;">
</g>
<g style="fill:#000000; fill-opacity:1.0; 
stroke:#000000; stroke-width:0; stroke-opacity:1; 
stroke-linecap:round; stroke-linejoin:round;">
<polyline style="fill-rule:evenodd;"
points="24778,18478
24221,18478
24221,17921
24778,17921
24778,18478
" /> 
<circle cx="25500" cy="18200" r="278.74" /> 
</g>
<g style="fill:#000000; fill-opacity:1.0; 
stroke:#000000; stroke-width:39.3701; stroke-opacity:1; 
stroke-linecap:round; stroke-linejoin:round;">
</g>
<g style="fill:#000000; fill-opacity:1.0; 
stroke:#000000; stroke-width:0; stroke-opacity:1; 
stroke-linecap:round; stroke-linejoin:round;">
<polyline style="fill-rule:evenodd;"
points="23258,18478
22741,18478
22741,17921
23258,17921
23258,18478
" /> 
</g>
<g style="fill:#000000; fill-opacity:1.0; 
stroke:#000000; stroke-width:517.48; stroke-opacity:1; 
stroke-linecap:round; stroke-linejoin:round;">
</g>
<g style="fill:#000000; fill-opacity:0.0; 
stroke:#000000; stroke-width:517.48; stroke-opacity:1; 
stroke-linecap:round; stroke-linejoin:round;">
<path d="M23787 18220
L23787 18180
" />
</g>
<g style="fill:#000000; fill-opacity:0.0; 
stroke:#000000; stroke-width:0; stroke-opacity:1; 
stroke-linecap:round; stroke-linejoin:round;">
</g>
<g style="fill:#000000; fill-opacity:1.0; 
stroke:#000000; stroke-width:0; stroke-opacity:1; 
stroke-linecap:round; stroke-linejoin:round;">
<polyline style="fill-rule:evenodd;"
points="22041,17921
22558,17921
22558,18478
22041,18478
22041,17921
" /> 
<circle cx="21300" cy="18200" r="278.74" /> 
</g>
<g style="fill:#000000; fill-opacity:1.0; 
stroke:#000000; stroke-width:39.3701; stroke-opacity:1; 
stroke-linecap:round; stroke-linejoin:round;">
</g>
<g style="fill:#000000; fill-opacity:1.0; 
stroke:#000000; stroke-width:0; stroke-opacity:1; 
stroke-linecap:round; stroke-linejoin:round;">
<circle cx="29500" cy="11562.6" r="258.74" /> 
</g>
<g style="fill:#000000; fill-opacity:1.0; 
stroke:#000000; stroke-width:39.3701; stroke-opacity:1; 
stroke-linecap:round; stroke-linejoin:round;">
</g>
<g style="fill:#000000; fill-opacity:1.0; 
stroke:#000000; stroke-width:0; stroke-opacity:1; 
stroke-linecap:round; stroke-linejoin:round;">
<circle cx="29500" cy="12350" r="258.74" /> 
</g>
<g style="fill:#000000; fill-opacity:1.0; 
stroke:#000000; stroke-width:39.3701; stroke-opacity:1; 
stroke-linecap:round; stroke-linejoin:round;">
</g>
<g style="fill:#000000; fill-opacity:1.0; 
stroke:#000000; stroke-width:0; stroke-opacity:1; 
stroke-linecap:round; stroke-linejoin:round;">
<polyline style="fill-rule:evenodd;"
points="26728,17921
27246,17921
27246,18478
26728,18478
26728,17921
" /> 
</g>
<g style="fill:#000000; fill-opacity:1.0; 
stroke:#000000; stroke-width:517.48; stroke-opacity:1; 
stroke-linecap:round; stroke-linejoin:round;">
</g>
<g style="fill:#000000; fill-opacity:0.0; 
stroke:#000000; stroke-width:517.48; stroke-opacity:1; 
stroke-linecap:round; stroke-linejoin:round;">
<path d="M26200 18180
L26200 18220
" />
</g>
<g style="fill:#000000; fill-opacity:1.0; 
stroke:#000000; stroke-width:0; stroke-opacity:1; 
stroke-linecap:round; stroke-linejoin:round;">
<circle cx="20400" cy="18600" r="258.74" /> 
</g>
<g style="fill:#000000; fill-opacity:1.0; 
stroke:#000000; stroke-width:39.3701; stroke-opacity:1; 
stroke-linecap:round; stroke-linejoin:round;">
</g>
<g style="fill:#000000; fill-opacity:1.0; 
stroke:#000000; stroke-width:0; stroke-opacity:1; 
stroke-linecap:round; stroke-linejoin:round;">
<circle cx="29600" cy="17600" r="258.74" /> 
</g>
<g style="fill:#000000; fill-opacity:1.0; 
stroke:#000000; stroke-width:39.3701; stroke-opacity:1; 
stroke-linecap:round; stroke-linejoin:round;">
</g>
<g style="fill:#000000; fill-opacity:1.0; 
stroke:#000000; stroke-width:0; stroke-opacity:1; 
stroke-linecap:round; stroke-linejoin:round;">
<circle cx="29600" cy="18600" r="258.74" /> 
</g>
<g style="fill:#000000; fill-opacity:1.0; 
stroke:#000000; stroke-width:39.3701; stroke-opacity:1; 
stroke-linecap:round; stroke-linejoin:round;">
</g>
<g style="fill:#000000; fill-opacity:1.0; 
stroke:#000000; stroke-width:0; stroke-opacity:1; 
stroke-linecap:round; stroke-linejoin:round;">
<circle cx="26300" cy="19600" r="258.74" /> 
</g>
<g style="fill:#000000; fill-opacity:1.0; 
stroke:#000000; stroke-width:39.3701; stroke-opacity:1; 
stroke-linecap:round; stroke-linejoin:round;">
</g>
<g style="fill:#000000; fill-opacity:1.0; 
stroke:#000000; stroke-width:0; stroke-opacity:1; 
stroke-linecap:round; stroke-linejoin:round;">
<circle cx="25000" cy="19600" r="258.74" /> 
</g>
<g style="fill:#000000; fill-opacity:1.0; 
stroke:#000000; stroke-width:39.3701; stroke-opacity:1; 
stroke-linecap:round; stroke-linejoin:round;">
</g>
<g style="fill:#000000; fill-opacity:1.0; 
stroke:#000000; stroke-width:0; stroke-opacity:1; 
stroke-linecap:round; stroke-linejoin:round;">
<circle cx="23700" cy="19600" r="258.74" /> 
</g>
<g style="fill:#000000; fill-opacity:1.0; 
stroke:#000000; stroke-width:39.3701; stroke-opacity:1; 
stroke-linecap:round; stroke-linejoin:round;">
</g>
<g style="fill:#000000; fill-opacity:1.0; 
stroke:#000000; stroke-width:517.48; stroke-opacity:1; 
stroke-linecap:round; stroke-linejoin:round;">
</g>
<g style="fill:#000000; fill-opacity:0.0; 
stroke:#000000; stroke-width:517.48; stroke-opacity:1; 
stroke-linecap:round; stroke-linejoin:round;">
<path d="M22580 19600
L22620 19600
" />
<path d="M21480 19600
L21520 19600
" />
<path d="M20380 19600
L20420 19600
" />
</g>
<g style="fill:#000000; fill-opacity:0.0; 
stroke:#000000; stroke-width:0; stroke-opacity:1; 
stroke-linecap:round; stroke-linejoin:round;">
</g>
<g style="fill:#000000; fill-opacity:1.0; 
stroke:#000000; stroke-width:0; stroke-opacity:1; 
stroke-linecap:round; stroke-linejoin:round;">
<polyline style="fill-rule:evenodd;"
points="29321,19858
29321,19341
29878,19341
29878,19858
29321,19858
" /> 
<polyline style="fill-rule:evenodd;"
points="28221,19858
28221,19341
28778,19341
28778,19858
28221,19858
" /> 
<polyline style="fill-rule:evenodd;"
points="27121,19858
27121,19341
27678,19341
27678,19858
27121,19858
" /> 
<polyline style="fill-rule:evenodd;"
points="23073,10963
23073,10136
23585,10136
23585,10963
23073,10963
" /> 
<polyline style="fill-rule:evenodd;"
points="24214,10963
24214,10136
24726,10136
24726,10963
24214,10963
" /> 
<polyline style="fill-rule:evenodd;"
points="26739,15727
26739,14978
27290,14978
27290,15727
26739,15727
" /> 
<polyline style="fill-rule:evenodd;"
points="27330,15727
27330,14978
27881,14978
27881,15727
27330,15727
" /> 
<polyline style="fill-rule:evenodd;"
points="27921,15727
27921,14978
28472,14978
28472,15727
27921,15727
" /> 
<polyline style="fill-rule:evenodd;"
points="27133,17184
27133,15845
28078,15845
28078,17184
27133,17184
" /> 
<polyline style="fill-rule:evenodd;"
points="29186,12844
30013,12844
30013,13355
29186,13355
29186,12844
" /> 
<polyline style="fill-rule:evenodd;"
points="29186,14444
30013,14444
30013,14955
29186,14955
29186,14444
" /> 
<polyline style="fill-rule:evenodd;"
points="29186,14954
30013,14954
30013,15465
29186,15465
29186,14954
" /> 
<polyline style="fill-rule:evenodd;"
points="29186,16554
30013,16554
30013,17065
29186,17065
29186,16554
" /> 
<circle cx="29475" cy="10525" r="492.126" /> 
</g>
<g style="fill:#000000; fill-opacity:1.0; 
stroke:#000000; stroke-width:39.3701; stroke-opacity:1; 
stroke-linecap:round; stroke-linejoin:round;">
</g>
<g style="fill:#000000; fill-opacity:1.0; 
stroke:#000000; stroke-width:0; stroke-opacity:1; 
stroke-linecap:round; stroke-linejoin:round;">
<polyline style="fill-rule:evenodd;"
points="28512,12625
28512,13274
27961,13274
27961,12625
28512,12625
" /> 
<polyline style="fill-rule:evenodd;"
points="27725,12625
27725,13274
27174,13274
27174,12625
27725,12625
" /> 
<polyline style="fill-rule:evenodd;"
points="26612,12625
26612,13274
26061,13274
26061,12625
26612,12625
" /> 
<polyline style="fill-rule:evenodd;"
points="25825,12625
25825,13274
25274,13274
25274,12625
25825,12625
" /> 
<polyline style="fill-rule:evenodd;"
points="23014,13365
23487,13365
23487,13877
23014,13877
23014,13365
" /> 
<polyline style="fill-rule:evenodd;"
points="23762,13365
24235,13365
24235,13877
23762,13877
23762,13365
" /> 
<polyline style="fill-rule:evenodd;"
points="23388,14152
23861,14152
23861,14664
23388,14664
23388,14152
" /> 
<polyline style="fill-rule:evenodd;"
points="21102,10963
21102,10136
21614,10136
21614,10963
21102,10963
" /> 
<polyline style="fill-rule:evenodd;"
points="22244,10963
22244,10136
22755,10136
22755,10963
22244,10963
" /> 
<polyline style="fill-rule:evenodd;"
points="21094,12163
21094,11336
21605,11336
21605,12163
21094,12163
" /> 
<polyline style="fill-rule:evenodd;"
points="22235,12163
22235,11336
22747,11336
22747,12163
22235,12163
" /> 
<polyline style="fill-rule:evenodd;"
points="23094,12163
23094,11336
23605,11336
23605,12163
23094,12163
" /> 
<polyline style="fill-rule:evenodd;"
points="24235,12163
24235,11336
24747,11336
24747,12163
24235,12163
" /> 
<polyline style="fill-rule:evenodd;"
points="25102,12163
25102,11336
25614,11336
25614,12163
25102,12163
" /> 
<polyline style="fill-rule:evenodd;"
points="26244,12163
26244,11336
26755,11336
26755,12163
26244,12163
" /> 
<polyline style="fill-rule:evenodd;"
points="21094,13363
21094,12536
21605,12536
21605,13363
21094,13363
" /> 
<polyline style="fill-rule:evenodd;"
points="22235,13363
22235,12536
22747,12536
22747,13363
22235,13363
" /> 
<polyline style="fill-rule:evenodd;"
points="27044,12163
27044,11336
27555,11336
27555,12163
27044,12163
" /> 
<polyline style="fill-rule:evenodd;"
points="28185,12163
28185,11336
28697,11336
28697,12163
28185,12163
" /> 
<polyline style="fill-rule:evenodd;"
points="27044,10963
27044,10136
27555,10136
27555,10963
27044,10963
" /> 
<polyline style="fill-rule:evenodd;"
points="28185,10963
28185,10136
28697,10136
28697,10963
28185,10963
" /> 
<polyline style="fill-rule:evenodd;"
points="25078,10993
25078,10166
25590,10166
25590,10993
25078,10993
" /> 
<polyline style="fill-rule:evenodd;"
points="26219,10993
26219,10166
26731,10166
26731,10993
26219,10993
" /> 
<polyline style="fill-rule:evenodd;"
points="22953,17046
22953,16653
23720,16653
23720,17046
22953,17046
" /> 
<polyline style="fill-rule:evenodd;"
points="22953,16546
22953,16153
23720,16153
23720,16546
22953,16546
" /> 
<polyline style="fill-rule:evenodd;"
points="22953,16046
22953,15653
23720,15653
23720,16046
22953,16046
" /> 
<polyline style="fill-rule:evenodd;"
points="22953,15546
22953,15153
23720,15153
23720,15546
22953,15546
" /> 
<polyline style="fill-rule:evenodd;"
points="25079,15546
25079,15153
25846,15153
25846,15546
25079,15546
" /> 
<polyline style="fill-rule:evenodd;"
points="25079,16046
25079,15653
25846,15653
25846,16046
25079,16046
" /> 
<polyline style="fill-rule:evenodd;"
points="25079,16546
25079,16153
25846,16153
25846,16546
25079,16546
" /> 
<polyline style="fill-rule:evenodd;"
points="25079,17046
25079,16653
25846,16653
25846,17046
25079,17046
" /> 
<circle cx="20525" cy="10525" r="492.126" /> 
</g>
<g style="fill:#000000; fill-opacity:1.0; 
stroke:#000000; stroke-width:39.3701; stroke-opacity:1; 
stroke-linecap:round; stroke-linejoin:round;">
</g>
<g style="fill:#000000; fill-opacity:1.0; 
stroke:#000000; stroke-width:0; stroke-opacity:1; 
stroke-linecap:round; stroke-linejoin:round;">
<polyline style="fill-rule:evenodd;"
points="21423,16993
21423,16206
22604,16206
22604,16993
21423,16993
" /> 
<polyline style="fill-rule:evenodd;"
points="20005,16993
20005,16206
21186,16206
21186,16993
20005,16993
" /> 
<polyline style="fill-rule:evenodd;"
points="21172,14206
21172,14993
19991,14993
19991,14206
21172,14206
" /> 
<polyline style="fill-rule:evenodd;"
points="22589,14206
22589,14993
21408,14993
21408,14206
22589,14206
" /> 
</g> 
</svg>
