<?xml version="1.0" standalone="no"?>
 <!DOCTYPE svg PUBLIC "-//W3C//DTD SVG 1.1//EN" 
 "http://www.w3.org/Graphics/SVG/1.1/DTD/svg11.dtd"> 
<svg xmlns="http://www.w3.org/2000/svg" version="1.1" 
    width="21.59cm" height="27.94cm" viewBox="0 0 85000 110000 ">
<title>SVG Picture created as FrosTool_ESP8266-F.Mask.svg date 2018/03/04 11:52:41 </title>
  <desc>Picture generated by PCBNEW </desc>
<g style="fill:#000000; fill-opacity:1;stroke:#000000; stroke-opacity:1;
stroke-linecap:round; stroke-linejoin:round; "
 transform="translate(0 0) scale(1 1)">
</g>
<g style="fill:#000000; fill-opacity:0.0; 
stroke:#000000; stroke-width:-0.000393701; stroke-opacity:1; 
stroke-linecap:round; stroke-linejoin:round;">
</g>
<g style="fill:#000000; fill-opacity:1.0; 
stroke:#000000; stroke-width:0; stroke-opacity:1; 
stroke-linecap:round; stroke-linejoin:round;">
<circle cx="23788" cy="17586" r="258.74" /> 
</g>
<g style="fill:#000000; fill-opacity:1.0; 
stroke:#000000; stroke-width:39.3701; stroke-opacity:1; 
stroke-linecap:round; stroke-linejoin:round;">
</g>
<g style="fill:#000000; fill-opacity:1.0; 
stroke:#000000; stroke-width:0; stroke-opacity:1; 
stroke-linecap:round; stroke-linejoin:round;">
<polyline style="fill-rule:evenodd;"
points="27978,18478
27421,18478
27421,17921
27978,17921
27978,18478
" /> 
<circle cx="28700" cy="18200" r="278.74" /> 
</g>
<g style="fill:#000000; fill-opacity:1.0; 
stroke:#000000; stroke-width:39.3701; stroke-opacity:1; 
stroke-linecap:round; stroke-linejoin:round;">
</g>
<g style="fill:#000000; fill-opacity:1.0; 
stroke:#000000; stroke-width:0; stroke-opacity:1; 
stroke-linecap:round; stroke-linejoin:round;">
<polyline style="fill-rule:evenodd;"
points="24778,18478
24221,18478
24221,17921
24778,17921
24778,18478
" /> 
<circle cx="25500" cy="18200" r="278.74" /> 
</g>
<g style="fill:#000000; fill-opacity:1.0; 
stroke:#000000; stroke-width:39.3701; stroke-opacity:1; 
stroke-linecap:round; stroke-linejoin:round;">
</g>
<g style="fill:#000000; fill-opacity:1.0; 
stroke:#000000; stroke-width:0; stroke-opacity:1; 
stroke-linecap:round; stroke-linejoin:round;">
<polyline style="fill-rule:evenodd;"
points="23258,18478
22741,18478
22741,17921
23258,17921
23258,18478
" /> 
</g>
<g style="fill:#000000; fill-opacity:1.0; 
stroke:#000000; stroke-width:517.48; stroke-opacity:1; 
stroke-linecap:round; stroke-linejoin:round;">
</g>
<g style="fill:#000000; fill-opacity:0.0; 
stroke:#000000; stroke-width:517.48; stroke-opacity:1; 
stroke-linecap:round; stroke-linejoin:round;">
<path d="M23787 18220
L23787 18180
" />
</g>
<g style="fill:#000000; fill-opacity:0.0; 
stroke:#000000; stroke-width:0; stroke-opacity:1; 
stroke-linecap:round; stroke-linejoin:round;">
</g>
<g style="fill:#000000; fill-opacity:1.0; 
stroke:#000000; stroke-width:0; stroke-opacity:1; 
stroke-linecap:round; stroke-linejoin:round;">
<polyline style="fill-rule:evenodd;"
points="22041,17921
22558,17921
22558,18478
22041,18478
22041,17921
" /> 
<circle cx="21300" cy="18200" r="278.74" /> 
</g>
<g style="fill:#000000; fill-opacity:1.0; 
stroke:#000000; stroke-width:39.3701; stroke-opacity:1; 
stroke-linecap:round; stroke-linejoin:round;">
</g>
<g style="fill:#000000; fill-opacity:1.0; 
stroke:#000000; stroke-width:0; stroke-opacity:1; 
stroke-linecap:round; stroke-linejoin:round;">
<circle cx="29500" cy="11562.6" r="258.74" /> 
</g>
<g style="fill:#000000; fill-opacity:1.0; 
stroke:#000000; stroke-width:39.3701; stroke-opacity:1; 
stroke-linecap:round; stroke-linejoin:round;">
</g>
<g style="fill:#000000; fill-opacity:1.0; 
stroke:#000000; stroke-width:0; stroke-opacity:1; 
stroke-linecap:round; stroke-linejoin:round;">
<circle cx="29500" cy="12350" r="258.74" /> 
</g>
<g style="fill:#000000; fill-opacity:1.0; 
stroke:#000000; stroke-width:39.3701; stroke-opacity:1; 
stroke-linecap:round; stroke-linejoin:round;">
</g>
<g style="fill:#000000; fill-opacity:1.0; 
stroke:#000000; stroke-width:0; stroke-opacity:1; 
stroke-linecap:round; stroke-linejoin:round;">
<polyline style="fill-rule:evenodd;"
points="26728,17921
27246,17921
27246,18478
26728,18478
26728,17921
" /> 
</g>
<g style="fill:#000000; fill-opacity:1.0; 
stroke:#000000; stroke-width:517.48; stroke-opacity:1; 
stroke-linecap:round; stroke-linejoin:round;">
</g>
<g style="fill:#000000; fill-opacity:0.0; 
stroke:#000000; stroke-width:517.48; stroke-opacity:1; 
stroke-linecap:round; stroke-linejoin:round;">
<path d="M26200 18180
L26200 18220
" />
</g>
<g style="fill:#000000; fill-opacity:1.0; 
stroke:#000000; stroke-width:0; stroke-opacity:1; 
stroke-linecap:round; stroke-linejoin:round;">
<circle cx="20400" cy="18600" r="258.74" /> 
</g>
<g style="fill:#000000; fill-opacity:1.0; 
stroke:#000000; stroke-width:39.3701; stroke-opacity:1; 
stroke-linecap:round; stroke-linejoin:round;">
</g>
<g style="fill:#000000; fill-opacity:1.0; 
stroke:#000000; stroke-width:0; stroke-opacity:1; 
stroke-linecap:round; stroke-linejoin:round;">
<circle cx="29600" cy="17600" r="258.74" /> 
</g>
<g style="fill:#000000; fill-opacity:1.0; 
stroke:#000000; stroke-width:39.3701; stroke-opacity:1; 
stroke-linecap:round; stroke-linejoin:round;">
</g>
<g style="fill:#000000; fill-opacity:1.0; 
stroke:#000000; stroke-width:0; stroke-opacity:1; 
stroke-linecap:round; stroke-linejoin:round;">
<circle cx="29600" cy="18600" r="258.74" /> 
</g>
<g style="fill:#000000; fill-opacity:1.0; 
stroke:#000000; stroke-width:39.3701; stroke-opacity:1; 
stroke-linecap:round; stroke-linejoin:round;">
</g>
<g style="fill:#000000; fill-opacity:1.0; 
stroke:#000000; stroke-width:0; stroke-opacity:1; 
stroke-linecap:round; stroke-linejoin:round;">
<circle cx="26300" cy="19600" r="258.74" /> 
</g>
<g style="fill:#000000; fill-opacity:1.0; 
stroke:#000000; stroke-width:39.3701; stroke-opacity:1; 
stroke-linecap:round; stroke-linejoin:round;">
</g>
<g style="fill:#000000; fill-opacity:1.0; 
stroke:#000000; stroke-width:0; stroke-opacity:1; 
stroke-linecap:round; stroke-linejoin:round;">
<circle cx="25000" cy="19600" r="258.74" /> 
</g>
<g style="fill:#000000; fill-opacity:1.0; 
stroke:#000000; stroke-width:39.3701; stroke-opacity:1; 
stroke-linecap:round; stroke-linejoin:round;">
</g>
<g style="fill:#000000; fill-opacity:1.0; 
stroke:#000000; stroke-width:0; stroke-opacity:1; 
stroke-linecap:round; stroke-linejoin:round;">
<circle cx="23700" cy="19600" r="258.74" /> 
</g>
<g style="fill:#000000; fill-opacity:1.0; 
stroke:#000000; stroke-width:39.3701; stroke-opacity:1; 
stroke-linecap:round; stroke-linejoin:round;">
</g>
<g style="fill:#000000; fill-opacity:1.0; 
stroke:#000000; stroke-width:517.48; stroke-opacity:1; 
stroke-linecap:round; stroke-linejoin:round;">
</g>
<g style="fill:#000000; fill-opacity:0.0; 
stroke:#000000; stroke-width:517.48; stroke-opacity:1; 
stroke-linecap:round; stroke-linejoin:round;">
<path d="M22580 19600
L22620 19600
" />
<path d="M21480 19600
L21520 19600
" />
<path d="M20380 19600
L20420 19600
" />
</g>
<g style="fill:#000000; fill-opacity:0.0; 
stroke:#000000; stroke-width:0; stroke-opacity:1; 
stroke-linecap:round; stroke-linejoin:round;">
</g>
<g style="fill:#000000; fill-opacity:1.0; 
stroke:#000000; stroke-width:0; stroke-opacity:1; 
stroke-linecap:round; stroke-linejoin:round;">
<polyline style="fill-rule:evenodd;"
points="29321,19858
29321,19341
29878,19341
29878,19858
29321,19858
" /> 
<polyline style="fill-rule:evenodd;"
points="28221,19858
28221,19341
28778,19341
28778,19858
28221,19858
" /> 
<polyline style="fill-rule:evenodd;"
points="27121,19858
27121,19341
27678,19341
27678,19858
27121,19858
" /> 
<circle cx="29475" cy="10525" r="492.126" /> 
</g>
<g style="fill:#000000; fill-opacity:1.0; 
stroke:#000000; stroke-width:39.3701; stroke-opacity:1; 
stroke-linecap:round; stroke-linejoin:round;">
</g>
<g style="fill:#000000; fill-opacity:1.0; 
stroke:#000000; stroke-width:0; stroke-opacity:1; 
stroke-linecap:round; stroke-linejoin:round;">
<polyline style="fill-rule:evenodd;"
points="21295,10589
21295,9999
22437,9999
22437,10589
21295,10589
" /> 
<polyline style="fill-rule:evenodd;"
points="21295,11377
21295,10786
22437,10786
22437,11377
21295,11377
" /> 
<polyline style="fill-rule:evenodd;"
points="21295,12164
21295,11574
22437,11574
22437,12164
21295,12164
" /> 
<polyline style="fill-rule:evenodd;"
points="21295,12951
21295,12361
22437,12361
22437,12951
21295,12951
" /> 
<polyline style="fill-rule:evenodd;"
points="21295,13739
21295,13148
22437,13148
22437,13739
21295,13739
" /> 
<polyline style="fill-rule:evenodd;"
points="21295,14526
21295,13936
22437,13936
22437,14526
21295,14526
" /> 
<polyline style="fill-rule:evenodd;"
points="21295,15314
21295,14723
22437,14723
22437,15314
21295,15314
" /> 
<polyline style="fill-rule:evenodd;"
points="21295,16101
21295,15511
22437,15511
22437,16101
21295,16101
" /> 
<polyline style="fill-rule:evenodd;"
points="27358,16101
27358,15511
28500,15511
28500,16101
27358,16101
" /> 
<polyline style="fill-rule:evenodd;"
points="27358,15314
27358,14723
28500,14723
28500,15314
27358,15314
" /> 
<polyline style="fill-rule:evenodd;"
points="27358,14526
27358,13936
28500,13936
28500,14526
27358,14526
" /> 
<polyline style="fill-rule:evenodd;"
points="27358,13739
27358,13148
28500,13148
28500,13739
27358,13739
" /> 
<polyline style="fill-rule:evenodd;"
points="27358,12951
27358,12361
28500,12361
28500,12951
27358,12951
" /> 
<polyline style="fill-rule:evenodd;"
points="27358,12164
27358,11574
28500,11574
28500,12164
27358,12164
" /> 
<polyline style="fill-rule:evenodd;"
points="27358,11377
27358,10786
28500,10786
28500,11377
27358,11377
" /> 
<polyline style="fill-rule:evenodd;"
points="27358,10589
27358,9999
28500,9999
28500,10589
27358,10589
" /> 
<polyline style="fill-rule:evenodd;"
points="23220,17046
22629,17046
22629,15904
23220,15904
23220,17046
" /> 
<polyline style="fill-rule:evenodd;"
points="24007,17046
23417,17046
23417,15904
24007,15904
24007,17046
" /> 
<polyline style="fill-rule:evenodd;"
points="24795,17046
24204,17046
24204,15904
24795,15904
24795,17046
" /> 
<polyline style="fill-rule:evenodd;"
points="25582,17046
24992,17046
24992,15904
25582,15904
25582,17046
" /> 
<polyline style="fill-rule:evenodd;"
points="26370,17046
25779,17046
25779,15904
26370,15904
26370,17046
" /> 
<polyline style="fill-rule:evenodd;"
points="27157,17046
26566,17046
26566,15904
27157,15904
27157,17046
" /> 
<circle cx="20525" cy="10525" r="492.126" /> 
</g>
<g style="fill:#000000; fill-opacity:1.0; 
stroke:#000000; stroke-width:39.3701; stroke-opacity:1; 
stroke-linecap:round; stroke-linejoin:round;">
</g> 
</svg>
