G04 #@! TF.FileFunction,Soldermask,Bot*
%FSLAX46Y46*%
G04 Gerber Fmt 4.6, Leading zero omitted, Abs format (unit mm)*
G04 Created by KiCad (PCBNEW 4.0.5+dfsg1-4) date Thu Oct 12 19:57:19 2017*
%MOMM*%
%LPD*%
G01*
G04 APERTURE LIST*
%ADD10C,0.100000*%
%ADD11R,1.400000X1.650000*%
%ADD12R,2.600000X2.000000*%
%ADD13R,1.416000X1.416000*%
%ADD14C,1.416000*%
%ADD15R,1.314400X1.416000*%
%ADD16O,1.314400X1.416000*%
%ADD17C,1.314400*%
%ADD18O,1.416000X1.314400*%
%ADD19R,1.416000X1.314400*%
%ADD20R,1.200000X1.300000*%
%ADD21R,1.300000X2.100000*%
%ADD22R,2.100000X1.300000*%
%ADD23R,1.400760X1.901140*%
%ADD24R,2.398980X3.399740*%
%ADD25R,1.950000X1.000000*%
G04 APERTURE END LIST*
D10*
D11*
X71723000Y-32893000D03*
X69723000Y-32893000D03*
D12*
X55626000Y-42164000D03*
X52626000Y-42164000D03*
X55578000Y-37084000D03*
X52578000Y-37084000D03*
D11*
X64897000Y-32893000D03*
X66897000Y-32893000D03*
D13*
X56642000Y-46228000D03*
D14*
X54102000Y-46228000D03*
D13*
X70358000Y-46228000D03*
D14*
X72898000Y-46228000D03*
D13*
X62230000Y-46228000D03*
D14*
X64770000Y-46228000D03*
D15*
X68548000Y-46228000D03*
D16*
X66548000Y-46228000D03*
D15*
X58420000Y-46228000D03*
D16*
X60420000Y-46228000D03*
D17*
X74930000Y-26416000D03*
X74930000Y-28416000D03*
X66802000Y-49784000D03*
X75184000Y-44704000D03*
X60198000Y-49784000D03*
X63500000Y-49784000D03*
X51816000Y-47244000D03*
X75184000Y-47244000D03*
D18*
X51816000Y-49784000D03*
X54610000Y-49784000D03*
X57404000Y-49784000D03*
D19*
X69596000Y-49784000D03*
X72390000Y-49784000D03*
X75184000Y-49784000D03*
D20*
X61910000Y-36687000D03*
X60010000Y-36687000D03*
X60960000Y-34687000D03*
D21*
X54250000Y-26797000D03*
X57150000Y-26797000D03*
X54229000Y-29845000D03*
X57129000Y-29845000D03*
X59256000Y-26797000D03*
X62156000Y-26797000D03*
X59309000Y-29845000D03*
X62209000Y-29845000D03*
X64410000Y-29845000D03*
X67310000Y-29845000D03*
X54229000Y-32893000D03*
X57129000Y-32893000D03*
X69342000Y-29845000D03*
X72242000Y-29845000D03*
X69342000Y-26797000D03*
X72242000Y-26797000D03*
X64336000Y-26797000D03*
X67236000Y-26797000D03*
D22*
X75184000Y-33606000D03*
X75184000Y-37006000D03*
X75184000Y-38686000D03*
X75184000Y-42086000D03*
D23*
X68602860Y-38862000D03*
X70104000Y-38862000D03*
X71605140Y-38862000D03*
D24*
X70104000Y-41813480D03*
D10*
G36*
X70804380Y-39389710D02*
X71304760Y-40539010D01*
X68903240Y-40539010D01*
X69403620Y-39389710D01*
X70804380Y-39389710D01*
X70804380Y-39389710D01*
G37*
D25*
X59276000Y-42799000D03*
X59276000Y-41529000D03*
X59276000Y-40259000D03*
X59276000Y-38989000D03*
X64676000Y-38989000D03*
X64676000Y-40259000D03*
X64676000Y-41529000D03*
X64676000Y-42799000D03*
M02*
