G04 #@! TF.FileFunction,Legend,Bot*
%FSLAX46Y46*%
G04 Gerber Fmt 4.6, Leading zero omitted, Abs format (unit mm)*
G04 Created by KiCad (PCBNEW 4.0.5+dfsg1-4) date Thu Oct 12 19:57:19 2017*
%MOMM*%
%LPD*%
G01*
G04 APERTURE LIST*
%ADD10C,0.100000*%
%ADD11C,0.150000*%
%ADD12C,0.120000*%
G04 APERTURE END LIST*
D10*
D11*
X70223000Y-32043000D02*
X71223000Y-32043000D01*
X71223000Y-33743000D02*
X70223000Y-33743000D01*
X53300500Y-40436800D02*
X52690900Y-41046400D01*
X55853200Y-40436800D02*
X55853200Y-41046400D01*
X53313200Y-43878500D02*
X52716300Y-43281600D01*
X55853200Y-43878500D02*
X55853200Y-43281600D01*
X55218533Y-43281274D02*
G75*
G02X53033800Y-43281600I-1092533J1117274D01*
G01*
X53033467Y-41046726D02*
G75*
G02X55218200Y-41046400I1092533J-1117274D01*
G01*
X53300500Y-40436800D02*
X55840500Y-40436800D01*
X55853200Y-43878500D02*
X53313200Y-43878500D01*
X53252500Y-35356800D02*
X52642900Y-35966400D01*
X55805200Y-35356800D02*
X55805200Y-35966400D01*
X53265200Y-38798500D02*
X52668300Y-38201600D01*
X55805200Y-38798500D02*
X55805200Y-38201600D01*
X55170533Y-38201274D02*
G75*
G02X52985800Y-38201600I-1092533J1117274D01*
G01*
X52985467Y-35966726D02*
G75*
G02X55170200Y-35966400I1092533J-1117274D01*
G01*
X53252500Y-35356800D02*
X55792500Y-35356800D01*
X55805200Y-38798500D02*
X53265200Y-38798500D01*
X66397000Y-33743000D02*
X65397000Y-33743000D01*
X65397000Y-32043000D02*
X66397000Y-32043000D01*
D12*
X59380000Y-34927000D02*
X60310000Y-34927000D01*
X62540000Y-34927000D02*
X61610000Y-34927000D01*
X62540000Y-34927000D02*
X62540000Y-37087000D01*
X59380000Y-34927000D02*
X59380000Y-36387000D01*
D11*
X56700000Y-25722000D02*
X54700000Y-25722000D01*
X54700000Y-27872000D02*
X56700000Y-27872000D01*
X56679000Y-28770000D02*
X54679000Y-28770000D01*
X54679000Y-30920000D02*
X56679000Y-30920000D01*
X61706000Y-25722000D02*
X59706000Y-25722000D01*
X59706000Y-27872000D02*
X61706000Y-27872000D01*
X61759000Y-28770000D02*
X59759000Y-28770000D01*
X59759000Y-30920000D02*
X61759000Y-30920000D01*
X66860000Y-28770000D02*
X64860000Y-28770000D01*
X64860000Y-30920000D02*
X66860000Y-30920000D01*
X56679000Y-31818000D02*
X54679000Y-31818000D01*
X54679000Y-33968000D02*
X56679000Y-33968000D01*
X71792000Y-28770000D02*
X69792000Y-28770000D01*
X69792000Y-30920000D02*
X71792000Y-30920000D01*
X71792000Y-25722000D02*
X69792000Y-25722000D01*
X69792000Y-27872000D02*
X71792000Y-27872000D01*
X66786000Y-25722000D02*
X64786000Y-25722000D01*
X64786000Y-27872000D02*
X66786000Y-27872000D01*
X75934000Y-35306000D02*
G75*
G03X75934000Y-35306000I-750000J0D01*
G01*
X76284000Y-33656000D02*
X76584000Y-33656000D01*
X76584000Y-33656000D02*
X76584000Y-36956000D01*
X76584000Y-36956000D02*
X76284000Y-36956000D01*
X74084000Y-33656000D02*
X73784000Y-33656000D01*
X73784000Y-33656000D02*
X73784000Y-36956000D01*
X73784000Y-36956000D02*
X74084000Y-36956000D01*
X75934000Y-40386000D02*
G75*
G03X75934000Y-40386000I-750000J0D01*
G01*
X76284000Y-38736000D02*
X76584000Y-38736000D01*
X76584000Y-38736000D02*
X76584000Y-42036000D01*
X76584000Y-42036000D02*
X76284000Y-42036000D01*
X74084000Y-38736000D02*
X73784000Y-38736000D01*
X73784000Y-38736000D02*
X73784000Y-42036000D01*
X73784000Y-42036000D02*
X74084000Y-42036000D01*
X68204080Y-40513000D02*
X68453000Y-40812720D01*
X68453000Y-40812720D02*
X68554600Y-40962580D01*
X68554600Y-40962580D02*
X68554600Y-40114220D01*
X67853560Y-42014140D02*
X67853560Y-40213280D01*
X67853560Y-42014140D02*
X68503800Y-42014140D01*
X72354440Y-42014140D02*
X72354440Y-40213280D01*
X72354440Y-42014140D02*
X71704200Y-42014140D01*
X59901000Y-43469000D02*
X59901000Y-43419000D01*
X64051000Y-43469000D02*
X64051000Y-43324000D01*
X64051000Y-38319000D02*
X64051000Y-38464000D01*
X59901000Y-38319000D02*
X59901000Y-38464000D01*
X59901000Y-43469000D02*
X64051000Y-43469000D01*
X59901000Y-38319000D02*
X64051000Y-38319000D01*
X59901000Y-43419000D02*
X58501000Y-43419000D01*
X70889666Y-31150143D02*
X70937285Y-31197762D01*
X71080142Y-31245381D01*
X71175380Y-31245381D01*
X71318238Y-31197762D01*
X71413476Y-31102524D01*
X71461095Y-31007286D01*
X71508714Y-30816810D01*
X71508714Y-30673952D01*
X71461095Y-30483476D01*
X71413476Y-30388238D01*
X71318238Y-30293000D01*
X71175380Y-30245381D01*
X71080142Y-30245381D01*
X70937285Y-30293000D01*
X70889666Y-30340619D01*
X69937285Y-31245381D02*
X70508714Y-31245381D01*
X70223000Y-31245381D02*
X70223000Y-30245381D01*
X70318238Y-30388238D01*
X70413476Y-30483476D01*
X70508714Y-30531095D01*
X54292666Y-39625543D02*
X54340285Y-39673162D01*
X54483142Y-39720781D01*
X54578380Y-39720781D01*
X54721238Y-39673162D01*
X54816476Y-39577924D01*
X54864095Y-39482686D01*
X54911714Y-39292210D01*
X54911714Y-39149352D01*
X54864095Y-38958876D01*
X54816476Y-38863638D01*
X54721238Y-38768400D01*
X54578380Y-38720781D01*
X54483142Y-38720781D01*
X54340285Y-38768400D01*
X54292666Y-38816019D01*
X53911714Y-38816019D02*
X53864095Y-38768400D01*
X53768857Y-38720781D01*
X53530761Y-38720781D01*
X53435523Y-38768400D01*
X53387904Y-38816019D01*
X53340285Y-38911257D01*
X53340285Y-39006495D01*
X53387904Y-39149352D01*
X53959333Y-39720781D01*
X53340285Y-39720781D01*
X52284452Y-40838429D02*
X51522547Y-40838429D01*
X51903499Y-41219381D02*
X51903499Y-40457476D01*
X54244666Y-34545543D02*
X54292285Y-34593162D01*
X54435142Y-34640781D01*
X54530380Y-34640781D01*
X54673238Y-34593162D01*
X54768476Y-34497924D01*
X54816095Y-34402686D01*
X54863714Y-34212210D01*
X54863714Y-34069352D01*
X54816095Y-33878876D01*
X54768476Y-33783638D01*
X54673238Y-33688400D01*
X54530380Y-33640781D01*
X54435142Y-33640781D01*
X54292285Y-33688400D01*
X54244666Y-33736019D01*
X53911333Y-33640781D02*
X53292285Y-33640781D01*
X53625619Y-34021733D01*
X53482761Y-34021733D01*
X53387523Y-34069352D01*
X53339904Y-34116971D01*
X53292285Y-34212210D01*
X53292285Y-34450305D01*
X53339904Y-34545543D01*
X53387523Y-34593162D01*
X53482761Y-34640781D01*
X53768476Y-34640781D01*
X53863714Y-34593162D01*
X53911333Y-34545543D01*
X52236452Y-35758429D02*
X51474547Y-35758429D01*
X51855499Y-36139381D02*
X51855499Y-35377476D01*
X66063666Y-35350143D02*
X66111285Y-35397762D01*
X66254142Y-35445381D01*
X66349380Y-35445381D01*
X66492238Y-35397762D01*
X66587476Y-35302524D01*
X66635095Y-35207286D01*
X66682714Y-35016810D01*
X66682714Y-34873952D01*
X66635095Y-34683476D01*
X66587476Y-34588238D01*
X66492238Y-34493000D01*
X66349380Y-34445381D01*
X66254142Y-34445381D01*
X66111285Y-34493000D01*
X66063666Y-34540619D01*
X65206523Y-34778714D02*
X65206523Y-35445381D01*
X65444619Y-34397762D02*
X65682714Y-35112048D01*
X65063666Y-35112048D01*
X64007619Y-35591762D02*
X63960000Y-35496524D01*
X63864762Y-35401286D01*
X63721905Y-35258429D01*
X63674286Y-35163190D01*
X63674286Y-35067952D01*
X63912381Y-35115571D02*
X63864762Y-35020333D01*
X63769524Y-34925095D01*
X63579048Y-34877476D01*
X63245714Y-34877476D01*
X63055238Y-34925095D01*
X62960000Y-35020333D01*
X62912381Y-35115571D01*
X62912381Y-35306048D01*
X62960000Y-35401286D01*
X63055238Y-35496524D01*
X63245714Y-35544143D01*
X63579048Y-35544143D01*
X63769524Y-35496524D01*
X63864762Y-35401286D01*
X63912381Y-35306048D01*
X63912381Y-35115571D01*
X63912381Y-36496524D02*
X63912381Y-35925095D01*
X63912381Y-36210809D02*
X62912381Y-36210809D01*
X63055238Y-36115571D01*
X63150476Y-36020333D01*
X63198095Y-35925095D01*
X55866666Y-29549381D02*
X56200000Y-29073190D01*
X56438095Y-29549381D02*
X56438095Y-28549381D01*
X56057142Y-28549381D01*
X55961904Y-28597000D01*
X55914285Y-28644619D01*
X55866666Y-28739857D01*
X55866666Y-28882714D01*
X55914285Y-28977952D01*
X55961904Y-29025571D01*
X56057142Y-29073190D01*
X56438095Y-29073190D01*
X54914285Y-29549381D02*
X55485714Y-29549381D01*
X55200000Y-29549381D02*
X55200000Y-28549381D01*
X55295238Y-28692238D01*
X55390476Y-28787476D01*
X55485714Y-28835095D01*
X55845666Y-32597381D02*
X56179000Y-32121190D01*
X56417095Y-32597381D02*
X56417095Y-31597381D01*
X56036142Y-31597381D01*
X55940904Y-31645000D01*
X55893285Y-31692619D01*
X55845666Y-31787857D01*
X55845666Y-31930714D01*
X55893285Y-32025952D01*
X55940904Y-32073571D01*
X56036142Y-32121190D01*
X56417095Y-32121190D01*
X55464714Y-31692619D02*
X55417095Y-31645000D01*
X55321857Y-31597381D01*
X55083761Y-31597381D01*
X54988523Y-31645000D01*
X54940904Y-31692619D01*
X54893285Y-31787857D01*
X54893285Y-31883095D01*
X54940904Y-32025952D01*
X55512333Y-32597381D01*
X54893285Y-32597381D01*
X60872666Y-29549381D02*
X61206000Y-29073190D01*
X61444095Y-29549381D02*
X61444095Y-28549381D01*
X61063142Y-28549381D01*
X60967904Y-28597000D01*
X60920285Y-28644619D01*
X60872666Y-28739857D01*
X60872666Y-28882714D01*
X60920285Y-28977952D01*
X60967904Y-29025571D01*
X61063142Y-29073190D01*
X61444095Y-29073190D01*
X60539333Y-28549381D02*
X59920285Y-28549381D01*
X60253619Y-28930333D01*
X60110761Y-28930333D01*
X60015523Y-28977952D01*
X59967904Y-29025571D01*
X59920285Y-29120810D01*
X59920285Y-29358905D01*
X59967904Y-29454143D01*
X60015523Y-29501762D01*
X60110761Y-29549381D01*
X60396476Y-29549381D01*
X60491714Y-29501762D01*
X60539333Y-29454143D01*
X60925666Y-32597381D02*
X61259000Y-32121190D01*
X61497095Y-32597381D02*
X61497095Y-31597381D01*
X61116142Y-31597381D01*
X61020904Y-31645000D01*
X60973285Y-31692619D01*
X60925666Y-31787857D01*
X60925666Y-31930714D01*
X60973285Y-32025952D01*
X61020904Y-32073571D01*
X61116142Y-32121190D01*
X61497095Y-32121190D01*
X60068523Y-31930714D02*
X60068523Y-32597381D01*
X60306619Y-31549762D02*
X60544714Y-32264048D01*
X59925666Y-32264048D01*
X66026666Y-32597381D02*
X66360000Y-32121190D01*
X66598095Y-32597381D02*
X66598095Y-31597381D01*
X66217142Y-31597381D01*
X66121904Y-31645000D01*
X66074285Y-31692619D01*
X66026666Y-31787857D01*
X66026666Y-31930714D01*
X66074285Y-32025952D01*
X66121904Y-32073571D01*
X66217142Y-32121190D01*
X66598095Y-32121190D01*
X65121904Y-31597381D02*
X65598095Y-31597381D01*
X65645714Y-32073571D01*
X65598095Y-32025952D01*
X65502857Y-31978333D01*
X65264761Y-31978333D01*
X65169523Y-32025952D01*
X65121904Y-32073571D01*
X65074285Y-32168810D01*
X65074285Y-32406905D01*
X65121904Y-32502143D01*
X65169523Y-32549762D01*
X65264761Y-32597381D01*
X65502857Y-32597381D01*
X65598095Y-32549762D01*
X65645714Y-32502143D01*
X55845666Y-35645381D02*
X56179000Y-35169190D01*
X56417095Y-35645381D02*
X56417095Y-34645381D01*
X56036142Y-34645381D01*
X55940904Y-34693000D01*
X55893285Y-34740619D01*
X55845666Y-34835857D01*
X55845666Y-34978714D01*
X55893285Y-35073952D01*
X55940904Y-35121571D01*
X56036142Y-35169190D01*
X56417095Y-35169190D01*
X54988523Y-34645381D02*
X55179000Y-34645381D01*
X55274238Y-34693000D01*
X55321857Y-34740619D01*
X55417095Y-34883476D01*
X55464714Y-35073952D01*
X55464714Y-35454905D01*
X55417095Y-35550143D01*
X55369476Y-35597762D01*
X55274238Y-35645381D01*
X55083761Y-35645381D01*
X54988523Y-35597762D01*
X54940904Y-35550143D01*
X54893285Y-35454905D01*
X54893285Y-35216810D01*
X54940904Y-35121571D01*
X54988523Y-35073952D01*
X55083761Y-35026333D01*
X55274238Y-35026333D01*
X55369476Y-35073952D01*
X55417095Y-35121571D01*
X55464714Y-35216810D01*
X70958666Y-32597381D02*
X71292000Y-32121190D01*
X71530095Y-32597381D02*
X71530095Y-31597381D01*
X71149142Y-31597381D01*
X71053904Y-31645000D01*
X71006285Y-31692619D01*
X70958666Y-31787857D01*
X70958666Y-31930714D01*
X71006285Y-32025952D01*
X71053904Y-32073571D01*
X71149142Y-32121190D01*
X71530095Y-32121190D01*
X70625333Y-31597381D02*
X69958666Y-31597381D01*
X70387238Y-32597381D01*
X70958666Y-29549381D02*
X71292000Y-29073190D01*
X71530095Y-29549381D02*
X71530095Y-28549381D01*
X71149142Y-28549381D01*
X71053904Y-28597000D01*
X71006285Y-28644619D01*
X70958666Y-28739857D01*
X70958666Y-28882714D01*
X71006285Y-28977952D01*
X71053904Y-29025571D01*
X71149142Y-29073190D01*
X71530095Y-29073190D01*
X70387238Y-28977952D02*
X70482476Y-28930333D01*
X70530095Y-28882714D01*
X70577714Y-28787476D01*
X70577714Y-28739857D01*
X70530095Y-28644619D01*
X70482476Y-28597000D01*
X70387238Y-28549381D01*
X70196761Y-28549381D01*
X70101523Y-28597000D01*
X70053904Y-28644619D01*
X70006285Y-28739857D01*
X70006285Y-28787476D01*
X70053904Y-28882714D01*
X70101523Y-28930333D01*
X70196761Y-28977952D01*
X70387238Y-28977952D01*
X70482476Y-29025571D01*
X70530095Y-29073190D01*
X70577714Y-29168429D01*
X70577714Y-29358905D01*
X70530095Y-29454143D01*
X70482476Y-29501762D01*
X70387238Y-29549381D01*
X70196761Y-29549381D01*
X70101523Y-29501762D01*
X70053904Y-29454143D01*
X70006285Y-29358905D01*
X70006285Y-29168429D01*
X70053904Y-29073190D01*
X70101523Y-29025571D01*
X70196761Y-28977952D01*
X65952666Y-29549381D02*
X66286000Y-29073190D01*
X66524095Y-29549381D02*
X66524095Y-28549381D01*
X66143142Y-28549381D01*
X66047904Y-28597000D01*
X66000285Y-28644619D01*
X65952666Y-28739857D01*
X65952666Y-28882714D01*
X66000285Y-28977952D01*
X66047904Y-29025571D01*
X66143142Y-29073190D01*
X66524095Y-29073190D01*
X65476476Y-29549381D02*
X65286000Y-29549381D01*
X65190761Y-29501762D01*
X65143142Y-29454143D01*
X65047904Y-29311286D01*
X65000285Y-29120810D01*
X65000285Y-28739857D01*
X65047904Y-28644619D01*
X65095523Y-28597000D01*
X65190761Y-28549381D01*
X65381238Y-28549381D01*
X65476476Y-28597000D01*
X65524095Y-28644619D01*
X65571714Y-28739857D01*
X65571714Y-28977952D01*
X65524095Y-29073190D01*
X65476476Y-29120810D01*
X65381238Y-29168429D01*
X65190761Y-29168429D01*
X65095523Y-29120810D01*
X65047904Y-29073190D01*
X65000285Y-28977952D01*
X73088762Y-33972667D02*
X73136381Y-34115524D01*
X73136381Y-34353620D01*
X73088762Y-34448858D01*
X73041143Y-34496477D01*
X72945905Y-34544096D01*
X72850667Y-34544096D01*
X72755429Y-34496477D01*
X72707810Y-34448858D01*
X72660190Y-34353620D01*
X72612571Y-34163143D01*
X72564952Y-34067905D01*
X72517333Y-34020286D01*
X72422095Y-33972667D01*
X72326857Y-33972667D01*
X72231619Y-34020286D01*
X72184000Y-34067905D01*
X72136381Y-34163143D01*
X72136381Y-34401239D01*
X72184000Y-34544096D01*
X72136381Y-34877429D02*
X73136381Y-35115524D01*
X72422095Y-35306001D01*
X73136381Y-35496477D01*
X72136381Y-35734572D01*
X73136381Y-36639334D02*
X73136381Y-36067905D01*
X73136381Y-36353619D02*
X72136381Y-36353619D01*
X72279238Y-36258381D01*
X72374476Y-36163143D01*
X72422095Y-36067905D01*
X73088762Y-39052667D02*
X73136381Y-39195524D01*
X73136381Y-39433620D01*
X73088762Y-39528858D01*
X73041143Y-39576477D01*
X72945905Y-39624096D01*
X72850667Y-39624096D01*
X72755429Y-39576477D01*
X72707810Y-39528858D01*
X72660190Y-39433620D01*
X72612571Y-39243143D01*
X72564952Y-39147905D01*
X72517333Y-39100286D01*
X72422095Y-39052667D01*
X72326857Y-39052667D01*
X72231619Y-39100286D01*
X72184000Y-39147905D01*
X72136381Y-39243143D01*
X72136381Y-39481239D01*
X72184000Y-39624096D01*
X72136381Y-39957429D02*
X73136381Y-40195524D01*
X72422095Y-40386001D01*
X73136381Y-40576477D01*
X72136381Y-40814572D01*
X72231619Y-41147905D02*
X72184000Y-41195524D01*
X72136381Y-41290762D01*
X72136381Y-41528858D01*
X72184000Y-41624096D01*
X72231619Y-41671715D01*
X72326857Y-41719334D01*
X72422095Y-41719334D01*
X72564952Y-41671715D01*
X73136381Y-41100286D01*
X73136381Y-41719334D01*
X70766845Y-44415461D02*
X70766845Y-45224985D01*
X70719226Y-45320223D01*
X70671607Y-45367842D01*
X70576369Y-45415461D01*
X70385892Y-45415461D01*
X70290654Y-45367842D01*
X70243035Y-45320223D01*
X70195416Y-45224985D01*
X70195416Y-44415461D01*
X69195416Y-45415461D02*
X69766845Y-45415461D01*
X69481131Y-45415461D02*
X69481131Y-44415461D01*
X69576369Y-44558318D01*
X69671607Y-44653556D01*
X69766845Y-44701175D01*
X62737905Y-43846381D02*
X62737905Y-44655905D01*
X62690286Y-44751143D01*
X62642667Y-44798762D01*
X62547429Y-44846381D01*
X62356952Y-44846381D01*
X62261714Y-44798762D01*
X62214095Y-44751143D01*
X62166476Y-44655905D01*
X62166476Y-43846381D01*
X61785524Y-43846381D02*
X61166476Y-43846381D01*
X61499810Y-44227333D01*
X61356952Y-44227333D01*
X61261714Y-44274952D01*
X61214095Y-44322571D01*
X61166476Y-44417810D01*
X61166476Y-44655905D01*
X61214095Y-44751143D01*
X61261714Y-44798762D01*
X61356952Y-44846381D01*
X61642667Y-44846381D01*
X61737905Y-44798762D01*
X61785524Y-44751143D01*
M02*
