G04 #@! TF.FileFunction,Legend,Bot*
%FSLAX46Y46*%
G04 Gerber Fmt 4.6, Leading zero omitted, Abs format (unit mm)*
G04 Created by KiCad (PCBNEW 4.0.5+dfsg1-4) date Fri Oct 13 22:31:27 2017*
%MOMM*%
%LPD*%
G01*
G04 APERTURE LIST*
%ADD10C,0.100000*%
%ADD11C,0.150000*%
%ADD12C,0.120000*%
%ADD13C,0.127000*%
G04 APERTURE END LIST*
D10*
D11*
X68178680Y-40731440D02*
X68427600Y-41031160D01*
X68427600Y-41031160D02*
X68529200Y-41181020D01*
X68529200Y-41181020D02*
X68529200Y-40332660D01*
X67828160Y-42232580D02*
X67828160Y-40431720D01*
X67828160Y-42232580D02*
X68478400Y-42232580D01*
X72329040Y-42232580D02*
X72329040Y-40431720D01*
X72329040Y-42232580D02*
X71678800Y-42232580D01*
X75934000Y-35306000D02*
G75*
G03X75934000Y-35306000I-750000J0D01*
G01*
X76284000Y-33656000D02*
X76584000Y-33656000D01*
X76584000Y-33656000D02*
X76584000Y-36956000D01*
X76584000Y-36956000D02*
X76284000Y-36956000D01*
X74084000Y-33656000D02*
X73784000Y-33656000D01*
X73784000Y-33656000D02*
X73784000Y-36956000D01*
X73784000Y-36956000D02*
X74084000Y-36956000D01*
X75934000Y-40665400D02*
G75*
G03X75934000Y-40665400I-750000J0D01*
G01*
X76284000Y-39015400D02*
X76584000Y-39015400D01*
X76584000Y-39015400D02*
X76584000Y-42315400D01*
X76584000Y-42315400D02*
X76284000Y-42315400D01*
X74084000Y-39015400D02*
X73784000Y-39015400D01*
X73784000Y-39015400D02*
X73784000Y-42315400D01*
X73784000Y-42315400D02*
X74084000Y-42315400D01*
X70223000Y-32043000D02*
X71223000Y-32043000D01*
X71223000Y-33743000D02*
X70223000Y-33743000D01*
X65397000Y-32043000D02*
X66397000Y-32043000D01*
X66397000Y-33743000D02*
X65397000Y-33743000D01*
D12*
X59380000Y-34927000D02*
X60310000Y-34927000D01*
X62540000Y-34927000D02*
X61610000Y-34927000D01*
X62540000Y-34927000D02*
X62540000Y-37087000D01*
X59380000Y-34927000D02*
X59380000Y-36387000D01*
D11*
X56700000Y-25722000D02*
X54700000Y-25722000D01*
X54700000Y-27872000D02*
X56700000Y-27872000D01*
X56679000Y-28770000D02*
X54679000Y-28770000D01*
X54679000Y-30920000D02*
X56679000Y-30920000D01*
X61706000Y-25722000D02*
X59706000Y-25722000D01*
X59706000Y-27872000D02*
X61706000Y-27872000D01*
X61759000Y-28770000D02*
X59759000Y-28770000D01*
X59759000Y-30920000D02*
X61759000Y-30920000D01*
X66860000Y-28770000D02*
X64860000Y-28770000D01*
X64860000Y-30920000D02*
X66860000Y-30920000D01*
X56679000Y-31818000D02*
X54679000Y-31818000D01*
X54679000Y-33968000D02*
X56679000Y-33968000D01*
X71792000Y-28770000D02*
X69792000Y-28770000D01*
X69792000Y-30920000D02*
X71792000Y-30920000D01*
X71792000Y-25722000D02*
X69792000Y-25722000D01*
X69792000Y-27872000D02*
X71792000Y-27872000D01*
X66786000Y-25722000D02*
X64786000Y-25722000D01*
X64786000Y-27872000D02*
X66786000Y-27872000D01*
X59901000Y-43469000D02*
X59901000Y-43419000D01*
X64051000Y-43469000D02*
X64051000Y-43324000D01*
X64051000Y-38319000D02*
X64051000Y-38464000D01*
X59901000Y-38319000D02*
X59901000Y-38464000D01*
X59901000Y-43469000D02*
X64051000Y-43469000D01*
X59901000Y-38319000D02*
X64051000Y-38319000D01*
X59901000Y-43419000D02*
X58501000Y-43419000D01*
X52311227Y-41044246D02*
G75*
G02X55942100Y-41046400I1814773J-1119754D01*
G01*
X55942100Y-43281600D02*
G75*
G02X52309900Y-43281600I-1816100J1117600D01*
G01*
X51840000Y-43688000D02*
X51840000Y-43281600D01*
X56412000Y-44450000D02*
X56412000Y-43281600D01*
X56412000Y-39878000D02*
X56412000Y-41046400D01*
X51840000Y-40640000D02*
X51840000Y-41046400D01*
X52602000Y-39878000D02*
X56412000Y-39878000D01*
X52602000Y-39878000D02*
X51840000Y-40640000D01*
X52602000Y-44450000D02*
X56412000Y-44450000D01*
X52602000Y-44450000D02*
X51840000Y-43688000D01*
X52263227Y-35964246D02*
G75*
G02X55894100Y-35966400I1814773J-1119754D01*
G01*
X55894100Y-38201600D02*
G75*
G02X52261900Y-38201600I-1816100J1117600D01*
G01*
X51792000Y-38608000D02*
X51792000Y-38201600D01*
X56364000Y-39370000D02*
X56364000Y-38201600D01*
X56364000Y-34798000D02*
X56364000Y-35966400D01*
X51792000Y-35560000D02*
X51792000Y-35966400D01*
X52554000Y-34798000D02*
X56364000Y-34798000D01*
X52554000Y-34798000D02*
X51792000Y-35560000D01*
X52554000Y-39370000D02*
X56364000Y-39370000D01*
X52554000Y-39370000D02*
X51792000Y-38608000D01*
X70741445Y-44633901D02*
X70741445Y-45443425D01*
X70693826Y-45538663D01*
X70646207Y-45586282D01*
X70550969Y-45633901D01*
X70360492Y-45633901D01*
X70265254Y-45586282D01*
X70217635Y-45538663D01*
X70170016Y-45443425D01*
X70170016Y-44633901D01*
X69170016Y-45633901D02*
X69741445Y-45633901D01*
X69455731Y-45633901D02*
X69455731Y-44633901D01*
X69550969Y-44776758D01*
X69646207Y-44871996D01*
X69741445Y-44919615D01*
X73088762Y-33972667D02*
X73136381Y-34115524D01*
X73136381Y-34353620D01*
X73088762Y-34448858D01*
X73041143Y-34496477D01*
X72945905Y-34544096D01*
X72850667Y-34544096D01*
X72755429Y-34496477D01*
X72707810Y-34448858D01*
X72660190Y-34353620D01*
X72612571Y-34163143D01*
X72564952Y-34067905D01*
X72517333Y-34020286D01*
X72422095Y-33972667D01*
X72326857Y-33972667D01*
X72231619Y-34020286D01*
X72184000Y-34067905D01*
X72136381Y-34163143D01*
X72136381Y-34401239D01*
X72184000Y-34544096D01*
X72136381Y-34877429D02*
X73136381Y-35115524D01*
X72422095Y-35306001D01*
X73136381Y-35496477D01*
X72136381Y-35734572D01*
X73136381Y-36639334D02*
X73136381Y-36067905D01*
X73136381Y-36353619D02*
X72136381Y-36353619D01*
X72279238Y-36258381D01*
X72374476Y-36163143D01*
X72422095Y-36067905D01*
X73088762Y-39332067D02*
X73136381Y-39474924D01*
X73136381Y-39713020D01*
X73088762Y-39808258D01*
X73041143Y-39855877D01*
X72945905Y-39903496D01*
X72850667Y-39903496D01*
X72755429Y-39855877D01*
X72707810Y-39808258D01*
X72660190Y-39713020D01*
X72612571Y-39522543D01*
X72564952Y-39427305D01*
X72517333Y-39379686D01*
X72422095Y-39332067D01*
X72326857Y-39332067D01*
X72231619Y-39379686D01*
X72184000Y-39427305D01*
X72136381Y-39522543D01*
X72136381Y-39760639D01*
X72184000Y-39903496D01*
X72136381Y-40236829D02*
X73136381Y-40474924D01*
X72422095Y-40665401D01*
X73136381Y-40855877D01*
X72136381Y-41093972D01*
X72231619Y-41427305D02*
X72184000Y-41474924D01*
X72136381Y-41570162D01*
X72136381Y-41808258D01*
X72184000Y-41903496D01*
X72231619Y-41951115D01*
X72326857Y-41998734D01*
X72422095Y-41998734D01*
X72564952Y-41951115D01*
X73136381Y-41379686D01*
X73136381Y-41998734D01*
X70889666Y-31150143D02*
X70937285Y-31197762D01*
X71080142Y-31245381D01*
X71175380Y-31245381D01*
X71318238Y-31197762D01*
X71413476Y-31102524D01*
X71461095Y-31007286D01*
X71508714Y-30816810D01*
X71508714Y-30673952D01*
X71461095Y-30483476D01*
X71413476Y-30388238D01*
X71318238Y-30293000D01*
X71175380Y-30245381D01*
X71080142Y-30245381D01*
X70937285Y-30293000D01*
X70889666Y-30340619D01*
X69937285Y-31245381D02*
X70508714Y-31245381D01*
X70223000Y-31245381D02*
X70223000Y-30245381D01*
X70318238Y-30388238D01*
X70413476Y-30483476D01*
X70508714Y-30531095D01*
X66063666Y-31150143D02*
X66111285Y-31197762D01*
X66254142Y-31245381D01*
X66349380Y-31245381D01*
X66492238Y-31197762D01*
X66587476Y-31102524D01*
X66635095Y-31007286D01*
X66682714Y-30816810D01*
X66682714Y-30673952D01*
X66635095Y-30483476D01*
X66587476Y-30388238D01*
X66492238Y-30293000D01*
X66349380Y-30245381D01*
X66254142Y-30245381D01*
X66111285Y-30293000D01*
X66063666Y-30340619D01*
X65206523Y-30578714D02*
X65206523Y-31245381D01*
X65444619Y-30197762D02*
X65682714Y-30912048D01*
X65063666Y-30912048D01*
X64007619Y-35591762D02*
X63960000Y-35496524D01*
X63864762Y-35401286D01*
X63721905Y-35258429D01*
X63674286Y-35163190D01*
X63674286Y-35067952D01*
X63912381Y-35115571D02*
X63864762Y-35020333D01*
X63769524Y-34925095D01*
X63579048Y-34877476D01*
X63245714Y-34877476D01*
X63055238Y-34925095D01*
X62960000Y-35020333D01*
X62912381Y-35115571D01*
X62912381Y-35306048D01*
X62960000Y-35401286D01*
X63055238Y-35496524D01*
X63245714Y-35544143D01*
X63579048Y-35544143D01*
X63769524Y-35496524D01*
X63864762Y-35401286D01*
X63912381Y-35306048D01*
X63912381Y-35115571D01*
X63912381Y-36496524D02*
X63912381Y-35925095D01*
X63912381Y-36210809D02*
X62912381Y-36210809D01*
X63055238Y-36115571D01*
X63150476Y-36020333D01*
X63198095Y-35925095D01*
X55866666Y-29549381D02*
X56200000Y-29073190D01*
X56438095Y-29549381D02*
X56438095Y-28549381D01*
X56057142Y-28549381D01*
X55961904Y-28597000D01*
X55914285Y-28644619D01*
X55866666Y-28739857D01*
X55866666Y-28882714D01*
X55914285Y-28977952D01*
X55961904Y-29025571D01*
X56057142Y-29073190D01*
X56438095Y-29073190D01*
X54914285Y-29549381D02*
X55485714Y-29549381D01*
X55200000Y-29549381D02*
X55200000Y-28549381D01*
X55295238Y-28692238D01*
X55390476Y-28787476D01*
X55485714Y-28835095D01*
X55845666Y-32597381D02*
X56179000Y-32121190D01*
X56417095Y-32597381D02*
X56417095Y-31597381D01*
X56036142Y-31597381D01*
X55940904Y-31645000D01*
X55893285Y-31692619D01*
X55845666Y-31787857D01*
X55845666Y-31930714D01*
X55893285Y-32025952D01*
X55940904Y-32073571D01*
X56036142Y-32121190D01*
X56417095Y-32121190D01*
X55464714Y-31692619D02*
X55417095Y-31645000D01*
X55321857Y-31597381D01*
X55083761Y-31597381D01*
X54988523Y-31645000D01*
X54940904Y-31692619D01*
X54893285Y-31787857D01*
X54893285Y-31883095D01*
X54940904Y-32025952D01*
X55512333Y-32597381D01*
X54893285Y-32597381D01*
X60872666Y-29549381D02*
X61206000Y-29073190D01*
X61444095Y-29549381D02*
X61444095Y-28549381D01*
X61063142Y-28549381D01*
X60967904Y-28597000D01*
X60920285Y-28644619D01*
X60872666Y-28739857D01*
X60872666Y-28882714D01*
X60920285Y-28977952D01*
X60967904Y-29025571D01*
X61063142Y-29073190D01*
X61444095Y-29073190D01*
X60539333Y-28549381D02*
X59920285Y-28549381D01*
X60253619Y-28930333D01*
X60110761Y-28930333D01*
X60015523Y-28977952D01*
X59967904Y-29025571D01*
X59920285Y-29120810D01*
X59920285Y-29358905D01*
X59967904Y-29454143D01*
X60015523Y-29501762D01*
X60110761Y-29549381D01*
X60396476Y-29549381D01*
X60491714Y-29501762D01*
X60539333Y-29454143D01*
X60925666Y-32597381D02*
X61259000Y-32121190D01*
X61497095Y-32597381D02*
X61497095Y-31597381D01*
X61116142Y-31597381D01*
X61020904Y-31645000D01*
X60973285Y-31692619D01*
X60925666Y-31787857D01*
X60925666Y-31930714D01*
X60973285Y-32025952D01*
X61020904Y-32073571D01*
X61116142Y-32121190D01*
X61497095Y-32121190D01*
X60068523Y-31930714D02*
X60068523Y-32597381D01*
X60306619Y-31549762D02*
X60544714Y-32264048D01*
X59925666Y-32264048D01*
X66026666Y-32597381D02*
X66360000Y-32121190D01*
X66598095Y-32597381D02*
X66598095Y-31597381D01*
X66217142Y-31597381D01*
X66121904Y-31645000D01*
X66074285Y-31692619D01*
X66026666Y-31787857D01*
X66026666Y-31930714D01*
X66074285Y-32025952D01*
X66121904Y-32073571D01*
X66217142Y-32121190D01*
X66598095Y-32121190D01*
X65121904Y-31597381D02*
X65598095Y-31597381D01*
X65645714Y-32073571D01*
X65598095Y-32025952D01*
X65502857Y-31978333D01*
X65264761Y-31978333D01*
X65169523Y-32025952D01*
X65121904Y-32073571D01*
X65074285Y-32168810D01*
X65074285Y-32406905D01*
X65121904Y-32502143D01*
X65169523Y-32549762D01*
X65264761Y-32597381D01*
X65502857Y-32597381D01*
X65598095Y-32549762D01*
X65645714Y-32502143D01*
X55845666Y-35645381D02*
X56179000Y-35169190D01*
X56417095Y-35645381D02*
X56417095Y-34645381D01*
X56036142Y-34645381D01*
X55940904Y-34693000D01*
X55893285Y-34740619D01*
X55845666Y-34835857D01*
X55845666Y-34978714D01*
X55893285Y-35073952D01*
X55940904Y-35121571D01*
X56036142Y-35169190D01*
X56417095Y-35169190D01*
X54988523Y-34645381D02*
X55179000Y-34645381D01*
X55274238Y-34693000D01*
X55321857Y-34740619D01*
X55417095Y-34883476D01*
X55464714Y-35073952D01*
X55464714Y-35454905D01*
X55417095Y-35550143D01*
X55369476Y-35597762D01*
X55274238Y-35645381D01*
X55083761Y-35645381D01*
X54988523Y-35597762D01*
X54940904Y-35550143D01*
X54893285Y-35454905D01*
X54893285Y-35216810D01*
X54940904Y-35121571D01*
X54988523Y-35073952D01*
X55083761Y-35026333D01*
X55274238Y-35026333D01*
X55369476Y-35073952D01*
X55417095Y-35121571D01*
X55464714Y-35216810D01*
X70958666Y-32597381D02*
X71292000Y-32121190D01*
X71530095Y-32597381D02*
X71530095Y-31597381D01*
X71149142Y-31597381D01*
X71053904Y-31645000D01*
X71006285Y-31692619D01*
X70958666Y-31787857D01*
X70958666Y-31930714D01*
X71006285Y-32025952D01*
X71053904Y-32073571D01*
X71149142Y-32121190D01*
X71530095Y-32121190D01*
X70625333Y-31597381D02*
X69958666Y-31597381D01*
X70387238Y-32597381D01*
X70958666Y-29549381D02*
X71292000Y-29073190D01*
X71530095Y-29549381D02*
X71530095Y-28549381D01*
X71149142Y-28549381D01*
X71053904Y-28597000D01*
X71006285Y-28644619D01*
X70958666Y-28739857D01*
X70958666Y-28882714D01*
X71006285Y-28977952D01*
X71053904Y-29025571D01*
X71149142Y-29073190D01*
X71530095Y-29073190D01*
X70387238Y-28977952D02*
X70482476Y-28930333D01*
X70530095Y-28882714D01*
X70577714Y-28787476D01*
X70577714Y-28739857D01*
X70530095Y-28644619D01*
X70482476Y-28597000D01*
X70387238Y-28549381D01*
X70196761Y-28549381D01*
X70101523Y-28597000D01*
X70053904Y-28644619D01*
X70006285Y-28739857D01*
X70006285Y-28787476D01*
X70053904Y-28882714D01*
X70101523Y-28930333D01*
X70196761Y-28977952D01*
X70387238Y-28977952D01*
X70482476Y-29025571D01*
X70530095Y-29073190D01*
X70577714Y-29168429D01*
X70577714Y-29358905D01*
X70530095Y-29454143D01*
X70482476Y-29501762D01*
X70387238Y-29549381D01*
X70196761Y-29549381D01*
X70101523Y-29501762D01*
X70053904Y-29454143D01*
X70006285Y-29358905D01*
X70006285Y-29168429D01*
X70053904Y-29073190D01*
X70101523Y-29025571D01*
X70196761Y-28977952D01*
X65952666Y-29549381D02*
X66286000Y-29073190D01*
X66524095Y-29549381D02*
X66524095Y-28549381D01*
X66143142Y-28549381D01*
X66047904Y-28597000D01*
X66000285Y-28644619D01*
X65952666Y-28739857D01*
X65952666Y-28882714D01*
X66000285Y-28977952D01*
X66047904Y-29025571D01*
X66143142Y-29073190D01*
X66524095Y-29073190D01*
X65476476Y-29549381D02*
X65286000Y-29549381D01*
X65190761Y-29501762D01*
X65143142Y-29454143D01*
X65047904Y-29311286D01*
X65000285Y-29120810D01*
X65000285Y-28739857D01*
X65047904Y-28644619D01*
X65095523Y-28597000D01*
X65190761Y-28549381D01*
X65381238Y-28549381D01*
X65476476Y-28597000D01*
X65524095Y-28644619D01*
X65571714Y-28739857D01*
X65571714Y-28977952D01*
X65524095Y-29073190D01*
X65476476Y-29120810D01*
X65381238Y-29168429D01*
X65190761Y-29168429D01*
X65095523Y-29120810D01*
X65047904Y-29073190D01*
X65000285Y-28977952D01*
D13*
X62363048Y-44115810D02*
X62363048Y-44527048D01*
X62338857Y-44575429D01*
X62314667Y-44599619D01*
X62266286Y-44623810D01*
X62169524Y-44623810D01*
X62121143Y-44599619D01*
X62096952Y-44575429D01*
X62072762Y-44527048D01*
X62072762Y-44115810D01*
X61879239Y-44115810D02*
X61564762Y-44115810D01*
X61734096Y-44309333D01*
X61661524Y-44309333D01*
X61613143Y-44333524D01*
X61588953Y-44357714D01*
X61564762Y-44406095D01*
X61564762Y-44527048D01*
X61588953Y-44575429D01*
X61613143Y-44599619D01*
X61661524Y-44623810D01*
X61806667Y-44623810D01*
X61855048Y-44599619D01*
X61879239Y-44575429D01*
D11*
X54292666Y-38977843D02*
X54340285Y-39025462D01*
X54483142Y-39073081D01*
X54578380Y-39073081D01*
X54721238Y-39025462D01*
X54816476Y-38930224D01*
X54864095Y-38834986D01*
X54911714Y-38644510D01*
X54911714Y-38501652D01*
X54864095Y-38311176D01*
X54816476Y-38215938D01*
X54721238Y-38120700D01*
X54578380Y-38073081D01*
X54483142Y-38073081D01*
X54340285Y-38120700D01*
X54292666Y-38168319D01*
X53911714Y-38168319D02*
X53864095Y-38120700D01*
X53768857Y-38073081D01*
X53530761Y-38073081D01*
X53435523Y-38120700D01*
X53387904Y-38168319D01*
X53340285Y-38263557D01*
X53340285Y-38358795D01*
X53387904Y-38501652D01*
X53959333Y-39073081D01*
X53340285Y-39073081D01*
X51738352Y-40228829D02*
X50976447Y-40228829D01*
X51357399Y-40609781D02*
X51357399Y-39847876D01*
X54244666Y-33897843D02*
X54292285Y-33945462D01*
X54435142Y-33993081D01*
X54530380Y-33993081D01*
X54673238Y-33945462D01*
X54768476Y-33850224D01*
X54816095Y-33754986D01*
X54863714Y-33564510D01*
X54863714Y-33421652D01*
X54816095Y-33231176D01*
X54768476Y-33135938D01*
X54673238Y-33040700D01*
X54530380Y-32993081D01*
X54435142Y-32993081D01*
X54292285Y-33040700D01*
X54244666Y-33088319D01*
X53911333Y-32993081D02*
X53292285Y-32993081D01*
X53625619Y-33374033D01*
X53482761Y-33374033D01*
X53387523Y-33421652D01*
X53339904Y-33469271D01*
X53292285Y-33564510D01*
X53292285Y-33802605D01*
X53339904Y-33897843D01*
X53387523Y-33945462D01*
X53482761Y-33993081D01*
X53768476Y-33993081D01*
X53863714Y-33945462D01*
X53911333Y-33897843D01*
X51690352Y-35148829D02*
X50928447Y-35148829D01*
X51309399Y-35529781D02*
X51309399Y-34767876D01*
M02*
