G04 #@! TF.FileFunction,Soldermask,Top*
%FSLAX46Y46*%
G04 Gerber Fmt 4.6, Leading zero omitted, Abs format (unit mm)*
G04 Created by KiCad (PCBNEW 4.0.5+dfsg1-4) date Mon Oct 16 20:34:33 2017*
%MOMM*%
%LPD*%
G01*
G04 APERTURE LIST*
%ADD10C,0.100000*%
%ADD11C,1.314400*%
%ADD12R,1.416000X1.416000*%
%ADD13C,1.416000*%
%ADD14R,1.314400X1.416000*%
%ADD15O,1.314400X1.416000*%
%ADD16O,1.416000X1.314400*%
%ADD17R,1.416000X1.314400*%
%ADD18C,2.500000*%
%ADD19R,2.900000X1.500000*%
%ADD20R,1.500000X2.900000*%
G04 APERTURE END LIST*
D10*
D11*
X60421520Y-44668440D03*
D12*
X70358000Y-46228000D03*
D13*
X72898000Y-46228000D03*
D12*
X62230000Y-46228000D03*
D13*
X64770000Y-46228000D03*
D14*
X58420000Y-46228000D03*
D15*
X60420000Y-46228000D03*
D14*
X56642000Y-46228000D03*
D13*
X54102000Y-46228000D03*
D11*
X74930000Y-29369000D03*
X74930000Y-31369000D03*
D14*
X68548000Y-46228000D03*
D15*
X66548000Y-46228000D03*
D11*
X51816000Y-47244000D03*
X75184000Y-44704000D03*
X75184000Y-47244000D03*
X66802000Y-49784000D03*
X63500000Y-49784000D03*
X60198000Y-49784000D03*
D16*
X57404000Y-49784000D03*
X54610000Y-49784000D03*
X51816000Y-49784000D03*
D17*
X75184000Y-49784000D03*
X72390000Y-49784000D03*
X69596000Y-49784000D03*
D18*
X74866500Y-26733500D03*
D19*
X55540000Y-26148000D03*
X55540000Y-28148000D03*
X55540000Y-30148000D03*
X55540000Y-32148000D03*
X55540000Y-34148000D03*
X55540000Y-36148000D03*
X55540000Y-38148000D03*
X55540000Y-40148000D03*
X70940000Y-40148000D03*
X70940000Y-38148000D03*
X70940000Y-36148000D03*
X70940000Y-34148000D03*
X70940000Y-32148000D03*
X70940000Y-30148000D03*
X70940000Y-28148000D03*
X70940000Y-26148000D03*
D20*
X58230000Y-41848000D03*
X60230000Y-41848000D03*
X62230000Y-41848000D03*
X64230000Y-41848000D03*
X66230000Y-41848000D03*
X68230000Y-41848000D03*
D18*
X52133500Y-26733500D03*
M02*
