G04 #@! TF.FileFunction,Legend,Bot*
%FSLAX46Y46*%
G04 Gerber Fmt 4.6, Leading zero omitted, Abs format (unit mm)*
G04 Created by KiCad (PCBNEW 4.0.5+dfsg1-4) date Mon Oct 16 20:34:33 2017*
%MOMM*%
%LPD*%
G01*
G04 APERTURE LIST*
%ADD10C,0.100000*%
%ADD11C,0.254000*%
%ADD12C,0.150000*%
%ADD13C,0.120000*%
%ADD14C,0.127000*%
%ADD15C,0.082550*%
G04 APERTURE END LIST*
D10*
D11*
X52040971Y-34368618D02*
X52040971Y-34029952D01*
X51508781Y-33884809D02*
X51508781Y-34368618D01*
X52524781Y-34368618D01*
X52524781Y-33884809D01*
X51557162Y-33013952D02*
X51508781Y-33110714D01*
X51508781Y-33304237D01*
X51557162Y-33400999D01*
X51605543Y-33449380D01*
X51702305Y-33497761D01*
X51992590Y-33497761D01*
X52089352Y-33449380D01*
X52137733Y-33400999D01*
X52186114Y-33304237D01*
X52186114Y-33110714D01*
X52137733Y-33013952D01*
X51508781Y-32433380D02*
X51557162Y-32530142D01*
X51605543Y-32578523D01*
X51702305Y-32626904D01*
X51992590Y-32626904D01*
X52089352Y-32578523D01*
X52137733Y-32530142D01*
X52186114Y-32433380D01*
X52186114Y-32288238D01*
X52137733Y-32191476D01*
X52089352Y-32143095D01*
X51992590Y-32094714D01*
X51702305Y-32094714D01*
X51605543Y-32143095D01*
X51557162Y-32191476D01*
X51508781Y-32288238D01*
X51508781Y-32433380D01*
X51895829Y-31659285D02*
X51895829Y-30885190D01*
X52524781Y-30546523D02*
X52524781Y-29965952D01*
X51508781Y-30256237D02*
X52524781Y-30256237D01*
X51557162Y-29240238D02*
X51508781Y-29337000D01*
X51508781Y-29530523D01*
X51557162Y-29627285D01*
X51653924Y-29675666D01*
X52040971Y-29675666D01*
X52137733Y-29627285D01*
X52186114Y-29530523D01*
X52186114Y-29337000D01*
X52137733Y-29240238D01*
X52040971Y-29191857D01*
X51944210Y-29191857D01*
X51847448Y-29675666D01*
X51557162Y-28321000D02*
X51508781Y-28417762D01*
X51508781Y-28611285D01*
X51557162Y-28708047D01*
X51605543Y-28756428D01*
X51702305Y-28804809D01*
X51992590Y-28804809D01*
X52089352Y-28756428D01*
X52137733Y-28708047D01*
X52186114Y-28611285D01*
X52186114Y-28417762D01*
X52137733Y-28321000D01*
D12*
X69596000Y-47498000D02*
X69596000Y-45720000D01*
X73660000Y-47498000D02*
X69596000Y-47498000D01*
X73660000Y-45720000D02*
X73660000Y-47498000D01*
X61468000Y-47498000D02*
X61468000Y-45720000D01*
X61468000Y-47498000D02*
X65532000Y-47498000D01*
X65532000Y-47498000D02*
X65532000Y-45720000D01*
X57658000Y-45720000D02*
X57658000Y-47498000D01*
X57658000Y-47498000D02*
X61214000Y-47498000D01*
X61214000Y-47498000D02*
X61214000Y-45720000D01*
X57404000Y-45720000D02*
X57404000Y-47498000D01*
X53340000Y-47498000D02*
X57404000Y-47498000D01*
X53340000Y-47498000D02*
X53340000Y-45720000D01*
X65754000Y-47498000D02*
X65754000Y-45720000D01*
X65754000Y-47498000D02*
X69310000Y-47498000D01*
X69310000Y-47498000D02*
X69310000Y-45720000D01*
X61706000Y-25722000D02*
X59706000Y-25722000D01*
X59706000Y-27872000D02*
X61706000Y-27872000D01*
X68219320Y-40647620D02*
X68468240Y-40947340D01*
X68468240Y-40947340D02*
X68569840Y-41097200D01*
X68569840Y-41097200D02*
X68569840Y-40248840D01*
X67868800Y-42148760D02*
X67868800Y-40347900D01*
X67868800Y-42148760D02*
X68519040Y-42148760D01*
X72369680Y-42148760D02*
X72369680Y-40347900D01*
X72369680Y-42148760D02*
X71719440Y-42148760D01*
X75934000Y-35306000D02*
G75*
G03X75934000Y-35306000I-750000J0D01*
G01*
X76284000Y-33656000D02*
X76584000Y-33656000D01*
X76584000Y-33656000D02*
X76584000Y-36956000D01*
X76584000Y-36956000D02*
X76284000Y-36956000D01*
X74084000Y-33656000D02*
X73784000Y-33656000D01*
X73784000Y-33656000D02*
X73784000Y-36956000D01*
X73784000Y-36956000D02*
X74084000Y-36956000D01*
X75934000Y-40665400D02*
G75*
G03X75934000Y-40665400I-750000J0D01*
G01*
X76284000Y-39015400D02*
X76584000Y-39015400D01*
X76584000Y-39015400D02*
X76584000Y-42315400D01*
X76584000Y-42315400D02*
X76284000Y-42315400D01*
X74084000Y-39015400D02*
X73784000Y-39015400D01*
X73784000Y-39015400D02*
X73784000Y-42315400D01*
X73784000Y-42315400D02*
X74084000Y-42315400D01*
X70223000Y-32043000D02*
X71223000Y-32043000D01*
X71223000Y-33743000D02*
X70223000Y-33743000D01*
X65397000Y-32043000D02*
X66397000Y-32043000D01*
X66397000Y-33743000D02*
X65397000Y-33743000D01*
D13*
X61587500Y-36358100D02*
X60657500Y-36358100D01*
X58427500Y-36358100D02*
X59357500Y-36358100D01*
X58427500Y-36358100D02*
X58427500Y-34198100D01*
X61587500Y-36358100D02*
X61587500Y-34898100D01*
D12*
X56700000Y-25722000D02*
X54700000Y-25722000D01*
X54700000Y-27872000D02*
X56700000Y-27872000D01*
X56679000Y-28770000D02*
X54679000Y-28770000D01*
X54679000Y-30920000D02*
X56679000Y-30920000D01*
X61759000Y-28770000D02*
X59759000Y-28770000D01*
X59759000Y-30920000D02*
X61759000Y-30920000D01*
X66860000Y-28770000D02*
X64860000Y-28770000D01*
X64860000Y-30920000D02*
X66860000Y-30920000D01*
X56679000Y-31818000D02*
X54679000Y-31818000D01*
X54679000Y-33968000D02*
X56679000Y-33968000D01*
X71792000Y-28770000D02*
X69792000Y-28770000D01*
X69792000Y-30920000D02*
X71792000Y-30920000D01*
X71792000Y-25722000D02*
X69792000Y-25722000D01*
X69792000Y-27872000D02*
X71792000Y-27872000D01*
X66798700Y-25798200D02*
X64798700Y-25798200D01*
X64798700Y-27948200D02*
X66798700Y-27948200D01*
X59901000Y-43469000D02*
X59901000Y-43419000D01*
X64051000Y-43469000D02*
X64051000Y-43324000D01*
X64051000Y-38319000D02*
X64051000Y-38464000D01*
X59901000Y-38319000D02*
X59901000Y-38464000D01*
X59901000Y-43469000D02*
X64051000Y-43469000D01*
X59901000Y-38319000D02*
X64051000Y-38319000D01*
X59901000Y-43419000D02*
X58501000Y-43419000D01*
X55929473Y-43283754D02*
G75*
G02X52298600Y-43281600I-1814773J1119754D01*
G01*
X52298600Y-41046400D02*
G75*
G02X55930800Y-41046400I1816100J-1117600D01*
G01*
X56400700Y-40640000D02*
X56400700Y-41046400D01*
X51828700Y-39878000D02*
X51828700Y-41046400D01*
X51828700Y-44450000D02*
X51828700Y-43281600D01*
X56400700Y-43688000D02*
X56400700Y-43281600D01*
X55638700Y-44450000D02*
X51828700Y-44450000D01*
X55638700Y-44450000D02*
X56400700Y-43688000D01*
X55638700Y-39878000D02*
X51828700Y-39878000D01*
X55638700Y-39878000D02*
X56400700Y-40640000D01*
X52263227Y-35964246D02*
G75*
G02X55894100Y-35966400I1814773J-1119754D01*
G01*
X55894100Y-38201600D02*
G75*
G02X52261900Y-38201600I-1816100J1117600D01*
G01*
X51792000Y-38608000D02*
X51792000Y-38201600D01*
X56364000Y-39370000D02*
X56364000Y-38201600D01*
X56364000Y-34798000D02*
X56364000Y-35966400D01*
X51792000Y-35560000D02*
X51792000Y-35966400D01*
X52554000Y-34798000D02*
X56364000Y-34798000D01*
X52554000Y-34798000D02*
X51792000Y-35560000D01*
X52554000Y-39370000D02*
X56364000Y-39370000D01*
X52554000Y-39370000D02*
X51792000Y-38608000D01*
D14*
X70491048Y-45441810D02*
X70491048Y-44933810D01*
X70200762Y-45441810D02*
X70418476Y-45151524D01*
X70200762Y-44933810D02*
X70491048Y-45224095D01*
X62286848Y-45441810D02*
X62286848Y-44933810D01*
X61996562Y-45441810D02*
X62214276Y-45151524D01*
X61996562Y-44933810D02*
X62286848Y-45224095D01*
X58166000Y-44062953D02*
X58141810Y-44014572D01*
X58141810Y-43942000D01*
X58166000Y-43869429D01*
X58214381Y-43821048D01*
X58262762Y-43796857D01*
X58359524Y-43772667D01*
X58432095Y-43772667D01*
X58528857Y-43796857D01*
X58577238Y-43821048D01*
X58625619Y-43869429D01*
X58649810Y-43942000D01*
X58649810Y-43990381D01*
X58625619Y-44062953D01*
X58601429Y-44087143D01*
X58432095Y-44087143D01*
X58432095Y-43990381D01*
X58649810Y-44304857D02*
X58141810Y-44304857D01*
X58649810Y-44595143D01*
X58141810Y-44595143D01*
X58649810Y-44837047D02*
X58141810Y-44837047D01*
X58141810Y-44958000D01*
X58166000Y-45030571D01*
X58214381Y-45078952D01*
X58262762Y-45103143D01*
X58359524Y-45127333D01*
X58432095Y-45127333D01*
X58528857Y-45103143D01*
X58577238Y-45078952D01*
X58625619Y-45030571D01*
X58649810Y-44958000D01*
X58649810Y-44837047D01*
X56775048Y-45441810D02*
X56775048Y-44933810D01*
X56484762Y-45441810D02*
X56702476Y-45151524D01*
X56484762Y-44933810D02*
X56775048Y-45224095D01*
X75840167Y-32475110D02*
X76009500Y-32233205D01*
X76130453Y-32475110D02*
X76130453Y-31967110D01*
X75936929Y-31967110D01*
X75888548Y-31991300D01*
X75864357Y-32015490D01*
X75840167Y-32063871D01*
X75840167Y-32136443D01*
X75864357Y-32184824D01*
X75888548Y-32209014D01*
X75936929Y-32233205D01*
X76130453Y-32233205D01*
X75670834Y-31967110D02*
X75332167Y-32475110D01*
X75332167Y-31967110D02*
X75670834Y-32475110D01*
X75990148Y-28042810D02*
X75699862Y-28042810D01*
X75845005Y-28550810D02*
X75845005Y-28042810D01*
X75578910Y-28042810D02*
X75240243Y-28550810D01*
X75240243Y-28042810D02*
X75578910Y-28550810D01*
X68941647Y-44856400D02*
X68990028Y-44832210D01*
X69062600Y-44832210D01*
X69135171Y-44856400D01*
X69183552Y-44904781D01*
X69207743Y-44953162D01*
X69231933Y-45049924D01*
X69231933Y-45122495D01*
X69207743Y-45219257D01*
X69183552Y-45267638D01*
X69135171Y-45316019D01*
X69062600Y-45340210D01*
X69014219Y-45340210D01*
X68941647Y-45316019D01*
X68917457Y-45291829D01*
X68917457Y-45122495D01*
X69014219Y-45122495D01*
X68699743Y-45340210D02*
X68699743Y-44832210D01*
X68409457Y-45340210D01*
X68409457Y-44832210D01*
X68167553Y-45340210D02*
X68167553Y-44832210D01*
X68046600Y-44832210D01*
X67974029Y-44856400D01*
X67925648Y-44904781D01*
X67901457Y-44953162D01*
X67877267Y-45049924D01*
X67877267Y-45122495D01*
X67901457Y-45219257D01*
X67925648Y-45267638D01*
X67974029Y-45316019D01*
X68046600Y-45340210D01*
X68167553Y-45340210D01*
D15*
X76119567Y-44091376D02*
X76119567Y-43761176D01*
X76040948Y-43761176D01*
X75993776Y-43776900D01*
X75962329Y-43808348D01*
X75946605Y-43839795D01*
X75930881Y-43902690D01*
X75930881Y-43949862D01*
X75946605Y-44012757D01*
X75962329Y-44044205D01*
X75993776Y-44075652D01*
X76040948Y-44091376D01*
X76119567Y-44091376D01*
X75805091Y-43997033D02*
X75647853Y-43997033D01*
X75836538Y-44091376D02*
X75726472Y-43761176D01*
X75616405Y-44091376D01*
X75553509Y-43761176D02*
X75364824Y-43761176D01*
X75459167Y-44091376D02*
X75459167Y-43761176D01*
X75270481Y-43997033D02*
X75113243Y-43997033D01*
X75301928Y-44091376D02*
X75191862Y-43761176D01*
X75081795Y-44091376D01*
X75050347Y-44122824D02*
X74798766Y-44122824D01*
X74735871Y-44075652D02*
X74688699Y-44091376D01*
X74610080Y-44091376D01*
X74578633Y-44075652D01*
X74562909Y-44059929D01*
X74547185Y-44028481D01*
X74547185Y-43997033D01*
X74562909Y-43965586D01*
X74578633Y-43949862D01*
X74610080Y-43934138D01*
X74672976Y-43918414D01*
X74704423Y-43902690D01*
X74720147Y-43886967D01*
X74735871Y-43855519D01*
X74735871Y-43824071D01*
X74720147Y-43792624D01*
X74704423Y-43776900D01*
X74672976Y-43761176D01*
X74594356Y-43761176D01*
X74547185Y-43776900D01*
X74232709Y-44091376D02*
X74421395Y-44091376D01*
X74327052Y-44091376D02*
X74327052Y-43761176D01*
X74358500Y-43808348D01*
X74389947Y-43839795D01*
X74421395Y-43855519D01*
X75883709Y-46113700D02*
X75915157Y-46097976D01*
X75962328Y-46097976D01*
X76009500Y-46113700D01*
X76040947Y-46145148D01*
X76056671Y-46176595D01*
X76072395Y-46239490D01*
X76072395Y-46286662D01*
X76056671Y-46349557D01*
X76040947Y-46381005D01*
X76009500Y-46412452D01*
X75962328Y-46428176D01*
X75930880Y-46428176D01*
X75883709Y-46412452D01*
X75867985Y-46396729D01*
X75867985Y-46286662D01*
X75930880Y-46286662D01*
X75726471Y-46428176D02*
X75726471Y-46097976D01*
X75600680Y-46097976D01*
X75569233Y-46113700D01*
X75553509Y-46129424D01*
X75537785Y-46160871D01*
X75537785Y-46208043D01*
X75553509Y-46239490D01*
X75569233Y-46255214D01*
X75600680Y-46270938D01*
X75726471Y-46270938D01*
X75396271Y-46428176D02*
X75396271Y-46097976D01*
X75176138Y-46097976D02*
X75113242Y-46097976D01*
X75081795Y-46113700D01*
X75050347Y-46145148D01*
X75034623Y-46208043D01*
X75034623Y-46318110D01*
X75050347Y-46381005D01*
X75081795Y-46412452D01*
X75113242Y-46428176D01*
X75176138Y-46428176D01*
X75207585Y-46412452D01*
X75239033Y-46381005D01*
X75254757Y-46318110D01*
X75254757Y-46208043D01*
X75239033Y-46145148D01*
X75207585Y-46113700D01*
X75176138Y-46097976D01*
X74720147Y-46428176D02*
X74908833Y-46428176D01*
X74814490Y-46428176D02*
X74814490Y-46097976D01*
X74845938Y-46145148D01*
X74877385Y-46176595D01*
X74908833Y-46192319D01*
X74610081Y-46097976D02*
X74405671Y-46097976D01*
X74515738Y-46223767D01*
X74468566Y-46223767D01*
X74437119Y-46239490D01*
X74421395Y-46255214D01*
X74405671Y-46286662D01*
X74405671Y-46365281D01*
X74421395Y-46396729D01*
X74437119Y-46412452D01*
X74468566Y-46428176D01*
X74562909Y-46428176D01*
X74594357Y-46412452D01*
X74610081Y-46396729D01*
X74169814Y-46553967D02*
X74185538Y-46538243D01*
X74216986Y-46491071D01*
X74232709Y-46459624D01*
X74248433Y-46412452D01*
X74264157Y-46333833D01*
X74264157Y-46270938D01*
X74248433Y-46192319D01*
X74232709Y-46145148D01*
X74216986Y-46113700D01*
X74185538Y-46066529D01*
X74169814Y-46050805D01*
X74044024Y-46428176D02*
X74044024Y-46097976D01*
X73965405Y-46097976D01*
X73918233Y-46113700D01*
X73886786Y-46145148D01*
X73871062Y-46176595D01*
X73855338Y-46239490D01*
X73855338Y-46286662D01*
X73871062Y-46349557D01*
X73886786Y-46381005D01*
X73918233Y-46412452D01*
X73965405Y-46428176D01*
X74044024Y-46428176D01*
X73745272Y-46553967D02*
X73729548Y-46538243D01*
X73698100Y-46491071D01*
X73682376Y-46459624D01*
X73666653Y-46412452D01*
X73650929Y-46333833D01*
X73650929Y-46270938D01*
X73666653Y-46192319D01*
X73682376Y-46145148D01*
X73698100Y-46113700D01*
X73729548Y-46066529D01*
X73745272Y-46050805D01*
D14*
X67551904Y-48501300D02*
X67600285Y-48477110D01*
X67672857Y-48477110D01*
X67745428Y-48501300D01*
X67793809Y-48549681D01*
X67818000Y-48598062D01*
X67842190Y-48694824D01*
X67842190Y-48767395D01*
X67818000Y-48864157D01*
X67793809Y-48912538D01*
X67745428Y-48960919D01*
X67672857Y-48985110D01*
X67624476Y-48985110D01*
X67551904Y-48960919D01*
X67527714Y-48936729D01*
X67527714Y-48767395D01*
X67624476Y-48767395D01*
X67310000Y-48985110D02*
X67310000Y-48477110D01*
X67116476Y-48477110D01*
X67068095Y-48501300D01*
X67043904Y-48525490D01*
X67019714Y-48573871D01*
X67019714Y-48646443D01*
X67043904Y-48694824D01*
X67068095Y-48719014D01*
X67116476Y-48743205D01*
X67310000Y-48743205D01*
X66802000Y-48985110D02*
X66802000Y-48477110D01*
X66463333Y-48477110D02*
X66366571Y-48477110D01*
X66318190Y-48501300D01*
X66269809Y-48549681D01*
X66245618Y-48646443D01*
X66245618Y-48815776D01*
X66269809Y-48912538D01*
X66318190Y-48960919D01*
X66366571Y-48985110D01*
X66463333Y-48985110D01*
X66511714Y-48960919D01*
X66560095Y-48912538D01*
X66584285Y-48815776D01*
X66584285Y-48646443D01*
X66560095Y-48549681D01*
X66511714Y-48501300D01*
X66463333Y-48477110D01*
X65810190Y-48646443D02*
X65810190Y-48985110D01*
X65931143Y-48452919D02*
X66052095Y-48815776D01*
X65737619Y-48815776D01*
X64491809Y-48412400D02*
X64540190Y-48388210D01*
X64612762Y-48388210D01*
X64685333Y-48412400D01*
X64733714Y-48460781D01*
X64757905Y-48509162D01*
X64782095Y-48605924D01*
X64782095Y-48678495D01*
X64757905Y-48775257D01*
X64733714Y-48823638D01*
X64685333Y-48872019D01*
X64612762Y-48896210D01*
X64564381Y-48896210D01*
X64491809Y-48872019D01*
X64467619Y-48847829D01*
X64467619Y-48678495D01*
X64564381Y-48678495D01*
X64249905Y-48896210D02*
X64249905Y-48388210D01*
X64056381Y-48388210D01*
X64008000Y-48412400D01*
X63983809Y-48436590D01*
X63959619Y-48484971D01*
X63959619Y-48557543D01*
X63983809Y-48605924D01*
X64008000Y-48630114D01*
X64056381Y-48654305D01*
X64249905Y-48654305D01*
X63741905Y-48896210D02*
X63741905Y-48388210D01*
X63403238Y-48388210D02*
X63306476Y-48388210D01*
X63258095Y-48412400D01*
X63209714Y-48460781D01*
X63185523Y-48557543D01*
X63185523Y-48726876D01*
X63209714Y-48823638D01*
X63258095Y-48872019D01*
X63306476Y-48896210D01*
X63403238Y-48896210D01*
X63451619Y-48872019D01*
X63500000Y-48823638D01*
X63524190Y-48726876D01*
X63524190Y-48557543D01*
X63500000Y-48460781D01*
X63451619Y-48412400D01*
X63403238Y-48388210D01*
X62701714Y-48896210D02*
X62992000Y-48896210D01*
X62846857Y-48896210D02*
X62846857Y-48388210D01*
X62895238Y-48460781D01*
X62943619Y-48509162D01*
X62992000Y-48533352D01*
X62532381Y-48388210D02*
X62217904Y-48388210D01*
X62387238Y-48581733D01*
X62314666Y-48581733D01*
X62266285Y-48605924D01*
X62242095Y-48630114D01*
X62217904Y-48678495D01*
X62217904Y-48799448D01*
X62242095Y-48847829D01*
X62266285Y-48872019D01*
X62314666Y-48896210D01*
X62459809Y-48896210D01*
X62508190Y-48872019D01*
X62532381Y-48847829D01*
X61177109Y-48374300D02*
X61225490Y-48350110D01*
X61298062Y-48350110D01*
X61370633Y-48374300D01*
X61419014Y-48422681D01*
X61443205Y-48471062D01*
X61467395Y-48567824D01*
X61467395Y-48640395D01*
X61443205Y-48737157D01*
X61419014Y-48785538D01*
X61370633Y-48833919D01*
X61298062Y-48858110D01*
X61249681Y-48858110D01*
X61177109Y-48833919D01*
X61152919Y-48809729D01*
X61152919Y-48640395D01*
X61249681Y-48640395D01*
X60935205Y-48858110D02*
X60935205Y-48350110D01*
X60741681Y-48350110D01*
X60693300Y-48374300D01*
X60669109Y-48398490D01*
X60644919Y-48446871D01*
X60644919Y-48519443D01*
X60669109Y-48567824D01*
X60693300Y-48592014D01*
X60741681Y-48616205D01*
X60935205Y-48616205D01*
X60427205Y-48858110D02*
X60427205Y-48350110D01*
X60088538Y-48350110D02*
X59991776Y-48350110D01*
X59943395Y-48374300D01*
X59895014Y-48422681D01*
X59870823Y-48519443D01*
X59870823Y-48688776D01*
X59895014Y-48785538D01*
X59943395Y-48833919D01*
X59991776Y-48858110D01*
X60088538Y-48858110D01*
X60136919Y-48833919D01*
X60185300Y-48785538D01*
X60209490Y-48688776D01*
X60209490Y-48519443D01*
X60185300Y-48422681D01*
X60136919Y-48374300D01*
X60088538Y-48350110D01*
X59387014Y-48858110D02*
X59677300Y-48858110D01*
X59532157Y-48858110D02*
X59532157Y-48350110D01*
X59580538Y-48422681D01*
X59628919Y-48471062D01*
X59677300Y-48495252D01*
X59193490Y-48398490D02*
X59169300Y-48374300D01*
X59120919Y-48350110D01*
X58999966Y-48350110D01*
X58951585Y-48374300D01*
X58927395Y-48398490D01*
X58903204Y-48446871D01*
X58903204Y-48495252D01*
X58927395Y-48567824D01*
X59217681Y-48858110D01*
X58903204Y-48858110D01*
X58114596Y-48388210D02*
X57945263Y-48896210D01*
X57775929Y-48388210D01*
X57654977Y-48388210D02*
X57340500Y-48388210D01*
X57509834Y-48581733D01*
X57437262Y-48581733D01*
X57388881Y-48605924D01*
X57364691Y-48630114D01*
X57340500Y-48678495D01*
X57340500Y-48799448D01*
X57364691Y-48847829D01*
X57388881Y-48872019D01*
X57437262Y-48896210D01*
X57582405Y-48896210D01*
X57630786Y-48872019D01*
X57654977Y-48847829D01*
X57122786Y-48847829D02*
X57098595Y-48872019D01*
X57122786Y-48896210D01*
X57146976Y-48872019D01*
X57122786Y-48847829D01*
X57122786Y-48896210D01*
X56929262Y-48388210D02*
X56614785Y-48388210D01*
X56784119Y-48581733D01*
X56711547Y-48581733D01*
X56663166Y-48605924D01*
X56638976Y-48630114D01*
X56614785Y-48678495D01*
X56614785Y-48799448D01*
X56638976Y-48847829D01*
X56663166Y-48872019D01*
X56711547Y-48896210D01*
X56856690Y-48896210D01*
X56905071Y-48872019D01*
X56929262Y-48847829D01*
X55396796Y-48375510D02*
X55227463Y-48883510D01*
X55058129Y-48375510D01*
X54937177Y-48375510D02*
X54622700Y-48375510D01*
X54792034Y-48569033D01*
X54719462Y-48569033D01*
X54671081Y-48593224D01*
X54646891Y-48617414D01*
X54622700Y-48665795D01*
X54622700Y-48786748D01*
X54646891Y-48835129D01*
X54671081Y-48859319D01*
X54719462Y-48883510D01*
X54864605Y-48883510D01*
X54912986Y-48859319D01*
X54937177Y-48835129D01*
X54404986Y-48835129D02*
X54380795Y-48859319D01*
X54404986Y-48883510D01*
X54429176Y-48859319D01*
X54404986Y-48835129D01*
X54404986Y-48883510D01*
X54211462Y-48375510D02*
X53896985Y-48375510D01*
X54066319Y-48569033D01*
X53993747Y-48569033D01*
X53945366Y-48593224D01*
X53921176Y-48617414D01*
X53896985Y-48665795D01*
X53896985Y-48786748D01*
X53921176Y-48835129D01*
X53945366Y-48859319D01*
X53993747Y-48883510D01*
X54138890Y-48883510D01*
X54187271Y-48859319D01*
X54211462Y-48835129D01*
X52640896Y-48413610D02*
X52471563Y-48921610D01*
X52302229Y-48413610D01*
X52181277Y-48413610D02*
X51866800Y-48413610D01*
X52036134Y-48607133D01*
X51963562Y-48607133D01*
X51915181Y-48631324D01*
X51890991Y-48655514D01*
X51866800Y-48703895D01*
X51866800Y-48824848D01*
X51890991Y-48873229D01*
X51915181Y-48897419D01*
X51963562Y-48921610D01*
X52108705Y-48921610D01*
X52157086Y-48897419D01*
X52181277Y-48873229D01*
X51649086Y-48873229D02*
X51624895Y-48897419D01*
X51649086Y-48921610D01*
X51673276Y-48897419D01*
X51649086Y-48873229D01*
X51649086Y-48921610D01*
X51455562Y-48413610D02*
X51141085Y-48413610D01*
X51310419Y-48607133D01*
X51237847Y-48607133D01*
X51189466Y-48631324D01*
X51165276Y-48655514D01*
X51141085Y-48703895D01*
X51141085Y-48824848D01*
X51165276Y-48873229D01*
X51189466Y-48897419D01*
X51237847Y-48921610D01*
X51382990Y-48921610D01*
X51431371Y-48897419D01*
X51455562Y-48873229D01*
X75571047Y-48514000D02*
X75619428Y-48489810D01*
X75692000Y-48489810D01*
X75764571Y-48514000D01*
X75812952Y-48562381D01*
X75837143Y-48610762D01*
X75861333Y-48707524D01*
X75861333Y-48780095D01*
X75837143Y-48876857D01*
X75812952Y-48925238D01*
X75764571Y-48973619D01*
X75692000Y-48997810D01*
X75643619Y-48997810D01*
X75571047Y-48973619D01*
X75546857Y-48949429D01*
X75546857Y-48780095D01*
X75643619Y-48780095D01*
X75329143Y-48997810D02*
X75329143Y-48489810D01*
X75038857Y-48997810D01*
X75038857Y-48489810D01*
X74796953Y-48997810D02*
X74796953Y-48489810D01*
X74676000Y-48489810D01*
X74603429Y-48514000D01*
X74555048Y-48562381D01*
X74530857Y-48610762D01*
X74506667Y-48707524D01*
X74506667Y-48780095D01*
X74530857Y-48876857D01*
X74555048Y-48925238D01*
X74603429Y-48973619D01*
X74676000Y-48997810D01*
X74796953Y-48997810D01*
X72777047Y-48501300D02*
X72825428Y-48477110D01*
X72898000Y-48477110D01*
X72970571Y-48501300D01*
X73018952Y-48549681D01*
X73043143Y-48598062D01*
X73067333Y-48694824D01*
X73067333Y-48767395D01*
X73043143Y-48864157D01*
X73018952Y-48912538D01*
X72970571Y-48960919D01*
X72898000Y-48985110D01*
X72849619Y-48985110D01*
X72777047Y-48960919D01*
X72752857Y-48936729D01*
X72752857Y-48767395D01*
X72849619Y-48767395D01*
X72535143Y-48985110D02*
X72535143Y-48477110D01*
X72244857Y-48985110D01*
X72244857Y-48477110D01*
X72002953Y-48985110D02*
X72002953Y-48477110D01*
X71882000Y-48477110D01*
X71809429Y-48501300D01*
X71761048Y-48549681D01*
X71736857Y-48598062D01*
X71712667Y-48694824D01*
X71712667Y-48767395D01*
X71736857Y-48864157D01*
X71761048Y-48912538D01*
X71809429Y-48960919D01*
X71882000Y-48985110D01*
X72002953Y-48985110D01*
X69983047Y-48514000D02*
X70031428Y-48489810D01*
X70104000Y-48489810D01*
X70176571Y-48514000D01*
X70224952Y-48562381D01*
X70249143Y-48610762D01*
X70273333Y-48707524D01*
X70273333Y-48780095D01*
X70249143Y-48876857D01*
X70224952Y-48925238D01*
X70176571Y-48973619D01*
X70104000Y-48997810D01*
X70055619Y-48997810D01*
X69983047Y-48973619D01*
X69958857Y-48949429D01*
X69958857Y-48780095D01*
X70055619Y-48780095D01*
X69741143Y-48997810D02*
X69741143Y-48489810D01*
X69450857Y-48997810D01*
X69450857Y-48489810D01*
X69208953Y-48997810D02*
X69208953Y-48489810D01*
X69088000Y-48489810D01*
X69015429Y-48514000D01*
X68967048Y-48562381D01*
X68942857Y-48610762D01*
X68918667Y-48707524D01*
X68918667Y-48780095D01*
X68942857Y-48876857D01*
X68967048Y-48925238D01*
X69015429Y-48973619D01*
X69088000Y-48997810D01*
X69208953Y-48997810D01*
X61228514Y-26980243D02*
X61228514Y-27318910D01*
X61349467Y-26786719D02*
X61470419Y-27149576D01*
X61155943Y-27149576D01*
X60962419Y-27270529D02*
X60938228Y-27294719D01*
X60962419Y-27318910D01*
X60986609Y-27294719D01*
X60962419Y-27270529D01*
X60962419Y-27318910D01*
X60768895Y-26810910D02*
X60430228Y-26810910D01*
X60647942Y-27318910D01*
X60236704Y-27318910D02*
X60236704Y-26810910D01*
X60188323Y-27125386D02*
X60043180Y-27318910D01*
X60043180Y-26980243D02*
X60236704Y-27173767D01*
X72187768Y-41166990D02*
X72187768Y-41578228D01*
X72163577Y-41626609D01*
X72139387Y-41650799D01*
X72091006Y-41674990D01*
X71994244Y-41674990D01*
X71945863Y-41650799D01*
X71921672Y-41626609D01*
X71897482Y-41578228D01*
X71897482Y-41166990D01*
X71389482Y-41674990D02*
X71679768Y-41674990D01*
X71534625Y-41674990D02*
X71534625Y-41166990D01*
X71583006Y-41239561D01*
X71631387Y-41287942D01*
X71679768Y-41312132D01*
D15*
X75840166Y-36544552D02*
X75792994Y-36560276D01*
X75714375Y-36560276D01*
X75682928Y-36544552D01*
X75667204Y-36528829D01*
X75651480Y-36497381D01*
X75651480Y-36465933D01*
X75667204Y-36434486D01*
X75682928Y-36418762D01*
X75714375Y-36403038D01*
X75777271Y-36387314D01*
X75808718Y-36371590D01*
X75824442Y-36355867D01*
X75840166Y-36324419D01*
X75840166Y-36292971D01*
X75824442Y-36261524D01*
X75808718Y-36245800D01*
X75777271Y-36230076D01*
X75698651Y-36230076D01*
X75651480Y-36245800D01*
X75541414Y-36230076D02*
X75462795Y-36560276D01*
X75399899Y-36324419D01*
X75337004Y-36560276D01*
X75258385Y-36230076D01*
X74959633Y-36560276D02*
X75148319Y-36560276D01*
X75053976Y-36560276D02*
X75053976Y-36230076D01*
X75085424Y-36277248D01*
X75116871Y-36308695D01*
X75148319Y-36324419D01*
X76020506Y-41916652D02*
X75973334Y-41932376D01*
X75894715Y-41932376D01*
X75863268Y-41916652D01*
X75847544Y-41900929D01*
X75831820Y-41869481D01*
X75831820Y-41838033D01*
X75847544Y-41806586D01*
X75863268Y-41790862D01*
X75894715Y-41775138D01*
X75957611Y-41759414D01*
X75989058Y-41743690D01*
X76004782Y-41727967D01*
X76020506Y-41696519D01*
X76020506Y-41665071D01*
X76004782Y-41633624D01*
X75989058Y-41617900D01*
X75957611Y-41602176D01*
X75878991Y-41602176D01*
X75831820Y-41617900D01*
X75721754Y-41602176D02*
X75643135Y-41932376D01*
X75580239Y-41696519D01*
X75517344Y-41932376D01*
X75438725Y-41602176D01*
X75328659Y-41633624D02*
X75312935Y-41617900D01*
X75281487Y-41602176D01*
X75202868Y-41602176D01*
X75171421Y-41617900D01*
X75155697Y-41633624D01*
X75139973Y-41665071D01*
X75139973Y-41696519D01*
X75155697Y-41743690D01*
X75344383Y-41932376D01*
X75139973Y-41932376D01*
X70888376Y-32392137D02*
X70888376Y-32203451D01*
X70888376Y-32297794D02*
X70558176Y-32297794D01*
X70605348Y-32266346D01*
X70636795Y-32234899D01*
X70652519Y-32203451D01*
X70558176Y-32596546D02*
X70558176Y-32627994D01*
X70573900Y-32659442D01*
X70589624Y-32675165D01*
X70621071Y-32690889D01*
X70683967Y-32706613D01*
X70762586Y-32706613D01*
X70825481Y-32690889D01*
X70856929Y-32675165D01*
X70872652Y-32659442D01*
X70888376Y-32627994D01*
X70888376Y-32596546D01*
X70872652Y-32565099D01*
X70856929Y-32549375D01*
X70825481Y-32533651D01*
X70762586Y-32517927D01*
X70683967Y-32517927D01*
X70621071Y-32533651D01*
X70589624Y-32549375D01*
X70573900Y-32565099D01*
X70558176Y-32596546D01*
X70558176Y-32911022D02*
X70558176Y-32942470D01*
X70573900Y-32973918D01*
X70589624Y-32989641D01*
X70621071Y-33005365D01*
X70683967Y-33021089D01*
X70762586Y-33021089D01*
X70825481Y-33005365D01*
X70856929Y-32989641D01*
X70872652Y-32973918D01*
X70888376Y-32942470D01*
X70888376Y-32911022D01*
X70872652Y-32879575D01*
X70856929Y-32863851D01*
X70825481Y-32848127D01*
X70762586Y-32832403D01*
X70683967Y-32832403D01*
X70621071Y-32848127D01*
X70589624Y-32863851D01*
X70573900Y-32879575D01*
X70558176Y-32911022D01*
X70668243Y-33162603D02*
X70888376Y-33162603D01*
X70699690Y-33162603D02*
X70683967Y-33178327D01*
X70668243Y-33209774D01*
X70668243Y-33256946D01*
X70683967Y-33288394D01*
X70715414Y-33304117D01*
X70888376Y-33304117D01*
X70715414Y-33571422D02*
X70715414Y-33461355D01*
X70888376Y-33461355D02*
X70558176Y-33461355D01*
X70558176Y-33618593D01*
X66057296Y-32427455D02*
X66057296Y-32238769D01*
X66057296Y-32333112D02*
X65727096Y-32333112D01*
X65774268Y-32301664D01*
X65805715Y-32270217D01*
X65821439Y-32238769D01*
X65727096Y-32631864D02*
X65727096Y-32663312D01*
X65742820Y-32694760D01*
X65758544Y-32710483D01*
X65789991Y-32726207D01*
X65852887Y-32741931D01*
X65931506Y-32741931D01*
X65994401Y-32726207D01*
X66025849Y-32710483D01*
X66041572Y-32694760D01*
X66057296Y-32663312D01*
X66057296Y-32631864D01*
X66041572Y-32600417D01*
X66025849Y-32584693D01*
X65994401Y-32568969D01*
X65931506Y-32553245D01*
X65852887Y-32553245D01*
X65789991Y-32568969D01*
X65758544Y-32584693D01*
X65742820Y-32600417D01*
X65727096Y-32631864D01*
X65837163Y-33024959D02*
X66057296Y-33024959D01*
X65837163Y-32883445D02*
X66010125Y-32883445D01*
X66041572Y-32899169D01*
X66057296Y-32930616D01*
X66057296Y-32977788D01*
X66041572Y-33009236D01*
X66025849Y-33024959D01*
X65884334Y-33292264D02*
X65884334Y-33182197D01*
X66057296Y-33182197D02*
X65727096Y-33182197D01*
X65727096Y-33339435D01*
D14*
X60038101Y-35868670D02*
X60086482Y-35844480D01*
X60134863Y-35796099D01*
X60207434Y-35723528D01*
X60255815Y-35699337D01*
X60304196Y-35699337D01*
X60280006Y-35820290D02*
X60328387Y-35796099D01*
X60376768Y-35747718D01*
X60400958Y-35650956D01*
X60400958Y-35481623D01*
X60376768Y-35384861D01*
X60328387Y-35336480D01*
X60280006Y-35312290D01*
X60183244Y-35312290D01*
X60134863Y-35336480D01*
X60086482Y-35384861D01*
X60062291Y-35481623D01*
X60062291Y-35650956D01*
X60086482Y-35747718D01*
X60134863Y-35796099D01*
X60183244Y-35820290D01*
X60280006Y-35820290D01*
X59578482Y-35820290D02*
X59868768Y-35820290D01*
X59723625Y-35820290D02*
X59723625Y-35312290D01*
X59772006Y-35384861D01*
X59820387Y-35433242D01*
X59868768Y-35457432D01*
X56173914Y-26307143D02*
X56173914Y-26645810D01*
X56294867Y-26113619D02*
X56415819Y-26476476D01*
X56101343Y-26476476D01*
X55907819Y-26597429D02*
X55883628Y-26621619D01*
X55907819Y-26645810D01*
X55932009Y-26621619D01*
X55907819Y-26597429D01*
X55907819Y-26645810D01*
X55714295Y-26137810D02*
X55375628Y-26137810D01*
X55593342Y-26645810D01*
X55182104Y-26645810D02*
X55182104Y-26137810D01*
X55133723Y-26452286D02*
X54988580Y-26645810D01*
X54988580Y-26307143D02*
X55182104Y-26500667D01*
X55726391Y-30011310D02*
X55678010Y-30011310D01*
X55629629Y-30035500D01*
X55605438Y-30059690D01*
X55581248Y-30108071D01*
X55557057Y-30204833D01*
X55557057Y-30325786D01*
X55581248Y-30422548D01*
X55605438Y-30470929D01*
X55629629Y-30495119D01*
X55678010Y-30519310D01*
X55726391Y-30519310D01*
X55774772Y-30495119D01*
X55798962Y-30470929D01*
X55823153Y-30422548D01*
X55847343Y-30325786D01*
X55847343Y-30204833D01*
X55823153Y-30108071D01*
X55798962Y-30059690D01*
X55774772Y-30035500D01*
X55726391Y-30011310D01*
X60753776Y-30506610D02*
X61044062Y-30506610D01*
X60898919Y-30506610D02*
X60898919Y-29998610D01*
X60947300Y-30071181D01*
X60995681Y-30119562D01*
X61044062Y-30143752D01*
X60536062Y-30506610D02*
X60536062Y-29998610D01*
X60487681Y-30313086D02*
X60342538Y-30506610D01*
X60342538Y-30167943D02*
X60536062Y-30361467D01*
X66244168Y-30162863D02*
X66244168Y-30501530D01*
X66365121Y-29969339D02*
X66486073Y-30332196D01*
X66171597Y-30332196D01*
X66026454Y-29993530D02*
X65687787Y-29993530D01*
X65905501Y-30501530D01*
X65397501Y-29993530D02*
X65349120Y-29993530D01*
X65300739Y-30017720D01*
X65276548Y-30041910D01*
X65252358Y-30090291D01*
X65228167Y-30187053D01*
X65228167Y-30308006D01*
X65252358Y-30404768D01*
X65276548Y-30453149D01*
X65300739Y-30477339D01*
X65349120Y-30501530D01*
X65397501Y-30501530D01*
X65445882Y-30477339D01*
X65470072Y-30453149D01*
X65494263Y-30404768D01*
X65518453Y-30308006D01*
X65518453Y-30187053D01*
X65494263Y-30090291D01*
X65470072Y-30041910D01*
X65445882Y-30017720D01*
X65397501Y-29993530D01*
X56063848Y-33021210D02*
X56015467Y-33021210D01*
X55967086Y-33045400D01*
X55942895Y-33069590D01*
X55918705Y-33117971D01*
X55894514Y-33214733D01*
X55894514Y-33335686D01*
X55918705Y-33432448D01*
X55942895Y-33480829D01*
X55967086Y-33505019D01*
X56015467Y-33529210D01*
X56063848Y-33529210D01*
X56112229Y-33505019D01*
X56136419Y-33480829D01*
X56160610Y-33432448D01*
X56184800Y-33335686D01*
X56184800Y-33214733D01*
X56160610Y-33117971D01*
X56136419Y-33069590D01*
X56112229Y-33045400D01*
X56063848Y-33021210D01*
X55676800Y-33480829D02*
X55652609Y-33505019D01*
X55676800Y-33529210D01*
X55700990Y-33505019D01*
X55676800Y-33480829D01*
X55676800Y-33529210D01*
X55217180Y-33190543D02*
X55217180Y-33529210D01*
X55338133Y-32997019D02*
X55459085Y-33359876D01*
X55144609Y-33359876D01*
X70774076Y-29693810D02*
X71064362Y-29693810D01*
X70919219Y-29693810D02*
X70919219Y-29185810D01*
X70967600Y-29258381D01*
X71015981Y-29306762D01*
X71064362Y-29330952D01*
X70556362Y-29693810D02*
X70556362Y-29185810D01*
X70507981Y-29500286D02*
X70362838Y-29693810D01*
X70362838Y-29355143D02*
X70556362Y-29548667D01*
X70850276Y-26633110D02*
X71140562Y-26633110D01*
X70995419Y-26633110D02*
X70995419Y-26125110D01*
X71043800Y-26197681D01*
X71092181Y-26246062D01*
X71140562Y-26270252D01*
X70632562Y-26633110D02*
X70632562Y-26125110D01*
X70584181Y-26439586D02*
X70439038Y-26633110D01*
X70439038Y-26294443D02*
X70632562Y-26487967D01*
X66095033Y-27496710D02*
X66385319Y-27496710D01*
X66240176Y-27496710D02*
X66240176Y-26988710D01*
X66288557Y-27061281D01*
X66336938Y-27109662D01*
X66385319Y-27133852D01*
X65877319Y-27448329D02*
X65853128Y-27472519D01*
X65877319Y-27496710D01*
X65901509Y-27472519D01*
X65877319Y-27448329D01*
X65877319Y-27496710D01*
X65659604Y-27037090D02*
X65635414Y-27012900D01*
X65587033Y-26988710D01*
X65466080Y-26988710D01*
X65417699Y-27012900D01*
X65393509Y-27037090D01*
X65369318Y-27085471D01*
X65369318Y-27133852D01*
X65393509Y-27206424D01*
X65683795Y-27496710D01*
X65369318Y-27496710D01*
X65151604Y-27496710D02*
X65151604Y-26988710D01*
X65103223Y-27303186D02*
X64958080Y-27496710D01*
X64958080Y-27158043D02*
X65151604Y-27351567D01*
X62363048Y-39015610D02*
X62363048Y-39426848D01*
X62338857Y-39475229D01*
X62314667Y-39499419D01*
X62266286Y-39523610D01*
X62169524Y-39523610D01*
X62121143Y-39499419D01*
X62096952Y-39475229D01*
X62072762Y-39426848D01*
X62072762Y-39015610D01*
X61879239Y-39015610D02*
X61564762Y-39015610D01*
X61734096Y-39209133D01*
X61661524Y-39209133D01*
X61613143Y-39233324D01*
X61588953Y-39257514D01*
X61564762Y-39305895D01*
X61564762Y-39426848D01*
X61588953Y-39475229D01*
X61613143Y-39499419D01*
X61661524Y-39523610D01*
X61806667Y-39523610D01*
X61855048Y-39499419D01*
X61879239Y-39475229D01*
X54186667Y-43907529D02*
X54210857Y-43931719D01*
X54283429Y-43955910D01*
X54331810Y-43955910D01*
X54404381Y-43931719D01*
X54452762Y-43883338D01*
X54476953Y-43834957D01*
X54501143Y-43738195D01*
X54501143Y-43665624D01*
X54476953Y-43568862D01*
X54452762Y-43520481D01*
X54404381Y-43472100D01*
X54331810Y-43447910D01*
X54283429Y-43447910D01*
X54210857Y-43472100D01*
X54186667Y-43496290D01*
X53993143Y-43496290D02*
X53968953Y-43472100D01*
X53920572Y-43447910D01*
X53799619Y-43447910D01*
X53751238Y-43472100D01*
X53727048Y-43496290D01*
X53702857Y-43544671D01*
X53702857Y-43593052D01*
X53727048Y-43665624D01*
X54017334Y-43955910D01*
X53702857Y-43955910D01*
D12*
X57264252Y-44242029D02*
X56502347Y-44242029D01*
X56883299Y-44622981D02*
X56883299Y-43861076D01*
D14*
X54415267Y-35690629D02*
X54439457Y-35714819D01*
X54512029Y-35739010D01*
X54560410Y-35739010D01*
X54632981Y-35714819D01*
X54681362Y-35666438D01*
X54705553Y-35618057D01*
X54729743Y-35521295D01*
X54729743Y-35448724D01*
X54705553Y-35351962D01*
X54681362Y-35303581D01*
X54632981Y-35255200D01*
X54560410Y-35231010D01*
X54512029Y-35231010D01*
X54439457Y-35255200D01*
X54415267Y-35279390D01*
X54245934Y-35231010D02*
X53931457Y-35231010D01*
X54100791Y-35424533D01*
X54028219Y-35424533D01*
X53979838Y-35448724D01*
X53955648Y-35472914D01*
X53931457Y-35521295D01*
X53931457Y-35642248D01*
X53955648Y-35690629D01*
X53979838Y-35714819D01*
X54028219Y-35739010D01*
X54173362Y-35739010D01*
X54221743Y-35714819D01*
X54245934Y-35690629D01*
D12*
X51690352Y-35148829D02*
X50928447Y-35148829D01*
X51309399Y-35529781D02*
X51309399Y-34767876D01*
M02*
