G04 #@! TF.FileFunction,Legend,Top*
%FSLAX46Y46*%
G04 Gerber Fmt 4.6, Leading zero omitted, Abs format (unit mm)*
G04 Created by KiCad (PCBNEW 4.0.5+dfsg1-4) date Fri Oct 13 22:31:27 2017*
%MOMM*%
%LPD*%
G01*
G04 APERTURE LIST*
%ADD10C,0.100000*%
%ADD11C,0.150000*%
%ADD12C,0.152400*%
%ADD13C,0.127000*%
G04 APERTURE END LIST*
D10*
D11*
X73930000Y-30369000D02*
X75930000Y-30369000D01*
X75930000Y-30369000D02*
X75930000Y-32369000D01*
X75930000Y-32369000D02*
X73930000Y-32369000D01*
X73930000Y-32369000D02*
X73930000Y-30369000D01*
X73430000Y-29369000D02*
X73430000Y-27869000D01*
X73430000Y-27869000D02*
X74930000Y-27869000D01*
D12*
X55224000Y-41007000D02*
X55224000Y-41769000D01*
X55224000Y-41769000D02*
X71226000Y-41769000D01*
X71226000Y-41769000D02*
X71226000Y-41007000D01*
D13*
X54997047Y-46457810D02*
X54997047Y-45949810D01*
X55118000Y-45949810D01*
X55190571Y-45974000D01*
X55238952Y-46022381D01*
X55263143Y-46070762D01*
X55287333Y-46167524D01*
X55287333Y-46240095D01*
X55263143Y-46336857D01*
X55238952Y-46385238D01*
X55190571Y-46433619D01*
X55118000Y-46457810D01*
X54997047Y-46457810D01*
X55771143Y-46457810D02*
X55480857Y-46457810D01*
X55626000Y-46457810D02*
X55626000Y-45949810D01*
X55577619Y-46022381D01*
X55529238Y-46070762D01*
X55480857Y-46094952D01*
X57524952Y-45441810D02*
X57524952Y-44933810D01*
X57815238Y-45441810D02*
X57597524Y-45151524D01*
X57815238Y-44933810D02*
X57524952Y-45224095D01*
X71253047Y-46457810D02*
X71253047Y-45949810D01*
X71374000Y-45949810D01*
X71446571Y-45974000D01*
X71494952Y-46022381D01*
X71519143Y-46070762D01*
X71543333Y-46167524D01*
X71543333Y-46240095D01*
X71519143Y-46336857D01*
X71494952Y-46385238D01*
X71446571Y-46433619D01*
X71374000Y-46457810D01*
X71253047Y-46457810D01*
X71736857Y-45998190D02*
X71761047Y-45974000D01*
X71809428Y-45949810D01*
X71930381Y-45949810D01*
X71978762Y-45974000D01*
X72002952Y-45998190D01*
X72027143Y-46046571D01*
X72027143Y-46094952D01*
X72002952Y-46167524D01*
X71712666Y-46457810D01*
X72027143Y-46457810D01*
X69208952Y-47473810D02*
X69208952Y-46965810D01*
X69499238Y-47473810D02*
X69281524Y-47183524D01*
X69499238Y-46965810D02*
X69208952Y-47256095D01*
X63125047Y-46457810D02*
X63125047Y-45949810D01*
X63246000Y-45949810D01*
X63318571Y-45974000D01*
X63366952Y-46022381D01*
X63391143Y-46070762D01*
X63415333Y-46167524D01*
X63415333Y-46240095D01*
X63391143Y-46336857D01*
X63366952Y-46385238D01*
X63318571Y-46433619D01*
X63246000Y-46457810D01*
X63125047Y-46457810D01*
X63584666Y-45949810D02*
X63899143Y-45949810D01*
X63729809Y-46143333D01*
X63802381Y-46143333D01*
X63850762Y-46167524D01*
X63874952Y-46191714D01*
X63899143Y-46240095D01*
X63899143Y-46361048D01*
X63874952Y-46409429D01*
X63850762Y-46433619D01*
X63802381Y-46457810D01*
X63657238Y-46457810D01*
X63608857Y-46433619D01*
X63584666Y-46409429D01*
X61080952Y-47473810D02*
X61080952Y-46965810D01*
X61371238Y-47473810D02*
X61153524Y-47183524D01*
X61371238Y-46965810D02*
X61080952Y-47256095D01*
X66745810Y-48586571D02*
X66237810Y-48586571D01*
X66745810Y-48344666D02*
X66237810Y-48344666D01*
X66745810Y-48054380D01*
X66237810Y-48054380D01*
X66552286Y-47812476D02*
X66552286Y-47425428D01*
X66745810Y-47618952D02*
X66358762Y-47618952D01*
X68294000Y-48393047D02*
X68269810Y-48441428D01*
X68269810Y-48514000D01*
X68294000Y-48586571D01*
X68342381Y-48634952D01*
X68390762Y-48659143D01*
X68487524Y-48683333D01*
X68560095Y-48683333D01*
X68656857Y-48659143D01*
X68705238Y-48634952D01*
X68753619Y-48586571D01*
X68777810Y-48514000D01*
X68777810Y-48465619D01*
X68753619Y-48393047D01*
X68729429Y-48368857D01*
X68560095Y-48368857D01*
X68560095Y-48465619D01*
X68777810Y-48151143D02*
X68269810Y-48151143D01*
X68777810Y-47860857D01*
X68269810Y-47860857D01*
X68777810Y-47618953D02*
X68269810Y-47618953D01*
X68269810Y-47498000D01*
X68294000Y-47425429D01*
X68342381Y-47377048D01*
X68390762Y-47352857D01*
X68487524Y-47328667D01*
X68560095Y-47328667D01*
X68656857Y-47352857D01*
X68705238Y-47377048D01*
X68753619Y-47425429D01*
X68777810Y-47498000D01*
X68777810Y-47618953D01*
X68294000Y-48393047D02*
X68269810Y-48441428D01*
X68269810Y-48514000D01*
X68294000Y-48586571D01*
X68342381Y-48634952D01*
X68390762Y-48659143D01*
X68487524Y-48683333D01*
X68560095Y-48683333D01*
X68656857Y-48659143D01*
X68705238Y-48634952D01*
X68753619Y-48586571D01*
X68777810Y-48514000D01*
X68777810Y-48465619D01*
X68753619Y-48393047D01*
X68729429Y-48368857D01*
X68560095Y-48368857D01*
X68560095Y-48465619D01*
X68777810Y-48151143D02*
X68269810Y-48151143D01*
X68777810Y-47860857D01*
X68269810Y-47860857D01*
X68777810Y-47618953D02*
X68269810Y-47618953D01*
X68269810Y-47498000D01*
X68294000Y-47425429D01*
X68342381Y-47377048D01*
X68390762Y-47352857D01*
X68487524Y-47328667D01*
X68560095Y-47328667D01*
X68656857Y-47352857D01*
X68705238Y-47377048D01*
X68753619Y-47425429D01*
X68777810Y-47498000D01*
X68777810Y-47618953D01*
X60415714Y-45078952D02*
X60439905Y-45006381D01*
X60464095Y-44982190D01*
X60512476Y-44958000D01*
X60585048Y-44958000D01*
X60633429Y-44982190D01*
X60657619Y-45006381D01*
X60681810Y-45054762D01*
X60681810Y-45248286D01*
X60173810Y-45248286D01*
X60173810Y-45078952D01*
X60198000Y-45030571D01*
X60222190Y-45006381D01*
X60270571Y-44982190D01*
X60318952Y-44982190D01*
X60367333Y-45006381D01*
X60391524Y-45030571D01*
X60415714Y-45078952D01*
X60415714Y-45248286D01*
X60536667Y-44764476D02*
X60536667Y-44522571D01*
X60681810Y-44812857D02*
X60173810Y-44643524D01*
X60681810Y-44474190D01*
X60173810Y-44377428D02*
X60173810Y-44087142D01*
X60681810Y-44232285D02*
X60173810Y-44232285D01*
X60488286Y-43530761D02*
X60488286Y-43143713D01*
X60681810Y-43337237D02*
X60294762Y-43337237D01*
X58166000Y-44837047D02*
X58141810Y-44885428D01*
X58141810Y-44958000D01*
X58166000Y-45030571D01*
X58214381Y-45078952D01*
X58262762Y-45103143D01*
X58359524Y-45127333D01*
X58432095Y-45127333D01*
X58528857Y-45103143D01*
X58577238Y-45078952D01*
X58625619Y-45030571D01*
X58649810Y-44958000D01*
X58649810Y-44909619D01*
X58625619Y-44837047D01*
X58601429Y-44812857D01*
X58432095Y-44812857D01*
X58432095Y-44909619D01*
X58649810Y-44595143D02*
X58141810Y-44595143D01*
X58649810Y-44304857D01*
X58141810Y-44304857D01*
X58649810Y-44062953D02*
X58141810Y-44062953D01*
X58141810Y-43942000D01*
X58166000Y-43869429D01*
X58214381Y-43821048D01*
X58262762Y-43796857D01*
X58359524Y-43772667D01*
X58432095Y-43772667D01*
X58528857Y-43796857D01*
X58577238Y-43821048D01*
X58625619Y-43869429D01*
X58649810Y-43942000D01*
X58649810Y-44062953D01*
D11*
X50292191Y-50760381D02*
X50625524Y-51760381D01*
X50958858Y-50760381D01*
X51196953Y-50760381D02*
X51816001Y-50760381D01*
X51482667Y-51141333D01*
X51625525Y-51141333D01*
X51720763Y-51188952D01*
X51768382Y-51236571D01*
X51816001Y-51331810D01*
X51816001Y-51569905D01*
X51768382Y-51665143D01*
X51720763Y-51712762D01*
X51625525Y-51760381D01*
X51339810Y-51760381D01*
X51244572Y-51712762D01*
X51196953Y-51665143D01*
X52244572Y-51665143D02*
X52292191Y-51712762D01*
X52244572Y-51760381D01*
X52196953Y-51712762D01*
X52244572Y-51665143D01*
X52244572Y-51760381D01*
X52625524Y-50760381D02*
X53244572Y-50760381D01*
X52911238Y-51141333D01*
X53054096Y-51141333D01*
X53149334Y-51188952D01*
X53196953Y-51236571D01*
X53244572Y-51331810D01*
X53244572Y-51569905D01*
X53196953Y-51665143D01*
X53149334Y-51712762D01*
X53054096Y-51760381D01*
X52768381Y-51760381D01*
X52673143Y-51712762D01*
X52625524Y-51665143D01*
X64582381Y-33259905D02*
X65391905Y-33259905D01*
X65487143Y-33212286D01*
X65534762Y-33164667D01*
X65582381Y-33069429D01*
X65582381Y-32878952D01*
X65534762Y-32783714D01*
X65487143Y-32736095D01*
X65391905Y-32688476D01*
X64582381Y-32688476D01*
X64677619Y-32259905D02*
X64630000Y-32212286D01*
X64582381Y-32117048D01*
X64582381Y-31878952D01*
X64630000Y-31783714D01*
X64677619Y-31736095D01*
X64772857Y-31688476D01*
X64868095Y-31688476D01*
X65010952Y-31736095D01*
X65582381Y-32307524D01*
X65582381Y-31688476D01*
M02*
