G04 #@! TF.FileFunction,Copper,L2,Bot,Signal*
%FSLAX46Y46*%
G04 Gerber Fmt 4.6, Leading zero omitted, Abs format (unit mm)*
G04 Created by KiCad (PCBNEW 4.0.5+dfsg1-4) date Mon Oct 16 20:34:33 2017*
%MOMM*%
%LPD*%
G01*
G04 APERTURE LIST*
%ADD10C,0.100000*%
%ADD11C,0.914400*%
%ADD12R,1.016000X1.016000*%
%ADD13C,1.016000*%
%ADD14R,0.914400X1.016000*%
%ADD15O,0.914400X1.016000*%
%ADD16O,1.016000X0.914400*%
%ADD17R,1.016000X0.914400*%
%ADD18R,0.900000X1.700000*%
%ADD19R,1.000760X1.501140*%
%ADD20R,1.998980X2.999740*%
%ADD21R,1.700000X0.900000*%
%ADD22C,2.100000*%
%ADD23R,1.000000X1.250000*%
%ADD24R,0.800000X0.900000*%
%ADD25R,1.550000X0.600000*%
%ADD26R,2.600000X1.600000*%
%ADD27C,0.660400*%
%ADD28C,0.254000*%
G04 APERTURE END LIST*
D10*
D11*
X60421520Y-44668440D03*
D12*
X70358000Y-46228000D03*
D13*
X72898000Y-46228000D03*
D12*
X62230000Y-46228000D03*
D13*
X64770000Y-46228000D03*
D14*
X58420000Y-46228000D03*
D15*
X60420000Y-46228000D03*
D14*
X56642000Y-46228000D03*
D13*
X54102000Y-46228000D03*
D11*
X74930000Y-29369000D03*
X74930000Y-31369000D03*
D14*
X68548000Y-46228000D03*
D15*
X66548000Y-46228000D03*
D11*
X51816000Y-47244000D03*
X75184000Y-44704000D03*
X75184000Y-47244000D03*
X66802000Y-49784000D03*
X63500000Y-49784000D03*
X60198000Y-49784000D03*
D16*
X57404000Y-49784000D03*
X54610000Y-49784000D03*
X51816000Y-49784000D03*
D17*
X75184000Y-49784000D03*
X72390000Y-49784000D03*
X69596000Y-49784000D03*
D18*
X59256000Y-26797000D03*
X62156000Y-26797000D03*
D19*
X68618100Y-38996620D03*
X70119240Y-38996620D03*
X71620380Y-38996620D03*
D20*
X70119240Y-41948100D03*
D21*
X75184000Y-33274000D03*
X75184000Y-37338000D03*
X75184000Y-38633400D03*
X75184000Y-42697400D03*
D22*
X74866500Y-26733500D03*
D23*
X71723000Y-32893000D03*
X69723000Y-32893000D03*
X66897000Y-32893000D03*
X64897000Y-32893000D03*
D24*
X59057500Y-34598100D03*
X60957500Y-34598100D03*
X60007500Y-36598100D03*
D18*
X54250000Y-26797000D03*
X57150000Y-26797000D03*
X54229000Y-29845000D03*
X57129000Y-29845000D03*
X59309000Y-29845000D03*
X62209000Y-29845000D03*
X64410000Y-29845000D03*
X67310000Y-29845000D03*
X54229000Y-32893000D03*
X57129000Y-32893000D03*
X69342000Y-29845000D03*
X72242000Y-29845000D03*
X69342000Y-26797000D03*
X72242000Y-26797000D03*
X64348700Y-26873200D03*
X67248700Y-26873200D03*
D25*
X59276000Y-42799000D03*
X59276000Y-41529000D03*
X59276000Y-40259000D03*
X59276000Y-38989000D03*
X64676000Y-38989000D03*
X64676000Y-40259000D03*
X64676000Y-41529000D03*
X64676000Y-42799000D03*
D22*
X52133500Y-26733500D03*
D26*
X55914700Y-42164000D03*
X52314700Y-42164000D03*
X52278000Y-37084000D03*
X55878000Y-37084000D03*
D27*
X68041705Y-36150835D03*
X66245014Y-31491722D03*
X58203000Y-27322800D03*
X60669175Y-39389777D03*
X64332989Y-37879128D03*
X65142232Y-49741147D03*
X58380500Y-33300000D03*
X74404410Y-43861631D03*
X60564174Y-26172179D03*
X74980476Y-32791066D03*
X53181682Y-29894752D03*
X63226705Y-26989246D03*
X74567800Y-39721700D03*
X63444361Y-32986624D03*
D28*
X70078600Y-38075870D02*
X69814360Y-37811630D01*
X67909518Y-37811630D02*
X67414990Y-38306158D01*
X69814360Y-37811630D02*
X67909518Y-37811630D01*
X65682069Y-46903431D02*
X65354200Y-47231300D01*
X67414990Y-38306158D02*
X67414990Y-42943410D01*
X67414990Y-42943410D02*
X65682069Y-44676331D01*
X65682069Y-44676331D02*
X65682069Y-46903431D01*
X71723000Y-32893000D02*
X71723000Y-36898766D01*
X71723000Y-36898766D02*
X71125017Y-37496749D01*
X71125017Y-37496749D02*
X70363966Y-37496749D01*
X70078600Y-37782115D02*
X70078600Y-38075870D01*
X70363966Y-37496749D02*
X70078600Y-37782115D01*
X63519700Y-38989000D02*
X63451056Y-39057644D01*
X63451056Y-39057644D02*
X63451056Y-47260325D01*
X63451056Y-47260325D02*
X63436500Y-47274881D01*
X63519700Y-38989000D02*
X63460541Y-38929841D01*
X63460541Y-38929841D02*
X63460541Y-35925659D01*
X63460541Y-35925659D02*
X64897000Y-34489200D01*
X64897000Y-34489200D02*
X64897000Y-32893000D01*
X60420000Y-46228000D02*
X60420000Y-46944578D01*
X60420000Y-46944578D02*
X60750303Y-47274881D01*
X60750303Y-47274881D02*
X62912919Y-47274881D01*
X62912919Y-47274881D02*
X63436500Y-47274881D01*
X65310619Y-47274881D02*
X65354200Y-47231300D01*
X65354200Y-47231300D02*
X65669600Y-46915900D01*
X63436500Y-47274881D02*
X65310619Y-47274881D01*
X70078600Y-38075870D02*
X70078600Y-39080440D01*
X64410000Y-30949000D02*
X64897000Y-31436000D01*
X64410000Y-29845000D02*
X64410000Y-30949000D01*
X64897000Y-32014000D02*
X64897000Y-32893000D01*
X64897000Y-31436000D02*
X64897000Y-32014000D01*
X64676000Y-38989000D02*
X63519700Y-38989000D01*
X69723000Y-34469540D02*
X68371904Y-35820636D01*
X68371904Y-35820636D02*
X68041705Y-36150835D01*
X69723000Y-32893000D02*
X69723000Y-34469540D01*
X68548000Y-46228000D02*
X68285510Y-46228000D01*
X68285510Y-46228000D02*
X67251854Y-47261656D01*
X67251854Y-47261656D02*
X66484720Y-47261656D01*
X66484720Y-47261656D02*
X65918811Y-47827565D01*
X65918811Y-47827565D02*
X59254291Y-47827565D01*
X59254291Y-47827565D02*
X58420000Y-46993274D01*
X58420000Y-46993274D02*
X58420000Y-46228000D01*
X60957500Y-34598100D02*
X60957500Y-35302100D01*
X60957500Y-35302100D02*
X61380377Y-35724977D01*
X61380377Y-35724977D02*
X61380377Y-39916595D01*
X61380377Y-39916595D02*
X61037972Y-40259000D01*
X61037972Y-40259000D02*
X60305000Y-40259000D01*
X60305000Y-40259000D02*
X59276000Y-40259000D01*
X60957500Y-34598100D02*
X60957500Y-35279976D01*
X52278000Y-28912192D02*
X52278000Y-36030000D01*
X60957500Y-35279976D02*
X60646895Y-35590581D01*
X52834629Y-28355563D02*
X52278000Y-28912192D01*
X60646895Y-35590581D02*
X58076571Y-35590581D01*
X58076571Y-35590581D02*
X57496516Y-35010526D01*
X57496516Y-35010526D02*
X56771572Y-35010526D01*
X56771572Y-35010526D02*
X56031527Y-34270481D01*
X56031527Y-34270481D02*
X56031527Y-29409003D01*
X56031527Y-29409003D02*
X54978087Y-28355563D01*
X54978087Y-28355563D02*
X52834629Y-28355563D01*
X52278000Y-36030000D02*
X52278000Y-37084000D01*
X75184000Y-37338000D02*
X74493598Y-37338000D01*
X74493598Y-37338000D02*
X73856599Y-37974999D01*
X73856599Y-37974999D02*
X73856599Y-40504308D01*
X73856599Y-40504308D02*
X75184000Y-41831709D01*
X75184000Y-41831709D02*
X75184000Y-41993400D01*
X75184000Y-41993400D02*
X75184000Y-42697400D01*
X67236000Y-26797000D02*
X67236000Y-28365761D01*
X66600742Y-28491139D02*
X66245014Y-28846867D01*
X67236000Y-28365761D02*
X67110622Y-28491139D01*
X67110622Y-28491139D02*
X66600742Y-28491139D01*
X66245014Y-28846867D02*
X66245014Y-31024749D01*
X66245014Y-31024749D02*
X66245014Y-31491722D01*
X59276000Y-40259000D02*
X58488179Y-40259000D01*
X58488179Y-40259000D02*
X58119999Y-40627180D01*
X58119999Y-40627180D02*
X58119999Y-42371024D01*
X58119999Y-42371024D02*
X58547975Y-42799000D01*
X58547975Y-42799000D02*
X59276000Y-42799000D01*
X58420000Y-44526200D02*
X59276000Y-43670200D01*
X59276000Y-43670200D02*
X59276000Y-42799000D01*
X58420000Y-46228000D02*
X58420000Y-44526200D01*
X52314700Y-42164000D02*
X52314700Y-37120700D01*
X52314700Y-37120700D02*
X52278000Y-37084000D01*
X76022201Y-45214698D02*
X76022201Y-45034200D01*
X76022201Y-45034200D02*
X76022201Y-44450000D01*
X76022201Y-48234599D02*
X76022201Y-45034200D01*
X75184000Y-49784000D02*
X75184000Y-49072800D01*
X75184000Y-49072800D02*
X76022201Y-48234599D01*
X68577460Y-39080440D02*
X68577460Y-40085010D01*
X68577460Y-40085010D02*
X68222261Y-40440209D01*
X68222261Y-40440209D02*
X68222261Y-43204622D01*
X68548000Y-43530361D02*
X68548000Y-46228000D01*
X68222261Y-43204622D02*
X68548000Y-43530361D01*
X68548000Y-45338700D02*
X68548000Y-46228000D01*
X66374722Y-31491722D02*
X66245014Y-31491722D01*
X66897000Y-32014000D02*
X66374722Y-31491722D01*
X66897000Y-32893000D02*
X66897000Y-32014000D01*
X66897000Y-32893000D02*
X66897000Y-32768000D01*
X72440800Y-49784000D02*
X72390000Y-49784000D01*
X75184000Y-49618608D02*
X75184000Y-49784000D01*
X76022201Y-44301663D02*
X76022201Y-44450000D01*
X76022201Y-43281601D02*
X76022201Y-44450000D01*
X75438000Y-42697400D02*
X76022201Y-43281601D01*
X75184000Y-42697400D02*
X75438000Y-42697400D01*
X57404000Y-49784000D02*
X58166000Y-49784000D01*
X58166000Y-49784000D02*
X59594762Y-48355238D01*
X59594762Y-48355238D02*
X67158288Y-48355238D01*
X69098074Y-47521934D02*
X69415000Y-47205008D01*
X67158288Y-48355238D02*
X67991592Y-47521934D01*
X67991592Y-47521934D02*
X69098074Y-47521934D01*
X69415000Y-47205008D02*
X69415000Y-44841805D01*
X69415000Y-44841805D02*
X69750706Y-44506099D01*
X69750706Y-44506099D02*
X71100452Y-44506099D01*
X71100452Y-44506099D02*
X71579740Y-44026811D01*
X71579740Y-44026811D02*
X71579740Y-40085010D01*
X71579740Y-40085010D02*
X71579740Y-39080440D01*
X55346600Y-43786100D02*
X55346600Y-48336200D01*
X55346600Y-48336200D02*
X54610000Y-49072800D01*
X54610000Y-49072800D02*
X54610000Y-49784000D01*
X55914700Y-42164000D02*
X55914700Y-43218000D01*
X55914700Y-43218000D02*
X55346600Y-43786100D01*
X59256000Y-26797000D02*
X58424700Y-26797000D01*
X57150000Y-26797000D02*
X57981300Y-26797000D01*
X58203000Y-27018700D02*
X57981300Y-26797000D01*
X58203000Y-27018700D02*
X58424700Y-26797000D01*
X58203000Y-27322800D02*
X58203000Y-27018700D01*
X55878000Y-37084000D02*
X55878000Y-36442811D01*
X55878000Y-36442811D02*
X54229000Y-34793811D01*
X54229000Y-34793811D02*
X54229000Y-32893000D01*
X64676000Y-42799000D02*
X64761283Y-42799000D01*
X64761283Y-42799000D02*
X64770000Y-42807717D01*
X64770000Y-42807717D02*
X64770000Y-46228000D01*
X59276000Y-38989000D02*
X58172532Y-38989000D01*
X58172532Y-38989000D02*
X57610157Y-38426625D01*
X57610157Y-38426625D02*
X57610157Y-37434075D01*
X57610157Y-37434075D02*
X57260082Y-37084000D01*
X57260082Y-37084000D02*
X55578000Y-37084000D01*
X60669175Y-39353175D02*
X60669175Y-39389777D01*
X60305000Y-38989000D02*
X60669175Y-39353175D01*
X59276000Y-38989000D02*
X60305000Y-38989000D01*
X57482801Y-35902999D02*
X58177902Y-36598100D01*
X56507623Y-35902999D02*
X57482801Y-35902999D01*
X55423659Y-34819035D02*
X56507623Y-35902999D01*
X53063540Y-31824407D02*
X53562362Y-31325585D01*
X53063540Y-35063134D02*
X53063540Y-31824407D01*
X54891977Y-31325585D02*
X55423659Y-31857267D01*
X54098175Y-36097769D02*
X53063540Y-35063134D01*
X53562362Y-31325585D02*
X54891977Y-31325585D01*
X57595701Y-45223499D02*
X57595701Y-40010394D01*
X54098175Y-38811405D02*
X54098175Y-36097769D01*
X56939751Y-39354444D02*
X54641214Y-39354444D01*
X54641214Y-39354444D02*
X54098175Y-38811405D01*
X56642000Y-46177200D02*
X57595701Y-45223499D01*
X56642000Y-46228000D02*
X56642000Y-46177200D01*
X59353500Y-36598100D02*
X60007500Y-36598100D01*
X58177902Y-36598100D02*
X59353500Y-36598100D01*
X55423659Y-31857267D02*
X55423659Y-34819035D01*
X57595701Y-40010394D02*
X56939751Y-39354444D01*
X67310000Y-29845000D02*
X67310000Y-30949000D01*
X67310000Y-30949000D02*
X67920644Y-31559644D01*
X67920644Y-31559644D02*
X67920644Y-33910547D01*
X67920644Y-33910547D02*
X67318813Y-34512378D01*
X67318813Y-34512378D02*
X66330489Y-34512378D01*
X66330489Y-34512378D02*
X65399202Y-35443665D01*
X65399202Y-35443665D02*
X65399202Y-37335101D01*
X65399202Y-37335101D02*
X64855175Y-37879128D01*
X64855175Y-37879128D02*
X64332989Y-37879128D01*
X72242000Y-29845000D02*
X72242000Y-30949000D01*
X72749602Y-31456602D02*
X72749602Y-34550690D01*
X72749602Y-34550690D02*
X72585037Y-34715255D01*
X72585037Y-34715255D02*
X72585037Y-44762963D01*
X72242000Y-30949000D02*
X72749602Y-31456602D01*
X71120000Y-46228000D02*
X70358000Y-46228000D01*
X72585037Y-44762963D02*
X71120000Y-46228000D01*
X65142232Y-49741147D02*
X65472431Y-49410948D01*
X65472431Y-49410948D02*
X65472431Y-49219165D01*
X65472431Y-49219165D02*
X65803138Y-48888458D01*
X65803138Y-48888458D02*
X67847274Y-48888458D01*
X67847274Y-48888458D02*
X68590859Y-48144873D01*
X68590859Y-48144873D02*
X73016490Y-48144873D01*
X73016490Y-48144873D02*
X73787001Y-47374362D01*
X73787001Y-47374362D02*
X73787001Y-45163050D01*
X73787001Y-45163050D02*
X73243036Y-44619085D01*
X73243036Y-44619085D02*
X73243036Y-34981284D01*
X73243036Y-34981284D02*
X73606103Y-34618217D01*
X73606103Y-34618217D02*
X73606103Y-27628292D01*
X73606103Y-27628292D02*
X72774811Y-26797000D01*
X72774811Y-26797000D02*
X72242000Y-26797000D01*
X57129000Y-32893000D02*
X58004358Y-32893000D01*
X58004358Y-32893000D02*
X58380500Y-33269142D01*
X58380500Y-33269142D02*
X58380500Y-33300000D01*
X66802000Y-49784000D02*
X68026048Y-49784000D01*
X68026048Y-49784000D02*
X68915652Y-48894396D01*
X68915652Y-48894396D02*
X73312376Y-48894396D01*
X73312376Y-48894396D02*
X74295012Y-47911760D01*
X74295012Y-47911760D02*
X74295012Y-44438002D01*
X74295012Y-44438002D02*
X74404410Y-44328604D01*
X74404410Y-44328604D02*
X74404410Y-43861631D01*
X54250000Y-26797000D02*
X55556376Y-26797000D01*
X55945208Y-27185832D02*
X55945208Y-28081609D01*
X55556376Y-26797000D02*
X55945208Y-27185832D01*
X55945208Y-28081609D02*
X56302221Y-28438622D01*
X57129000Y-28720146D02*
X57129000Y-29845000D01*
X56302221Y-28438622D02*
X56847476Y-28438622D01*
X56847476Y-28438622D02*
X57129000Y-28720146D01*
X60564174Y-26172179D02*
X60564174Y-27409363D01*
X60564174Y-27409363D02*
X59547897Y-28425640D01*
X59547897Y-28425640D02*
X57645885Y-28425640D01*
X57129000Y-28942525D02*
X57129000Y-29845000D01*
X57645885Y-28425640D02*
X57129000Y-28942525D01*
X74980476Y-33106037D02*
X74980476Y-32791066D01*
X75107389Y-33232950D02*
X74980476Y-33106037D01*
X75132805Y-33232950D02*
X75107389Y-33232950D01*
X75132805Y-33554805D02*
X75132805Y-33232950D01*
X75184000Y-33606000D02*
X75132805Y-33554805D01*
X75173855Y-33274000D02*
X75132805Y-33232950D01*
X75184000Y-33274000D02*
X75173855Y-33274000D01*
X53231434Y-29845000D02*
X53181682Y-29894752D01*
X54229000Y-29845000D02*
X53231434Y-29845000D01*
X63034459Y-26797000D02*
X63226705Y-26989246D01*
X62156000Y-26797000D02*
X63034459Y-26797000D01*
X75184000Y-38633400D02*
X75184000Y-39105500D01*
X75184000Y-39105500D02*
X74567800Y-39721700D01*
X75184000Y-38354000D02*
X75184000Y-39105500D01*
X74772200Y-39517300D02*
X74567800Y-39721700D01*
X63114162Y-32656425D02*
X63444361Y-32986624D01*
X62209000Y-31751263D02*
X63114162Y-32656425D01*
X62209000Y-29845000D02*
X62209000Y-31751263D01*
X65151000Y-41529000D02*
X64676000Y-41529000D01*
X67489014Y-37238065D02*
X66845111Y-37881968D01*
X68612878Y-37238065D02*
X67489014Y-37238065D01*
X66845111Y-37881968D02*
X66845111Y-39834889D01*
X69342000Y-30245000D02*
X70637400Y-31540400D01*
X70637400Y-35213543D02*
X68612878Y-37238065D01*
X69342000Y-29845000D02*
X69342000Y-30245000D01*
X70637400Y-31540400D02*
X70637400Y-35213543D01*
X66845111Y-39834889D02*
X65151000Y-41529000D01*
X64676000Y-40259000D02*
X65151000Y-40259000D01*
X65151000Y-40259000D02*
X66149871Y-39260129D01*
X66149871Y-39260129D02*
X66149871Y-35682044D01*
X66149871Y-35682044D02*
X66509379Y-35322536D01*
X66509379Y-35322536D02*
X67735465Y-35322536D01*
X68510999Y-30999801D02*
X68510999Y-28690199D01*
X67735465Y-35322536D02*
X68545623Y-34512378D01*
X68545623Y-34512378D02*
X68545623Y-31034425D01*
X68587199Y-28613999D02*
X68629001Y-28613999D01*
X68545623Y-31034425D02*
X68510999Y-30999801D01*
X68510999Y-28690199D02*
X68587199Y-28613999D01*
X68629001Y-28613999D02*
X69342000Y-27901000D01*
X69342000Y-27901000D02*
X69342000Y-26797000D01*
X64348700Y-26873200D02*
X64348700Y-27273200D01*
X64348700Y-27273200D02*
X63399125Y-28222775D01*
X63399125Y-28222775D02*
X61856411Y-28222775D01*
X61856411Y-28222775D02*
X60933500Y-29145686D01*
X60933500Y-29145686D02*
X60933500Y-32282168D01*
X60933500Y-32282168D02*
X62428870Y-33777538D01*
X62428870Y-33777538D02*
X62428870Y-40333090D01*
X62428870Y-40333090D02*
X61232960Y-41529000D01*
X61232960Y-41529000D02*
X59276000Y-41529000D01*
X64336000Y-26897028D02*
X64336000Y-26797000D01*
X59057500Y-34598100D02*
X59057500Y-33894100D01*
X59057500Y-33894100D02*
X59309000Y-33642600D01*
X59309000Y-33642600D02*
X59309000Y-30949000D01*
X59309000Y-30949000D02*
X59309000Y-29845000D01*
G36*
X62866856Y-45279937D02*
X62738000Y-45253843D01*
X61722000Y-45253843D01*
X61552572Y-45285723D01*
X61396962Y-45385855D01*
X61292570Y-45538639D01*
X61255843Y-45720000D01*
X61255843Y-45794967D01*
X61066578Y-45511713D01*
X60949456Y-45433454D01*
X61196258Y-45187082D01*
X61335761Y-44851123D01*
X61336078Y-44487353D01*
X61197162Y-44151151D01*
X60940162Y-43893702D01*
X60604203Y-43754199D01*
X60240433Y-43753882D01*
X59904231Y-43892798D01*
X59646782Y-44149798D01*
X59507279Y-44485757D01*
X59506962Y-44849527D01*
X59645878Y-45185729D01*
X59892120Y-45432401D01*
X59773422Y-45511713D01*
X59575205Y-45808365D01*
X59512200Y-46125111D01*
X59512200Y-46100998D01*
X59353452Y-46100998D01*
X59512200Y-45942250D01*
X59512200Y-45593691D01*
X59415527Y-45360302D01*
X59236899Y-45181673D01*
X59003510Y-45085000D01*
X58705750Y-45085000D01*
X58547000Y-45243750D01*
X58547000Y-46101000D01*
X58567000Y-46101000D01*
X58567000Y-46355000D01*
X58547000Y-46355000D01*
X58547000Y-47212250D01*
X58705750Y-47371000D01*
X59003510Y-47371000D01*
X59236899Y-47274327D01*
X59415527Y-47095698D01*
X59512200Y-46862309D01*
X59512200Y-46513750D01*
X59353452Y-46355002D01*
X59512200Y-46355002D01*
X59512200Y-46330889D01*
X59575205Y-46647635D01*
X59773422Y-46944287D01*
X59845295Y-46992311D01*
X59880270Y-47168142D01*
X59967285Y-47298370D01*
X60006908Y-47357670D01*
X60337211Y-47687973D01*
X60461527Y-47771038D01*
X59594767Y-47771038D01*
X59594762Y-47771037D01*
X59371199Y-47815507D01*
X59371197Y-47815508D01*
X59371198Y-47815508D01*
X59181670Y-47942146D01*
X59181668Y-47942149D01*
X58040024Y-49083792D01*
X57823635Y-48939205D01*
X57473709Y-48869600D01*
X57334291Y-48869600D01*
X56984365Y-48939205D01*
X56687713Y-49137422D01*
X56489496Y-49434074D01*
X56419891Y-49784000D01*
X56489496Y-50133926D01*
X56578948Y-50267800D01*
X55435052Y-50267800D01*
X55524504Y-50133926D01*
X55594109Y-49784000D01*
X55524504Y-49434074D01*
X55344422Y-49164562D01*
X55759692Y-48749292D01*
X55886331Y-48559763D01*
X55930801Y-48336200D01*
X55930800Y-48336195D01*
X55930800Y-47115798D01*
X56003439Y-47165430D01*
X56184800Y-47202157D01*
X57099200Y-47202157D01*
X57268628Y-47170277D01*
X57416067Y-47075403D01*
X57424473Y-47095698D01*
X57603101Y-47274327D01*
X57836490Y-47371000D01*
X58134250Y-47371000D01*
X58293000Y-47212250D01*
X58293000Y-46355000D01*
X58273000Y-46355000D01*
X58273000Y-46101000D01*
X58293000Y-46101000D01*
X58293000Y-45243750D01*
X58179901Y-45130651D01*
X58179901Y-43653315D01*
X58374691Y-43734000D01*
X58990250Y-43734000D01*
X59149000Y-43575250D01*
X59149000Y-42926000D01*
X59403000Y-42926000D01*
X59403000Y-43575250D01*
X59561750Y-43734000D01*
X60177309Y-43734000D01*
X60410698Y-43637327D01*
X60589327Y-43458699D01*
X60686000Y-43225310D01*
X60686000Y-43084750D01*
X60527250Y-42926000D01*
X59403000Y-42926000D01*
X59149000Y-42926000D01*
X59129000Y-42926000D01*
X59129000Y-42672000D01*
X59149000Y-42672000D01*
X59149000Y-42652000D01*
X59403000Y-42652000D01*
X59403000Y-42672000D01*
X60527250Y-42672000D01*
X60686000Y-42513250D01*
X60686000Y-42372690D01*
X60589327Y-42139301D01*
X60563226Y-42113200D01*
X61232960Y-42113200D01*
X61456524Y-42068730D01*
X61646052Y-41942092D01*
X62841962Y-40746182D01*
X62866856Y-40708925D01*
X62866856Y-45279937D01*
X62866856Y-45279937D01*
G37*
X62866856Y-45279937D02*
X62738000Y-45253843D01*
X61722000Y-45253843D01*
X61552572Y-45285723D01*
X61396962Y-45385855D01*
X61292570Y-45538639D01*
X61255843Y-45720000D01*
X61255843Y-45794967D01*
X61066578Y-45511713D01*
X60949456Y-45433454D01*
X61196258Y-45187082D01*
X61335761Y-44851123D01*
X61336078Y-44487353D01*
X61197162Y-44151151D01*
X60940162Y-43893702D01*
X60604203Y-43754199D01*
X60240433Y-43753882D01*
X59904231Y-43892798D01*
X59646782Y-44149798D01*
X59507279Y-44485757D01*
X59506962Y-44849527D01*
X59645878Y-45185729D01*
X59892120Y-45432401D01*
X59773422Y-45511713D01*
X59575205Y-45808365D01*
X59512200Y-46125111D01*
X59512200Y-46100998D01*
X59353452Y-46100998D01*
X59512200Y-45942250D01*
X59512200Y-45593691D01*
X59415527Y-45360302D01*
X59236899Y-45181673D01*
X59003510Y-45085000D01*
X58705750Y-45085000D01*
X58547000Y-45243750D01*
X58547000Y-46101000D01*
X58567000Y-46101000D01*
X58567000Y-46355000D01*
X58547000Y-46355000D01*
X58547000Y-47212250D01*
X58705750Y-47371000D01*
X59003510Y-47371000D01*
X59236899Y-47274327D01*
X59415527Y-47095698D01*
X59512200Y-46862309D01*
X59512200Y-46513750D01*
X59353452Y-46355002D01*
X59512200Y-46355002D01*
X59512200Y-46330889D01*
X59575205Y-46647635D01*
X59773422Y-46944287D01*
X59845295Y-46992311D01*
X59880270Y-47168142D01*
X59967285Y-47298370D01*
X60006908Y-47357670D01*
X60337211Y-47687973D01*
X60461527Y-47771038D01*
X59594767Y-47771038D01*
X59594762Y-47771037D01*
X59371199Y-47815507D01*
X59371197Y-47815508D01*
X59371198Y-47815508D01*
X59181670Y-47942146D01*
X59181668Y-47942149D01*
X58040024Y-49083792D01*
X57823635Y-48939205D01*
X57473709Y-48869600D01*
X57334291Y-48869600D01*
X56984365Y-48939205D01*
X56687713Y-49137422D01*
X56489496Y-49434074D01*
X56419891Y-49784000D01*
X56489496Y-50133926D01*
X56578948Y-50267800D01*
X55435052Y-50267800D01*
X55524504Y-50133926D01*
X55594109Y-49784000D01*
X55524504Y-49434074D01*
X55344422Y-49164562D01*
X55759692Y-48749292D01*
X55886331Y-48559763D01*
X55930801Y-48336200D01*
X55930800Y-48336195D01*
X55930800Y-47115798D01*
X56003439Y-47165430D01*
X56184800Y-47202157D01*
X57099200Y-47202157D01*
X57268628Y-47170277D01*
X57416067Y-47075403D01*
X57424473Y-47095698D01*
X57603101Y-47274327D01*
X57836490Y-47371000D01*
X58134250Y-47371000D01*
X58293000Y-47212250D01*
X58293000Y-46355000D01*
X58273000Y-46355000D01*
X58273000Y-46101000D01*
X58293000Y-46101000D01*
X58293000Y-45243750D01*
X58179901Y-45130651D01*
X58179901Y-43653315D01*
X58374691Y-43734000D01*
X58990250Y-43734000D01*
X59149000Y-43575250D01*
X59149000Y-42926000D01*
X59403000Y-42926000D01*
X59403000Y-43575250D01*
X59561750Y-43734000D01*
X60177309Y-43734000D01*
X60410698Y-43637327D01*
X60589327Y-43458699D01*
X60686000Y-43225310D01*
X60686000Y-43084750D01*
X60527250Y-42926000D01*
X59403000Y-42926000D01*
X59149000Y-42926000D01*
X59129000Y-42926000D01*
X59129000Y-42672000D01*
X59149000Y-42672000D01*
X59149000Y-42652000D01*
X59403000Y-42652000D01*
X59403000Y-42672000D01*
X60527250Y-42672000D01*
X60686000Y-42513250D01*
X60686000Y-42372690D01*
X60589327Y-42139301D01*
X60563226Y-42113200D01*
X61232960Y-42113200D01*
X61456524Y-42068730D01*
X61646052Y-41942092D01*
X62841962Y-40746182D01*
X62866856Y-40708925D01*
X62866856Y-45279937D01*
G36*
X75667800Y-48691800D02*
X75469750Y-48691800D01*
X75311000Y-48850550D01*
X75311000Y-49657000D01*
X75331000Y-49657000D01*
X75331000Y-49911000D01*
X75311000Y-49911000D01*
X75311000Y-49931000D01*
X75057000Y-49931000D01*
X75057000Y-49911000D01*
X74199750Y-49911000D01*
X74041000Y-50069750D01*
X74041000Y-50267800D01*
X73533000Y-50267800D01*
X73533000Y-50069750D01*
X73374250Y-49911000D01*
X72517000Y-49911000D01*
X72517000Y-49931000D01*
X72263000Y-49931000D01*
X72263000Y-49911000D01*
X71405750Y-49911000D01*
X71247000Y-50069750D01*
X71247000Y-50267800D01*
X70739000Y-50267800D01*
X70739000Y-50069750D01*
X70580250Y-49911000D01*
X69723000Y-49911000D01*
X69723000Y-49931000D01*
X69469000Y-49931000D01*
X69469000Y-49911000D01*
X69449000Y-49911000D01*
X69449000Y-49657000D01*
X69469000Y-49657000D01*
X69469000Y-49637000D01*
X69723000Y-49637000D01*
X69723000Y-49657000D01*
X70580250Y-49657000D01*
X70739000Y-49498250D01*
X70739000Y-49478596D01*
X71247000Y-49478596D01*
X71247000Y-49498250D01*
X71405750Y-49657000D01*
X72263000Y-49657000D01*
X72263000Y-49637000D01*
X72517000Y-49637000D01*
X72517000Y-49657000D01*
X73374250Y-49657000D01*
X73533000Y-49498250D01*
X73533000Y-49434711D01*
X73535940Y-49434126D01*
X73725468Y-49307488D01*
X73832466Y-49200490D01*
X74041000Y-49200490D01*
X74041000Y-49498250D01*
X74199750Y-49657000D01*
X75057000Y-49657000D01*
X75057000Y-48850550D01*
X74898250Y-48691800D01*
X74549691Y-48691800D01*
X74316302Y-48788473D01*
X74137673Y-48967101D01*
X74041000Y-49200490D01*
X73832466Y-49200490D01*
X74708104Y-48324852D01*
X74721864Y-48304258D01*
X74834742Y-48135324D01*
X74843240Y-48092601D01*
X75001317Y-48158241D01*
X75365087Y-48158558D01*
X75667800Y-48033479D01*
X75667800Y-48691800D01*
X75667800Y-48691800D01*
G37*
X75667800Y-48691800D02*
X75469750Y-48691800D01*
X75311000Y-48850550D01*
X75311000Y-49657000D01*
X75331000Y-49657000D01*
X75331000Y-49911000D01*
X75311000Y-49911000D01*
X75311000Y-49931000D01*
X75057000Y-49931000D01*
X75057000Y-49911000D01*
X74199750Y-49911000D01*
X74041000Y-50069750D01*
X74041000Y-50267800D01*
X73533000Y-50267800D01*
X73533000Y-50069750D01*
X73374250Y-49911000D01*
X72517000Y-49911000D01*
X72517000Y-49931000D01*
X72263000Y-49931000D01*
X72263000Y-49911000D01*
X71405750Y-49911000D01*
X71247000Y-50069750D01*
X71247000Y-50267800D01*
X70739000Y-50267800D01*
X70739000Y-50069750D01*
X70580250Y-49911000D01*
X69723000Y-49911000D01*
X69723000Y-49931000D01*
X69469000Y-49931000D01*
X69469000Y-49911000D01*
X69449000Y-49911000D01*
X69449000Y-49657000D01*
X69469000Y-49657000D01*
X69469000Y-49637000D01*
X69723000Y-49637000D01*
X69723000Y-49657000D01*
X70580250Y-49657000D01*
X70739000Y-49498250D01*
X70739000Y-49478596D01*
X71247000Y-49478596D01*
X71247000Y-49498250D01*
X71405750Y-49657000D01*
X72263000Y-49657000D01*
X72263000Y-49637000D01*
X72517000Y-49637000D01*
X72517000Y-49657000D01*
X73374250Y-49657000D01*
X73533000Y-49498250D01*
X73533000Y-49434711D01*
X73535940Y-49434126D01*
X73725468Y-49307488D01*
X73832466Y-49200490D01*
X74041000Y-49200490D01*
X74041000Y-49498250D01*
X74199750Y-49657000D01*
X75057000Y-49657000D01*
X75057000Y-48850550D01*
X74898250Y-48691800D01*
X74549691Y-48691800D01*
X74316302Y-48788473D01*
X74137673Y-48967101D01*
X74041000Y-49200490D01*
X73832466Y-49200490D01*
X74708104Y-48324852D01*
X74721864Y-48304258D01*
X74834742Y-48135324D01*
X74843240Y-48092601D01*
X75001317Y-48158241D01*
X75365087Y-48158558D01*
X75667800Y-48033479D01*
X75667800Y-48691800D01*
G36*
X61239843Y-27647000D02*
X61271723Y-27816428D01*
X61336268Y-27916734D01*
X60520408Y-28732594D01*
X60393770Y-28922122D01*
X60349300Y-29145686D01*
X60349300Y-32282168D01*
X60393770Y-32505732D01*
X60503153Y-32669436D01*
X60520408Y-32695260D01*
X61338249Y-33513100D01*
X61243250Y-33513100D01*
X61084500Y-33671850D01*
X61084500Y-34471100D01*
X61104500Y-34471100D01*
X61104500Y-34725100D01*
X61084500Y-34725100D01*
X61084500Y-35524350D01*
X61243250Y-35683100D01*
X61483810Y-35683100D01*
X61717199Y-35586427D01*
X61844670Y-35458955D01*
X61844670Y-40091106D01*
X60990976Y-40944800D01*
X60563226Y-40944800D01*
X60589327Y-40918699D01*
X60686000Y-40685310D01*
X60686000Y-40544750D01*
X60527250Y-40386000D01*
X59403000Y-40386000D01*
X59403000Y-40406000D01*
X59149000Y-40406000D01*
X59149000Y-40386000D01*
X59129000Y-40386000D01*
X59129000Y-40132000D01*
X59149000Y-40132000D01*
X59149000Y-40112000D01*
X59403000Y-40112000D01*
X59403000Y-40132000D01*
X60403396Y-40132000D01*
X60511864Y-40177040D01*
X60825111Y-40177313D01*
X61114619Y-40057691D01*
X61336311Y-39836386D01*
X61456438Y-39547088D01*
X61456711Y-39233841D01*
X61337089Y-38944333D01*
X61115784Y-38722641D01*
X60826486Y-38602514D01*
X60744627Y-38602443D01*
X60718092Y-38575908D01*
X60636365Y-38521300D01*
X60528564Y-38449270D01*
X60427045Y-38429076D01*
X60385145Y-38363962D01*
X60232361Y-38259570D01*
X60051000Y-38222843D01*
X58501000Y-38222843D01*
X58331572Y-38254723D01*
X58290724Y-38281008D01*
X58194357Y-38184641D01*
X58194357Y-37434075D01*
X58149887Y-37210511D01*
X58123854Y-37171549D01*
X58177902Y-37182300D01*
X59166594Y-37182300D01*
X59173223Y-37217528D01*
X59273355Y-37373138D01*
X59426139Y-37477530D01*
X59607500Y-37514257D01*
X60407500Y-37514257D01*
X60576928Y-37482377D01*
X60732538Y-37382245D01*
X60836930Y-37229461D01*
X60873657Y-37048100D01*
X60873657Y-36148100D01*
X60841777Y-35978672D01*
X60741645Y-35823062D01*
X60588861Y-35718670D01*
X60407500Y-35681943D01*
X59607500Y-35681943D01*
X59438072Y-35713823D01*
X59282462Y-35813955D01*
X59178070Y-35966739D01*
X59168520Y-36013900D01*
X58419886Y-36013900D01*
X57895893Y-35489907D01*
X57706365Y-35363269D01*
X57482801Y-35318799D01*
X56749606Y-35318799D01*
X56007859Y-34577051D01*
X56007859Y-31857267D01*
X55963389Y-31633703D01*
X55836751Y-31444175D01*
X55305069Y-30912493D01*
X55214235Y-30851800D01*
X55125421Y-30792457D01*
X55145157Y-30695000D01*
X55145157Y-28995000D01*
X55113277Y-28825572D01*
X55013145Y-28669962D01*
X54860361Y-28565570D01*
X54679000Y-28528843D01*
X53779000Y-28528843D01*
X53609572Y-28560723D01*
X53453962Y-28660855D01*
X53349570Y-28813639D01*
X53312843Y-28995000D01*
X53312843Y-29107466D01*
X53025746Y-29107216D01*
X52736238Y-29226838D01*
X52514546Y-29448143D01*
X52394419Y-29737441D01*
X52394146Y-30050688D01*
X52513768Y-30340196D01*
X52735073Y-30561888D01*
X53024371Y-30682015D01*
X53312843Y-30682266D01*
X53312843Y-30695000D01*
X53330928Y-30791114D01*
X53240104Y-30851800D01*
X53149270Y-30912493D01*
X52650448Y-31411315D01*
X52523810Y-31600843D01*
X52479340Y-31824407D01*
X52479340Y-35063134D01*
X52523810Y-35286698D01*
X52590114Y-35385929D01*
X52650448Y-35476226D01*
X52823222Y-35649000D01*
X52563750Y-35649000D01*
X52405000Y-35807750D01*
X52405000Y-36957000D01*
X52425000Y-36957000D01*
X52425000Y-37211000D01*
X52405000Y-37211000D01*
X52405000Y-38360250D01*
X52563750Y-38519000D01*
X53513975Y-38519000D01*
X53513975Y-38811405D01*
X53558445Y-39034969D01*
X53637581Y-39153405D01*
X53685083Y-39224497D01*
X54228122Y-39767536D01*
X54417650Y-39894174D01*
X54641214Y-39938644D01*
X56697767Y-39938644D01*
X57011501Y-40252378D01*
X57011501Y-40897843D01*
X54614700Y-40897843D01*
X54445272Y-40929723D01*
X54289662Y-41029855D01*
X54211186Y-41144709D01*
X54153027Y-41004301D01*
X53974398Y-40825673D01*
X53741009Y-40729000D01*
X52600450Y-40729000D01*
X52441700Y-40887750D01*
X52441700Y-42037000D01*
X52461700Y-42037000D01*
X52461700Y-42291000D01*
X52441700Y-42291000D01*
X52441700Y-43440250D01*
X52600450Y-43599000D01*
X53741009Y-43599000D01*
X53974398Y-43502327D01*
X54153027Y-43323699D01*
X54211704Y-43182040D01*
X54280555Y-43289038D01*
X54433339Y-43393430D01*
X54614700Y-43430157D01*
X54895322Y-43430157D01*
X54806870Y-43562536D01*
X54762400Y-43786100D01*
X54762400Y-45523362D01*
X54649456Y-45410221D01*
X54294832Y-45262968D01*
X53910852Y-45262633D01*
X53555973Y-45409266D01*
X53284221Y-45680544D01*
X53136968Y-46035168D01*
X53136633Y-46419148D01*
X53283266Y-46774027D01*
X53554544Y-47045779D01*
X53909168Y-47193032D01*
X54293148Y-47193367D01*
X54648027Y-47046734D01*
X54762400Y-46932560D01*
X54762400Y-48094216D01*
X54196908Y-48659708D01*
X54070270Y-48849236D01*
X54031222Y-49045541D01*
X53893713Y-49137422D01*
X53695496Y-49434074D01*
X53625891Y-49784000D01*
X53695496Y-50133926D01*
X53784948Y-50267800D01*
X52641052Y-50267800D01*
X52730504Y-50133926D01*
X52800109Y-49784000D01*
X52730504Y-49434074D01*
X52532287Y-49137422D01*
X52235635Y-48939205D01*
X51885709Y-48869600D01*
X51746291Y-48869600D01*
X51396365Y-48939205D01*
X51332200Y-48982079D01*
X51332200Y-48033206D01*
X51633317Y-48158241D01*
X51997087Y-48158558D01*
X52333289Y-48019642D01*
X52590738Y-47762642D01*
X52730241Y-47426683D01*
X52730558Y-47062913D01*
X52591642Y-46726711D01*
X52334642Y-46469262D01*
X51998683Y-46329759D01*
X51634913Y-46329442D01*
X51332200Y-46454521D01*
X51332200Y-43599000D01*
X52028950Y-43599000D01*
X52187700Y-43440250D01*
X52187700Y-42291000D01*
X52167700Y-42291000D01*
X52167700Y-42037000D01*
X52187700Y-42037000D01*
X52187700Y-40887750D01*
X52028950Y-40729000D01*
X51332200Y-40729000D01*
X51332200Y-38519000D01*
X51992250Y-38519000D01*
X52151000Y-38360250D01*
X52151000Y-37211000D01*
X52131000Y-37211000D01*
X52131000Y-36957000D01*
X52151000Y-36957000D01*
X52151000Y-35807750D01*
X51992250Y-35649000D01*
X51332200Y-35649000D01*
X51332200Y-28032743D01*
X51832384Y-28240438D01*
X52431985Y-28240961D01*
X52986145Y-28011987D01*
X53336678Y-27662066D01*
X53365723Y-27816428D01*
X53465855Y-27972038D01*
X53618639Y-28076430D01*
X53800000Y-28113157D01*
X54700000Y-28113157D01*
X54869428Y-28081277D01*
X55025038Y-27981145D01*
X55129430Y-27828361D01*
X55166157Y-27647000D01*
X55166157Y-27381200D01*
X55314392Y-27381200D01*
X55361008Y-27427815D01*
X55361008Y-28081609D01*
X55405478Y-28305173D01*
X55496054Y-28440730D01*
X55532116Y-28494701D01*
X55889129Y-28851714D01*
X56078658Y-28978353D01*
X56212843Y-29005044D01*
X56212843Y-30695000D01*
X56244723Y-30864428D01*
X56344855Y-31020038D01*
X56497639Y-31124430D01*
X56679000Y-31161157D01*
X57579000Y-31161157D01*
X57748428Y-31129277D01*
X57904038Y-31029145D01*
X58008430Y-30876361D01*
X58045157Y-30695000D01*
X58045157Y-29009840D01*
X58392843Y-29009840D01*
X58392843Y-30695000D01*
X58424723Y-30864428D01*
X58524855Y-31020038D01*
X58677639Y-31124430D01*
X58724800Y-31133980D01*
X58724800Y-32590382D01*
X58537811Y-32512737D01*
X58450203Y-32512661D01*
X58417450Y-32479908D01*
X58227922Y-32353270D01*
X58045157Y-32316915D01*
X58045157Y-32043000D01*
X58013277Y-31873572D01*
X57913145Y-31717962D01*
X57760361Y-31613570D01*
X57579000Y-31576843D01*
X56679000Y-31576843D01*
X56509572Y-31608723D01*
X56353962Y-31708855D01*
X56249570Y-31861639D01*
X56212843Y-32043000D01*
X56212843Y-33743000D01*
X56244723Y-33912428D01*
X56344855Y-34068038D01*
X56497639Y-34172430D01*
X56679000Y-34209157D01*
X57579000Y-34209157D01*
X57748428Y-34177277D01*
X57904038Y-34077145D01*
X57969189Y-33981793D01*
X58205178Y-34079784D01*
X58191343Y-34148100D01*
X58191343Y-35048100D01*
X58223223Y-35217528D01*
X58323355Y-35373138D01*
X58476139Y-35477530D01*
X58657500Y-35514257D01*
X59457500Y-35514257D01*
X59626928Y-35482377D01*
X59782538Y-35382245D01*
X59886930Y-35229461D01*
X59922500Y-35053813D01*
X59922500Y-35174409D01*
X60019173Y-35407798D01*
X60197801Y-35586427D01*
X60431190Y-35683100D01*
X60671750Y-35683100D01*
X60830500Y-35524350D01*
X60830500Y-34725100D01*
X60810500Y-34725100D01*
X60810500Y-34471100D01*
X60830500Y-34471100D01*
X60830500Y-33671850D01*
X60671750Y-33513100D01*
X60431190Y-33513100D01*
X60197801Y-33609773D01*
X60019173Y-33788402D01*
X59922500Y-34021791D01*
X59922500Y-34141951D01*
X59891777Y-33978672D01*
X59833779Y-33888540D01*
X59848731Y-33866163D01*
X59893201Y-33642600D01*
X59893200Y-33642595D01*
X59893200Y-31135906D01*
X59928428Y-31129277D01*
X60084038Y-31029145D01*
X60188430Y-30876361D01*
X60225157Y-30695000D01*
X60225157Y-28995000D01*
X60193277Y-28825572D01*
X60107481Y-28692240D01*
X60977266Y-27822455D01*
X61103905Y-27632926D01*
X61148375Y-27409363D01*
X61148374Y-27409358D01*
X61148374Y-26701579D01*
X61231310Y-26618788D01*
X61239843Y-26598238D01*
X61239843Y-27647000D01*
X61239843Y-27647000D01*
G37*
X61239843Y-27647000D02*
X61271723Y-27816428D01*
X61336268Y-27916734D01*
X60520408Y-28732594D01*
X60393770Y-28922122D01*
X60349300Y-29145686D01*
X60349300Y-32282168D01*
X60393770Y-32505732D01*
X60503153Y-32669436D01*
X60520408Y-32695260D01*
X61338249Y-33513100D01*
X61243250Y-33513100D01*
X61084500Y-33671850D01*
X61084500Y-34471100D01*
X61104500Y-34471100D01*
X61104500Y-34725100D01*
X61084500Y-34725100D01*
X61084500Y-35524350D01*
X61243250Y-35683100D01*
X61483810Y-35683100D01*
X61717199Y-35586427D01*
X61844670Y-35458955D01*
X61844670Y-40091106D01*
X60990976Y-40944800D01*
X60563226Y-40944800D01*
X60589327Y-40918699D01*
X60686000Y-40685310D01*
X60686000Y-40544750D01*
X60527250Y-40386000D01*
X59403000Y-40386000D01*
X59403000Y-40406000D01*
X59149000Y-40406000D01*
X59149000Y-40386000D01*
X59129000Y-40386000D01*
X59129000Y-40132000D01*
X59149000Y-40132000D01*
X59149000Y-40112000D01*
X59403000Y-40112000D01*
X59403000Y-40132000D01*
X60403396Y-40132000D01*
X60511864Y-40177040D01*
X60825111Y-40177313D01*
X61114619Y-40057691D01*
X61336311Y-39836386D01*
X61456438Y-39547088D01*
X61456711Y-39233841D01*
X61337089Y-38944333D01*
X61115784Y-38722641D01*
X60826486Y-38602514D01*
X60744627Y-38602443D01*
X60718092Y-38575908D01*
X60636365Y-38521300D01*
X60528564Y-38449270D01*
X60427045Y-38429076D01*
X60385145Y-38363962D01*
X60232361Y-38259570D01*
X60051000Y-38222843D01*
X58501000Y-38222843D01*
X58331572Y-38254723D01*
X58290724Y-38281008D01*
X58194357Y-38184641D01*
X58194357Y-37434075D01*
X58149887Y-37210511D01*
X58123854Y-37171549D01*
X58177902Y-37182300D01*
X59166594Y-37182300D01*
X59173223Y-37217528D01*
X59273355Y-37373138D01*
X59426139Y-37477530D01*
X59607500Y-37514257D01*
X60407500Y-37514257D01*
X60576928Y-37482377D01*
X60732538Y-37382245D01*
X60836930Y-37229461D01*
X60873657Y-37048100D01*
X60873657Y-36148100D01*
X60841777Y-35978672D01*
X60741645Y-35823062D01*
X60588861Y-35718670D01*
X60407500Y-35681943D01*
X59607500Y-35681943D01*
X59438072Y-35713823D01*
X59282462Y-35813955D01*
X59178070Y-35966739D01*
X59168520Y-36013900D01*
X58419886Y-36013900D01*
X57895893Y-35489907D01*
X57706365Y-35363269D01*
X57482801Y-35318799D01*
X56749606Y-35318799D01*
X56007859Y-34577051D01*
X56007859Y-31857267D01*
X55963389Y-31633703D01*
X55836751Y-31444175D01*
X55305069Y-30912493D01*
X55214235Y-30851800D01*
X55125421Y-30792457D01*
X55145157Y-30695000D01*
X55145157Y-28995000D01*
X55113277Y-28825572D01*
X55013145Y-28669962D01*
X54860361Y-28565570D01*
X54679000Y-28528843D01*
X53779000Y-28528843D01*
X53609572Y-28560723D01*
X53453962Y-28660855D01*
X53349570Y-28813639D01*
X53312843Y-28995000D01*
X53312843Y-29107466D01*
X53025746Y-29107216D01*
X52736238Y-29226838D01*
X52514546Y-29448143D01*
X52394419Y-29737441D01*
X52394146Y-30050688D01*
X52513768Y-30340196D01*
X52735073Y-30561888D01*
X53024371Y-30682015D01*
X53312843Y-30682266D01*
X53312843Y-30695000D01*
X53330928Y-30791114D01*
X53240104Y-30851800D01*
X53149270Y-30912493D01*
X52650448Y-31411315D01*
X52523810Y-31600843D01*
X52479340Y-31824407D01*
X52479340Y-35063134D01*
X52523810Y-35286698D01*
X52590114Y-35385929D01*
X52650448Y-35476226D01*
X52823222Y-35649000D01*
X52563750Y-35649000D01*
X52405000Y-35807750D01*
X52405000Y-36957000D01*
X52425000Y-36957000D01*
X52425000Y-37211000D01*
X52405000Y-37211000D01*
X52405000Y-38360250D01*
X52563750Y-38519000D01*
X53513975Y-38519000D01*
X53513975Y-38811405D01*
X53558445Y-39034969D01*
X53637581Y-39153405D01*
X53685083Y-39224497D01*
X54228122Y-39767536D01*
X54417650Y-39894174D01*
X54641214Y-39938644D01*
X56697767Y-39938644D01*
X57011501Y-40252378D01*
X57011501Y-40897843D01*
X54614700Y-40897843D01*
X54445272Y-40929723D01*
X54289662Y-41029855D01*
X54211186Y-41144709D01*
X54153027Y-41004301D01*
X53974398Y-40825673D01*
X53741009Y-40729000D01*
X52600450Y-40729000D01*
X52441700Y-40887750D01*
X52441700Y-42037000D01*
X52461700Y-42037000D01*
X52461700Y-42291000D01*
X52441700Y-42291000D01*
X52441700Y-43440250D01*
X52600450Y-43599000D01*
X53741009Y-43599000D01*
X53974398Y-43502327D01*
X54153027Y-43323699D01*
X54211704Y-43182040D01*
X54280555Y-43289038D01*
X54433339Y-43393430D01*
X54614700Y-43430157D01*
X54895322Y-43430157D01*
X54806870Y-43562536D01*
X54762400Y-43786100D01*
X54762400Y-45523362D01*
X54649456Y-45410221D01*
X54294832Y-45262968D01*
X53910852Y-45262633D01*
X53555973Y-45409266D01*
X53284221Y-45680544D01*
X53136968Y-46035168D01*
X53136633Y-46419148D01*
X53283266Y-46774027D01*
X53554544Y-47045779D01*
X53909168Y-47193032D01*
X54293148Y-47193367D01*
X54648027Y-47046734D01*
X54762400Y-46932560D01*
X54762400Y-48094216D01*
X54196908Y-48659708D01*
X54070270Y-48849236D01*
X54031222Y-49045541D01*
X53893713Y-49137422D01*
X53695496Y-49434074D01*
X53625891Y-49784000D01*
X53695496Y-50133926D01*
X53784948Y-50267800D01*
X52641052Y-50267800D01*
X52730504Y-50133926D01*
X52800109Y-49784000D01*
X52730504Y-49434074D01*
X52532287Y-49137422D01*
X52235635Y-48939205D01*
X51885709Y-48869600D01*
X51746291Y-48869600D01*
X51396365Y-48939205D01*
X51332200Y-48982079D01*
X51332200Y-48033206D01*
X51633317Y-48158241D01*
X51997087Y-48158558D01*
X52333289Y-48019642D01*
X52590738Y-47762642D01*
X52730241Y-47426683D01*
X52730558Y-47062913D01*
X52591642Y-46726711D01*
X52334642Y-46469262D01*
X51998683Y-46329759D01*
X51634913Y-46329442D01*
X51332200Y-46454521D01*
X51332200Y-43599000D01*
X52028950Y-43599000D01*
X52187700Y-43440250D01*
X52187700Y-42291000D01*
X52167700Y-42291000D01*
X52167700Y-42037000D01*
X52187700Y-42037000D01*
X52187700Y-40887750D01*
X52028950Y-40729000D01*
X51332200Y-40729000D01*
X51332200Y-38519000D01*
X51992250Y-38519000D01*
X52151000Y-38360250D01*
X52151000Y-37211000D01*
X52131000Y-37211000D01*
X52131000Y-36957000D01*
X52151000Y-36957000D01*
X52151000Y-35807750D01*
X51992250Y-35649000D01*
X51332200Y-35649000D01*
X51332200Y-28032743D01*
X51832384Y-28240438D01*
X52431985Y-28240961D01*
X52986145Y-28011987D01*
X53336678Y-27662066D01*
X53365723Y-27816428D01*
X53465855Y-27972038D01*
X53618639Y-28076430D01*
X53800000Y-28113157D01*
X54700000Y-28113157D01*
X54869428Y-28081277D01*
X55025038Y-27981145D01*
X55129430Y-27828361D01*
X55166157Y-27647000D01*
X55166157Y-27381200D01*
X55314392Y-27381200D01*
X55361008Y-27427815D01*
X55361008Y-28081609D01*
X55405478Y-28305173D01*
X55496054Y-28440730D01*
X55532116Y-28494701D01*
X55889129Y-28851714D01*
X56078658Y-28978353D01*
X56212843Y-29005044D01*
X56212843Y-30695000D01*
X56244723Y-30864428D01*
X56344855Y-31020038D01*
X56497639Y-31124430D01*
X56679000Y-31161157D01*
X57579000Y-31161157D01*
X57748428Y-31129277D01*
X57904038Y-31029145D01*
X58008430Y-30876361D01*
X58045157Y-30695000D01*
X58045157Y-29009840D01*
X58392843Y-29009840D01*
X58392843Y-30695000D01*
X58424723Y-30864428D01*
X58524855Y-31020038D01*
X58677639Y-31124430D01*
X58724800Y-31133980D01*
X58724800Y-32590382D01*
X58537811Y-32512737D01*
X58450203Y-32512661D01*
X58417450Y-32479908D01*
X58227922Y-32353270D01*
X58045157Y-32316915D01*
X58045157Y-32043000D01*
X58013277Y-31873572D01*
X57913145Y-31717962D01*
X57760361Y-31613570D01*
X57579000Y-31576843D01*
X56679000Y-31576843D01*
X56509572Y-31608723D01*
X56353962Y-31708855D01*
X56249570Y-31861639D01*
X56212843Y-32043000D01*
X56212843Y-33743000D01*
X56244723Y-33912428D01*
X56344855Y-34068038D01*
X56497639Y-34172430D01*
X56679000Y-34209157D01*
X57579000Y-34209157D01*
X57748428Y-34177277D01*
X57904038Y-34077145D01*
X57969189Y-33981793D01*
X58205178Y-34079784D01*
X58191343Y-34148100D01*
X58191343Y-35048100D01*
X58223223Y-35217528D01*
X58323355Y-35373138D01*
X58476139Y-35477530D01*
X58657500Y-35514257D01*
X59457500Y-35514257D01*
X59626928Y-35482377D01*
X59782538Y-35382245D01*
X59886930Y-35229461D01*
X59922500Y-35053813D01*
X59922500Y-35174409D01*
X60019173Y-35407798D01*
X60197801Y-35586427D01*
X60431190Y-35683100D01*
X60671750Y-35683100D01*
X60830500Y-35524350D01*
X60830500Y-34725100D01*
X60810500Y-34725100D01*
X60810500Y-34471100D01*
X60830500Y-34471100D01*
X60830500Y-33671850D01*
X60671750Y-33513100D01*
X60431190Y-33513100D01*
X60197801Y-33609773D01*
X60019173Y-33788402D01*
X59922500Y-34021791D01*
X59922500Y-34141951D01*
X59891777Y-33978672D01*
X59833779Y-33888540D01*
X59848731Y-33866163D01*
X59893201Y-33642600D01*
X59893200Y-33642595D01*
X59893200Y-31135906D01*
X59928428Y-31129277D01*
X60084038Y-31029145D01*
X60188430Y-30876361D01*
X60225157Y-30695000D01*
X60225157Y-28995000D01*
X60193277Y-28825572D01*
X60107481Y-28692240D01*
X60977266Y-27822455D01*
X61103905Y-27632926D01*
X61148375Y-27409363D01*
X61148374Y-27409358D01*
X61148374Y-26701579D01*
X61231310Y-26618788D01*
X61239843Y-26598238D01*
X61239843Y-27647000D01*
G36*
X67455800Y-46355002D02*
X67614548Y-46355002D01*
X67455800Y-46513750D01*
X67455800Y-46862309D01*
X67552473Y-47095698D01*
X67572058Y-47115284D01*
X66916304Y-47771038D01*
X65599395Y-47771038D01*
X65723711Y-47687973D01*
X66095161Y-47316523D01*
X66209869Y-47144850D01*
X66548000Y-47212109D01*
X66897926Y-47142504D01*
X67194578Y-46944287D01*
X67392795Y-46647635D01*
X67455800Y-46330889D01*
X67455800Y-46355002D01*
X67455800Y-46355002D01*
G37*
X67455800Y-46355002D02*
X67614548Y-46355002D01*
X67455800Y-46513750D01*
X67455800Y-46862309D01*
X67552473Y-47095698D01*
X67572058Y-47115284D01*
X66916304Y-47771038D01*
X65599395Y-47771038D01*
X65723711Y-47687973D01*
X66095161Y-47316523D01*
X66209869Y-47144850D01*
X66548000Y-47212109D01*
X66897926Y-47142504D01*
X67194578Y-46944287D01*
X67392795Y-46647635D01*
X67455800Y-46330889D01*
X67455800Y-46355002D01*
G36*
X68745100Y-38869620D02*
X68765100Y-38869620D01*
X68765100Y-39123620D01*
X68745100Y-39123620D01*
X68745100Y-40186695D01*
X68690320Y-40266869D01*
X68653593Y-40448230D01*
X68653593Y-43447970D01*
X68685473Y-43617398D01*
X68785605Y-43773008D01*
X68938389Y-43877400D01*
X69119750Y-43914127D01*
X70866240Y-43914127D01*
X70858468Y-43921899D01*
X69750706Y-43921899D01*
X69527142Y-43966369D01*
X69358046Y-44079355D01*
X69337614Y-44093007D01*
X69001908Y-44428713D01*
X68875270Y-44618241D01*
X68830800Y-44841805D01*
X68830800Y-45087950D01*
X68675000Y-45243750D01*
X68675000Y-46101000D01*
X68695000Y-46101000D01*
X68695000Y-46355000D01*
X68675000Y-46355000D01*
X68675000Y-46375000D01*
X68421000Y-46375000D01*
X68421000Y-46355000D01*
X68401000Y-46355000D01*
X68401000Y-46101000D01*
X68421000Y-46101000D01*
X68421000Y-45243750D01*
X68262250Y-45085000D01*
X67964490Y-45085000D01*
X67731101Y-45181673D01*
X67552473Y-45360302D01*
X67455800Y-45593691D01*
X67455800Y-45942250D01*
X67614548Y-46100998D01*
X67455800Y-46100998D01*
X67455800Y-46125111D01*
X67392795Y-45808365D01*
X67194578Y-45511713D01*
X66897926Y-45313496D01*
X66548000Y-45243891D01*
X66266269Y-45299931D01*
X66266269Y-44918315D01*
X67828082Y-43356502D01*
X67850000Y-43323699D01*
X67954720Y-43166974D01*
X67999190Y-42943410D01*
X67999190Y-40382190D01*
X68332350Y-40382190D01*
X68491100Y-40223440D01*
X68491100Y-39123620D01*
X68471100Y-39123620D01*
X68471100Y-38869620D01*
X68491100Y-38869620D01*
X68491100Y-38849620D01*
X68745100Y-38849620D01*
X68745100Y-38869620D01*
X68745100Y-38869620D01*
G37*
X68745100Y-38869620D02*
X68765100Y-38869620D01*
X68765100Y-39123620D01*
X68745100Y-39123620D01*
X68745100Y-40186695D01*
X68690320Y-40266869D01*
X68653593Y-40448230D01*
X68653593Y-43447970D01*
X68685473Y-43617398D01*
X68785605Y-43773008D01*
X68938389Y-43877400D01*
X69119750Y-43914127D01*
X70866240Y-43914127D01*
X70858468Y-43921899D01*
X69750706Y-43921899D01*
X69527142Y-43966369D01*
X69358046Y-44079355D01*
X69337614Y-44093007D01*
X69001908Y-44428713D01*
X68875270Y-44618241D01*
X68830800Y-44841805D01*
X68830800Y-45087950D01*
X68675000Y-45243750D01*
X68675000Y-46101000D01*
X68695000Y-46101000D01*
X68695000Y-46355000D01*
X68675000Y-46355000D01*
X68675000Y-46375000D01*
X68421000Y-46375000D01*
X68421000Y-46355000D01*
X68401000Y-46355000D01*
X68401000Y-46101000D01*
X68421000Y-46101000D01*
X68421000Y-45243750D01*
X68262250Y-45085000D01*
X67964490Y-45085000D01*
X67731101Y-45181673D01*
X67552473Y-45360302D01*
X67455800Y-45593691D01*
X67455800Y-45942250D01*
X67614548Y-46100998D01*
X67455800Y-46100998D01*
X67455800Y-46125111D01*
X67392795Y-45808365D01*
X67194578Y-45511713D01*
X66897926Y-45313496D01*
X66548000Y-45243891D01*
X66266269Y-45299931D01*
X66266269Y-44918315D01*
X67828082Y-43356502D01*
X67850000Y-43323699D01*
X67954720Y-43166974D01*
X67999190Y-42943410D01*
X67999190Y-40382190D01*
X68332350Y-40382190D01*
X68491100Y-40223440D01*
X68491100Y-39123620D01*
X68471100Y-39123620D01*
X68471100Y-38869620D01*
X68491100Y-38869620D01*
X68491100Y-38849620D01*
X68745100Y-38849620D01*
X68745100Y-38869620D01*
G36*
X75667800Y-41612400D02*
X75469750Y-41612400D01*
X75311000Y-41771150D01*
X75311000Y-42570400D01*
X75331000Y-42570400D01*
X75331000Y-42824400D01*
X75311000Y-42824400D01*
X75311000Y-42844400D01*
X75057000Y-42844400D01*
X75057000Y-42824400D01*
X75037000Y-42824400D01*
X75037000Y-42570400D01*
X75057000Y-42570400D01*
X75057000Y-41771150D01*
X74898250Y-41612400D01*
X74207690Y-41612400D01*
X73974301Y-41709073D01*
X73827236Y-41856139D01*
X73827236Y-39991317D01*
X73899886Y-40167144D01*
X74121191Y-40388836D01*
X74410489Y-40508963D01*
X74723736Y-40509236D01*
X75013244Y-40389614D01*
X75234936Y-40168309D01*
X75355063Y-39879011D01*
X75355166Y-39760518D01*
X75566127Y-39549557D01*
X75667800Y-39549557D01*
X75667800Y-41612400D01*
X75667800Y-41612400D01*
G37*
X75667800Y-41612400D02*
X75469750Y-41612400D01*
X75311000Y-41771150D01*
X75311000Y-42570400D01*
X75331000Y-42570400D01*
X75331000Y-42824400D01*
X75311000Y-42824400D01*
X75311000Y-42844400D01*
X75057000Y-42844400D01*
X75057000Y-42824400D01*
X75037000Y-42824400D01*
X75037000Y-42570400D01*
X75057000Y-42570400D01*
X75057000Y-41771150D01*
X74898250Y-41612400D01*
X74207690Y-41612400D01*
X73974301Y-41709073D01*
X73827236Y-41856139D01*
X73827236Y-39991317D01*
X73899886Y-40167144D01*
X74121191Y-40388836D01*
X74410489Y-40508963D01*
X74723736Y-40509236D01*
X75013244Y-40389614D01*
X75234936Y-40168309D01*
X75355063Y-39879011D01*
X75355166Y-39760518D01*
X75566127Y-39549557D01*
X75667800Y-39549557D01*
X75667800Y-41612400D01*
G36*
X74334000Y-34190157D02*
X75183779Y-34190157D01*
X75184000Y-34190201D01*
X75184221Y-34190157D01*
X75667800Y-34190157D01*
X75667800Y-36253000D01*
X75469750Y-36253000D01*
X75311000Y-36411750D01*
X75311000Y-37211000D01*
X75331000Y-37211000D01*
X75331000Y-37465000D01*
X75311000Y-37465000D01*
X75311000Y-37485000D01*
X75057000Y-37485000D01*
X75057000Y-37465000D01*
X75037000Y-37465000D01*
X75037000Y-37211000D01*
X75057000Y-37211000D01*
X75057000Y-36411750D01*
X74898250Y-36253000D01*
X74207690Y-36253000D01*
X73974301Y-36349673D01*
X73827236Y-36496739D01*
X73827236Y-35223268D01*
X74019195Y-35031309D01*
X74105401Y-34902292D01*
X74145833Y-34841781D01*
X74190303Y-34618217D01*
X74190303Y-34161057D01*
X74334000Y-34190157D01*
X74334000Y-34190157D01*
G37*
X74334000Y-34190157D02*
X75183779Y-34190157D01*
X75184000Y-34190201D01*
X75184221Y-34190157D01*
X75667800Y-34190157D01*
X75667800Y-36253000D01*
X75469750Y-36253000D01*
X75311000Y-36411750D01*
X75311000Y-37211000D01*
X75331000Y-37211000D01*
X75331000Y-37465000D01*
X75311000Y-37465000D01*
X75311000Y-37485000D01*
X75057000Y-37485000D01*
X75057000Y-37465000D01*
X75037000Y-37465000D01*
X75037000Y-37211000D01*
X75057000Y-37211000D01*
X75057000Y-36411750D01*
X74898250Y-36253000D01*
X74207690Y-36253000D01*
X73974301Y-36349673D01*
X73827236Y-36496739D01*
X73827236Y-35223268D01*
X74019195Y-35031309D01*
X74105401Y-34902292D01*
X74145833Y-34841781D01*
X74190303Y-34618217D01*
X74190303Y-34161057D01*
X74334000Y-34190157D01*
G36*
X69956283Y-31685467D02*
X69850000Y-31791750D01*
X69850000Y-32766000D01*
X69870000Y-32766000D01*
X69870000Y-33020000D01*
X69850000Y-33020000D01*
X69850000Y-33994250D01*
X70008750Y-34153000D01*
X70053200Y-34153000D01*
X70053200Y-34971560D01*
X68370894Y-36653865D01*
X67489014Y-36653865D01*
X67265450Y-36698335D01*
X67170631Y-36761691D01*
X67075922Y-36824973D01*
X66734071Y-37166824D01*
X66734071Y-35924028D01*
X66751363Y-35906736D01*
X67735465Y-35906736D01*
X67959029Y-35862266D01*
X68148557Y-35735628D01*
X68958712Y-34925472D01*
X68958715Y-34925470D01*
X69085353Y-34735942D01*
X69129823Y-34512378D01*
X69129823Y-34153000D01*
X69437250Y-34153000D01*
X69596000Y-33994250D01*
X69596000Y-33020000D01*
X69576000Y-33020000D01*
X69576000Y-32766000D01*
X69596000Y-32766000D01*
X69596000Y-31791750D01*
X69437250Y-31633000D01*
X69129823Y-31633000D01*
X69129823Y-31161157D01*
X69431973Y-31161157D01*
X69956283Y-31685467D01*
X69956283Y-31685467D01*
G37*
X69956283Y-31685467D02*
X69850000Y-31791750D01*
X69850000Y-32766000D01*
X69870000Y-32766000D01*
X69870000Y-33020000D01*
X69850000Y-33020000D01*
X69850000Y-33994250D01*
X70008750Y-34153000D01*
X70053200Y-34153000D01*
X70053200Y-34971560D01*
X68370894Y-36653865D01*
X67489014Y-36653865D01*
X67265450Y-36698335D01*
X67170631Y-36761691D01*
X67075922Y-36824973D01*
X66734071Y-37166824D01*
X66734071Y-35924028D01*
X66751363Y-35906736D01*
X67735465Y-35906736D01*
X67959029Y-35862266D01*
X68148557Y-35735628D01*
X68958712Y-34925472D01*
X68958715Y-34925470D01*
X69085353Y-34735942D01*
X69129823Y-34512378D01*
X69129823Y-34153000D01*
X69437250Y-34153000D01*
X69596000Y-33994250D01*
X69596000Y-33020000D01*
X69576000Y-33020000D01*
X69576000Y-32766000D01*
X69596000Y-32766000D01*
X69596000Y-31791750D01*
X69437250Y-31633000D01*
X69129823Y-31633000D01*
X69129823Y-31161157D01*
X69431973Y-31161157D01*
X69956283Y-31685467D01*
G36*
X66163700Y-26587450D02*
X66322450Y-26746200D01*
X67121700Y-26746200D01*
X67121700Y-26726200D01*
X67375700Y-26726200D01*
X67375700Y-26746200D01*
X68174950Y-26746200D01*
X68333700Y-26587450D01*
X68333700Y-25932200D01*
X68428840Y-25932200D01*
X68425843Y-25947000D01*
X68425843Y-27647000D01*
X68457723Y-27816428D01*
X68513581Y-27903235D01*
X68300083Y-28116733D01*
X68246359Y-28152630D01*
X68174107Y-28200907D01*
X68097907Y-28277107D01*
X67971269Y-28466635D01*
X67950366Y-28571723D01*
X67941361Y-28565570D01*
X67760000Y-28528843D01*
X66860000Y-28528843D01*
X66690572Y-28560723D01*
X66534962Y-28660855D01*
X66430570Y-28813639D01*
X66393843Y-28995000D01*
X66393843Y-30695000D01*
X66425723Y-30864428D01*
X66525855Y-31020038D01*
X66678639Y-31124430D01*
X66764140Y-31141745D01*
X66770270Y-31172564D01*
X66879528Y-31336081D01*
X66896908Y-31362092D01*
X67175283Y-31640467D01*
X67024000Y-31791750D01*
X67024000Y-32766000D01*
X67044000Y-32766000D01*
X67044000Y-33020000D01*
X67024000Y-33020000D01*
X67024000Y-33040000D01*
X66770000Y-33040000D01*
X66770000Y-33020000D01*
X66750000Y-33020000D01*
X66750000Y-32766000D01*
X66770000Y-32766000D01*
X66770000Y-31791750D01*
X66611250Y-31633000D01*
X66270691Y-31633000D01*
X66037302Y-31729673D01*
X65858673Y-31908301D01*
X65799996Y-32049960D01*
X65731145Y-31942962D01*
X65578361Y-31838570D01*
X65481200Y-31818894D01*
X65481200Y-31436000D01*
X65436730Y-31212436D01*
X65310092Y-31022908D01*
X65238331Y-30951147D01*
X65289430Y-30876361D01*
X65326157Y-30695000D01*
X65326157Y-28995000D01*
X65294277Y-28825572D01*
X65194145Y-28669962D01*
X65041361Y-28565570D01*
X64860000Y-28528843D01*
X63960000Y-28528843D01*
X63909794Y-28538290D01*
X64258727Y-28189357D01*
X64798700Y-28189357D01*
X64968128Y-28157477D01*
X65123738Y-28057345D01*
X65228130Y-27904561D01*
X65264857Y-27723200D01*
X65264857Y-27158950D01*
X66163700Y-27158950D01*
X66163700Y-27849510D01*
X66260373Y-28082899D01*
X66439002Y-28261527D01*
X66672391Y-28358200D01*
X66962950Y-28358200D01*
X67121700Y-28199450D01*
X67121700Y-27000200D01*
X67375700Y-27000200D01*
X67375700Y-28199450D01*
X67534450Y-28358200D01*
X67825009Y-28358200D01*
X68058398Y-28261527D01*
X68237027Y-28082899D01*
X68333700Y-27849510D01*
X68333700Y-27158950D01*
X68174950Y-27000200D01*
X67375700Y-27000200D01*
X67121700Y-27000200D01*
X66322450Y-27000200D01*
X66163700Y-27158950D01*
X65264857Y-27158950D01*
X65264857Y-26023200D01*
X65247734Y-25932200D01*
X66163700Y-25932200D01*
X66163700Y-26587450D01*
X66163700Y-26587450D01*
G37*
X66163700Y-26587450D02*
X66322450Y-26746200D01*
X67121700Y-26746200D01*
X67121700Y-26726200D01*
X67375700Y-26726200D01*
X67375700Y-26746200D01*
X68174950Y-26746200D01*
X68333700Y-26587450D01*
X68333700Y-25932200D01*
X68428840Y-25932200D01*
X68425843Y-25947000D01*
X68425843Y-27647000D01*
X68457723Y-27816428D01*
X68513581Y-27903235D01*
X68300083Y-28116733D01*
X68246359Y-28152630D01*
X68174107Y-28200907D01*
X68097907Y-28277107D01*
X67971269Y-28466635D01*
X67950366Y-28571723D01*
X67941361Y-28565570D01*
X67760000Y-28528843D01*
X66860000Y-28528843D01*
X66690572Y-28560723D01*
X66534962Y-28660855D01*
X66430570Y-28813639D01*
X66393843Y-28995000D01*
X66393843Y-30695000D01*
X66425723Y-30864428D01*
X66525855Y-31020038D01*
X66678639Y-31124430D01*
X66764140Y-31141745D01*
X66770270Y-31172564D01*
X66879528Y-31336081D01*
X66896908Y-31362092D01*
X67175283Y-31640467D01*
X67024000Y-31791750D01*
X67024000Y-32766000D01*
X67044000Y-32766000D01*
X67044000Y-33020000D01*
X67024000Y-33020000D01*
X67024000Y-33040000D01*
X66770000Y-33040000D01*
X66770000Y-33020000D01*
X66750000Y-33020000D01*
X66750000Y-32766000D01*
X66770000Y-32766000D01*
X66770000Y-31791750D01*
X66611250Y-31633000D01*
X66270691Y-31633000D01*
X66037302Y-31729673D01*
X65858673Y-31908301D01*
X65799996Y-32049960D01*
X65731145Y-31942962D01*
X65578361Y-31838570D01*
X65481200Y-31818894D01*
X65481200Y-31436000D01*
X65436730Y-31212436D01*
X65310092Y-31022908D01*
X65238331Y-30951147D01*
X65289430Y-30876361D01*
X65326157Y-30695000D01*
X65326157Y-28995000D01*
X65294277Y-28825572D01*
X65194145Y-28669962D01*
X65041361Y-28565570D01*
X64860000Y-28528843D01*
X63960000Y-28528843D01*
X63909794Y-28538290D01*
X64258727Y-28189357D01*
X64798700Y-28189357D01*
X64968128Y-28157477D01*
X65123738Y-28057345D01*
X65228130Y-27904561D01*
X65264857Y-27723200D01*
X65264857Y-27158950D01*
X66163700Y-27158950D01*
X66163700Y-27849510D01*
X66260373Y-28082899D01*
X66439002Y-28261527D01*
X66672391Y-28358200D01*
X66962950Y-28358200D01*
X67121700Y-28199450D01*
X67121700Y-27000200D01*
X67375700Y-27000200D01*
X67375700Y-28199450D01*
X67534450Y-28358200D01*
X67825009Y-28358200D01*
X68058398Y-28261527D01*
X68237027Y-28082899D01*
X68333700Y-27849510D01*
X68333700Y-27158950D01*
X68174950Y-27000200D01*
X67375700Y-27000200D01*
X67121700Y-27000200D01*
X66322450Y-27000200D01*
X66163700Y-27158950D01*
X65264857Y-27158950D01*
X65264857Y-26023200D01*
X65247734Y-25932200D01*
X66163700Y-25932200D01*
X66163700Y-26587450D01*
M02*
