G04 #@! TF.FileFunction,Copper,L1,Top,Signal*
%FSLAX46Y46*%
G04 Gerber Fmt 4.6, Leading zero omitted, Abs format (unit mm)*
G04 Created by KiCad (PCBNEW 4.0.5+dfsg1-4) date Thu Oct 12 19:57:19 2017*
%MOMM*%
%LPD*%
G01*
G04 APERTURE LIST*
%ADD10C,0.100000*%
%ADD11R,1.016000X1.016000*%
%ADD12C,1.016000*%
%ADD13R,0.914400X1.016000*%
%ADD14O,0.914400X1.016000*%
%ADD15C,0.914400*%
%ADD16O,1.016000X0.914400*%
%ADD17R,1.016000X0.914400*%
%ADD18R,2.500000X1.100000*%
%ADD19R,1.100000X2.500000*%
G04 APERTURE END LIST*
D10*
D11*
X56642000Y-46228000D03*
D12*
X54102000Y-46228000D03*
D11*
X70358000Y-46228000D03*
D12*
X72898000Y-46228000D03*
D11*
X62230000Y-46228000D03*
D12*
X64770000Y-46228000D03*
D13*
X68548000Y-46228000D03*
D14*
X66548000Y-46228000D03*
D13*
X58420000Y-46228000D03*
D14*
X60420000Y-46228000D03*
D15*
X74930000Y-26416000D03*
X74930000Y-28416000D03*
X66802000Y-49784000D03*
X75184000Y-44704000D03*
X60198000Y-49784000D03*
X63500000Y-49784000D03*
X51816000Y-47244000D03*
X75184000Y-47244000D03*
D16*
X51816000Y-49784000D03*
X54610000Y-49784000D03*
X57404000Y-49784000D03*
D17*
X69596000Y-49784000D03*
X72390000Y-49784000D03*
X75184000Y-49784000D03*
D18*
X55540000Y-26148000D03*
X55540000Y-28148000D03*
X55540000Y-30148000D03*
X55540000Y-32148000D03*
X55540000Y-34148000D03*
X55540000Y-36148000D03*
X55540000Y-38148000D03*
X55540000Y-40148000D03*
X70940000Y-40148000D03*
X70940000Y-38148000D03*
X70940000Y-36148000D03*
X70940000Y-34148000D03*
X70940000Y-32148000D03*
X70940000Y-30148000D03*
X70940000Y-28148000D03*
X70940000Y-26148000D03*
D19*
X58230000Y-41848000D03*
X60230000Y-41848000D03*
X62230000Y-41848000D03*
X64230000Y-41848000D03*
X66230000Y-41848000D03*
X68230000Y-41848000D03*
M02*
