G04 #@! TF.FileFunction,Legend,Top*
%FSLAX46Y46*%
G04 Gerber Fmt 4.6, Leading zero omitted, Abs format (unit mm)*
G04 Created by KiCad (PCBNEW 4.0.5+dfsg1-4) date Mon Oct 16 20:34:33 2017*
%MOMM*%
%LPD*%
G01*
G04 APERTURE LIST*
%ADD10C,0.100000*%
%ADD11C,0.254000*%
%ADD12C,0.150000*%
%ADD13C,0.152400*%
%ADD14C,0.127000*%
%ADD15C,0.082550*%
G04 APERTURE END LIST*
D10*
D11*
X51756129Y-34368618D02*
X51756129Y-34029952D01*
X52288319Y-33884809D02*
X52288319Y-34368618D01*
X51272319Y-34368618D01*
X51272319Y-33884809D01*
X52239938Y-33013952D02*
X52288319Y-33110714D01*
X52288319Y-33304237D01*
X52239938Y-33400999D01*
X52191557Y-33449380D01*
X52094795Y-33497761D01*
X51804510Y-33497761D01*
X51707748Y-33449380D01*
X51659367Y-33400999D01*
X51610986Y-33304237D01*
X51610986Y-33110714D01*
X51659367Y-33013952D01*
X52288319Y-32433380D02*
X52239938Y-32530142D01*
X52191557Y-32578523D01*
X52094795Y-32626904D01*
X51804510Y-32626904D01*
X51707748Y-32578523D01*
X51659367Y-32530142D01*
X51610986Y-32433380D01*
X51610986Y-32288238D01*
X51659367Y-32191476D01*
X51707748Y-32143095D01*
X51804510Y-32094714D01*
X52094795Y-32094714D01*
X52191557Y-32143095D01*
X52239938Y-32191476D01*
X52288319Y-32288238D01*
X52288319Y-32433380D01*
X51901271Y-31659285D02*
X51901271Y-30885190D01*
X51272319Y-30546523D02*
X51272319Y-29965952D01*
X52288319Y-30256237D02*
X51272319Y-30256237D01*
X52239938Y-29240238D02*
X52288319Y-29337000D01*
X52288319Y-29530523D01*
X52239938Y-29627285D01*
X52143176Y-29675666D01*
X51756129Y-29675666D01*
X51659367Y-29627285D01*
X51610986Y-29530523D01*
X51610986Y-29337000D01*
X51659367Y-29240238D01*
X51756129Y-29191857D01*
X51852890Y-29191857D01*
X51949652Y-29675666D01*
X52239938Y-28321000D02*
X52288319Y-28417762D01*
X52288319Y-28611285D01*
X52239938Y-28708047D01*
X52191557Y-28756428D01*
X52094795Y-28804809D01*
X51804510Y-28804809D01*
X51707748Y-28756428D01*
X51659367Y-28708047D01*
X51610986Y-28611285D01*
X51610986Y-28417762D01*
X51659367Y-28321000D01*
D12*
X69596000Y-47498000D02*
X69596000Y-45720000D01*
X73660000Y-47498000D02*
X69596000Y-47498000D01*
X73660000Y-45720000D02*
X73660000Y-47498000D01*
X61468000Y-47498000D02*
X61468000Y-45720000D01*
X65532000Y-47498000D02*
X65532000Y-45720000D01*
X61468000Y-47498000D02*
X65532000Y-47498000D01*
X61214000Y-47498000D02*
X61214000Y-45720000D01*
X57658000Y-47498000D02*
X61214000Y-47498000D01*
X57658000Y-45720000D02*
X57658000Y-47498000D01*
X57404000Y-45720000D02*
X57404000Y-47498000D01*
X53340000Y-47498000D02*
X57404000Y-47498000D01*
X53340000Y-47498000D02*
X53340000Y-45720000D01*
X73930000Y-30369000D02*
X75930000Y-30369000D01*
X75930000Y-30369000D02*
X75930000Y-32369000D01*
X75930000Y-32369000D02*
X73930000Y-32369000D01*
X73930000Y-32369000D02*
X73930000Y-30369000D01*
X73430000Y-29369000D02*
X73430000Y-27869000D01*
X73430000Y-27869000D02*
X74930000Y-27869000D01*
X65754000Y-47498000D02*
X65754000Y-45720000D01*
X69310000Y-47498000D02*
X69310000Y-45720000D01*
X65754000Y-47498000D02*
X69310000Y-47498000D01*
D13*
X55224000Y-41007000D02*
X55224000Y-41769000D01*
X55224000Y-41769000D02*
X71226000Y-41769000D01*
X71226000Y-41769000D02*
X71226000Y-41007000D01*
D14*
X59475914Y-45876028D02*
X59500105Y-45803457D01*
X59524295Y-45779266D01*
X59572676Y-45755076D01*
X59645248Y-45755076D01*
X59693629Y-45779266D01*
X59717819Y-45803457D01*
X59742010Y-45851838D01*
X59742010Y-46045362D01*
X59234010Y-46045362D01*
X59234010Y-45876028D01*
X59258200Y-45827647D01*
X59282390Y-45803457D01*
X59330771Y-45779266D01*
X59379152Y-45779266D01*
X59427533Y-45803457D01*
X59451724Y-45827647D01*
X59475914Y-45876028D01*
X59475914Y-46045362D01*
X59596867Y-45561552D02*
X59596867Y-45319647D01*
X59742010Y-45609933D02*
X59234010Y-45440600D01*
X59742010Y-45271266D01*
X59234010Y-45174504D02*
X59234010Y-44884218D01*
X59742010Y-45029361D02*
X59234010Y-45029361D01*
X59548486Y-44714885D02*
X59548486Y-44327837D01*
X59742010Y-44521361D02*
X59354962Y-44521361D01*
X71253047Y-46457810D02*
X71253047Y-45949810D01*
X71374000Y-45949810D01*
X71446571Y-45974000D01*
X71494952Y-46022381D01*
X71519143Y-46070762D01*
X71543333Y-46167524D01*
X71543333Y-46240095D01*
X71519143Y-46336857D01*
X71494952Y-46385238D01*
X71446571Y-46433619D01*
X71374000Y-46457810D01*
X71253047Y-46457810D01*
X71736857Y-45998190D02*
X71761047Y-45974000D01*
X71809428Y-45949810D01*
X71930381Y-45949810D01*
X71978762Y-45974000D01*
X72002952Y-45998190D01*
X72027143Y-46046571D01*
X72027143Y-46094952D01*
X72002952Y-46167524D01*
X71712666Y-46457810D01*
X72027143Y-46457810D01*
D15*
X70923453Y-47298429D02*
X70907729Y-47314152D01*
X70860558Y-47329876D01*
X70829110Y-47329876D01*
X70781938Y-47314152D01*
X70750491Y-47282705D01*
X70734767Y-47251257D01*
X70719043Y-47188362D01*
X70719043Y-47141190D01*
X70734767Y-47078295D01*
X70750491Y-47046848D01*
X70781938Y-47015400D01*
X70829110Y-46999676D01*
X70860558Y-46999676D01*
X70907729Y-47015400D01*
X70923453Y-47031124D01*
X71064967Y-47329876D02*
X71064967Y-46999676D01*
X71064967Y-47156914D02*
X71253653Y-47156914D01*
X71253653Y-47329876D02*
X71253653Y-46999676D01*
X71599577Y-47329876D02*
X71489510Y-47172638D01*
X71410891Y-47329876D02*
X71410891Y-46999676D01*
X71536682Y-46999676D01*
X71568129Y-47015400D01*
X71583853Y-47031124D01*
X71599577Y-47062571D01*
X71599577Y-47109743D01*
X71583853Y-47141190D01*
X71568129Y-47156914D01*
X71536682Y-47172638D01*
X71410891Y-47172638D01*
X71914053Y-47015400D02*
X71882605Y-46999676D01*
X71835434Y-46999676D01*
X71788262Y-47015400D01*
X71756815Y-47046848D01*
X71741091Y-47078295D01*
X71725367Y-47141190D01*
X71725367Y-47188362D01*
X71741091Y-47251257D01*
X71756815Y-47282705D01*
X71788262Y-47314152D01*
X71835434Y-47329876D01*
X71866882Y-47329876D01*
X71914053Y-47314152D01*
X71929777Y-47298429D01*
X71929777Y-47188362D01*
X71866882Y-47188362D01*
X71992672Y-47361324D02*
X72244253Y-47361324D01*
X72511558Y-47329876D02*
X72401491Y-47172638D01*
X72322872Y-47329876D02*
X72322872Y-46999676D01*
X72448663Y-46999676D01*
X72480110Y-47015400D01*
X72495834Y-47031124D01*
X72511558Y-47062571D01*
X72511558Y-47109743D01*
X72495834Y-47141190D01*
X72480110Y-47156914D01*
X72448663Y-47172638D01*
X72322872Y-47172638D01*
D14*
X70212252Y-45441810D02*
X70212252Y-44933810D01*
X70502538Y-45441810D02*
X70284824Y-45151524D01*
X70502538Y-44933810D02*
X70212252Y-45224095D01*
X63125047Y-46457810D02*
X63125047Y-45949810D01*
X63246000Y-45949810D01*
X63318571Y-45974000D01*
X63366952Y-46022381D01*
X63391143Y-46070762D01*
X63415333Y-46167524D01*
X63415333Y-46240095D01*
X63391143Y-46336857D01*
X63366952Y-46385238D01*
X63318571Y-46433619D01*
X63246000Y-46457810D01*
X63125047Y-46457810D01*
X63584666Y-45949810D02*
X63899143Y-45949810D01*
X63729809Y-46143333D01*
X63802381Y-46143333D01*
X63850762Y-46167524D01*
X63874952Y-46191714D01*
X63899143Y-46240095D01*
X63899143Y-46361048D01*
X63874952Y-46409429D01*
X63850762Y-46433619D01*
X63802381Y-46457810D01*
X63657238Y-46457810D01*
X63608857Y-46433619D01*
X63584666Y-46409429D01*
D15*
X62461382Y-47326852D02*
X62508554Y-47342576D01*
X62587173Y-47342576D01*
X62618620Y-47326852D01*
X62634344Y-47311129D01*
X62650068Y-47279681D01*
X62650068Y-47248233D01*
X62634344Y-47216786D01*
X62618620Y-47201062D01*
X62587173Y-47185338D01*
X62524277Y-47169614D01*
X62492830Y-47153890D01*
X62477106Y-47138167D01*
X62461382Y-47106719D01*
X62461382Y-47075271D01*
X62477106Y-47043824D01*
X62492830Y-47028100D01*
X62524277Y-47012376D01*
X62602897Y-47012376D01*
X62650068Y-47028100D01*
X62744411Y-47012376D02*
X62933096Y-47012376D01*
X62838753Y-47342576D02*
X62838753Y-47012376D01*
X63043163Y-47342576D02*
X63043163Y-47012376D01*
X63121782Y-47012376D01*
X63168954Y-47028100D01*
X63200401Y-47059548D01*
X63216125Y-47090995D01*
X63231849Y-47153890D01*
X63231849Y-47201062D01*
X63216125Y-47263957D01*
X63200401Y-47295405D01*
X63168954Y-47326852D01*
X63121782Y-47342576D01*
X63043163Y-47342576D01*
X63483430Y-47169614D02*
X63530601Y-47185338D01*
X63546325Y-47201062D01*
X63562049Y-47232510D01*
X63562049Y-47279681D01*
X63546325Y-47311129D01*
X63530601Y-47326852D01*
X63499154Y-47342576D01*
X63373363Y-47342576D01*
X63373363Y-47012376D01*
X63483430Y-47012376D01*
X63514877Y-47028100D01*
X63530601Y-47043824D01*
X63546325Y-47075271D01*
X63546325Y-47106719D01*
X63530601Y-47138167D01*
X63514877Y-47153890D01*
X63483430Y-47169614D01*
X63373363Y-47169614D01*
X63766458Y-47185338D02*
X63766458Y-47342576D01*
X63656392Y-47012376D02*
X63766458Y-47185338D01*
X63876525Y-47012376D01*
X63907973Y-47374024D02*
X64159554Y-47374024D01*
X64411135Y-47028100D02*
X64379687Y-47012376D01*
X64332516Y-47012376D01*
X64285344Y-47028100D01*
X64253897Y-47059548D01*
X64238173Y-47090995D01*
X64222449Y-47153890D01*
X64222449Y-47201062D01*
X64238173Y-47263957D01*
X64253897Y-47295405D01*
X64285344Y-47326852D01*
X64332516Y-47342576D01*
X64363964Y-47342576D01*
X64411135Y-47326852D01*
X64426859Y-47311129D01*
X64426859Y-47201062D01*
X64363964Y-47201062D01*
D14*
X62020752Y-45441810D02*
X62020752Y-44933810D01*
X62311038Y-45441810D02*
X62093324Y-45151524D01*
X62311038Y-44933810D02*
X62020752Y-45224095D01*
D15*
X58657672Y-47220414D02*
X58704843Y-47236138D01*
X58720567Y-47251862D01*
X58736291Y-47283310D01*
X58736291Y-47330481D01*
X58720567Y-47361929D01*
X58704843Y-47377652D01*
X58673396Y-47393376D01*
X58547605Y-47393376D01*
X58547605Y-47063176D01*
X58657672Y-47063176D01*
X58689119Y-47078900D01*
X58704843Y-47094624D01*
X58720567Y-47126071D01*
X58720567Y-47157519D01*
X58704843Y-47188967D01*
X58689119Y-47204690D01*
X58657672Y-47220414D01*
X58547605Y-47220414D01*
X58862081Y-47299033D02*
X59019319Y-47299033D01*
X58830634Y-47393376D02*
X58940700Y-47063176D01*
X59050767Y-47393376D01*
X59113663Y-47063176D02*
X59302348Y-47063176D01*
X59208005Y-47393376D02*
X59208005Y-47063176D01*
X59412415Y-47220414D02*
X59522482Y-47220414D01*
X59569653Y-47393376D02*
X59412415Y-47393376D01*
X59412415Y-47063176D01*
X59569653Y-47063176D01*
X59899853Y-47393376D02*
X59789786Y-47236138D01*
X59711167Y-47393376D02*
X59711167Y-47063176D01*
X59836958Y-47063176D01*
X59868405Y-47078900D01*
X59884129Y-47094624D01*
X59899853Y-47126071D01*
X59899853Y-47173243D01*
X59884129Y-47204690D01*
X59868405Y-47220414D01*
X59836958Y-47236138D01*
X59711167Y-47236138D01*
X60041367Y-47393376D02*
X60041367Y-47063176D01*
X60182881Y-47299033D02*
X60340119Y-47299033D01*
X60151434Y-47393376D02*
X60261500Y-47063176D01*
X60371567Y-47393376D01*
D14*
X58166000Y-44837047D02*
X58141810Y-44885428D01*
X58141810Y-44958000D01*
X58166000Y-45030571D01*
X58214381Y-45078952D01*
X58262762Y-45103143D01*
X58359524Y-45127333D01*
X58432095Y-45127333D01*
X58528857Y-45103143D01*
X58577238Y-45078952D01*
X58625619Y-45030571D01*
X58649810Y-44958000D01*
X58649810Y-44909619D01*
X58625619Y-44837047D01*
X58601429Y-44812857D01*
X58432095Y-44812857D01*
X58432095Y-44909619D01*
X58649810Y-44595143D02*
X58141810Y-44595143D01*
X58649810Y-44304857D01*
X58141810Y-44304857D01*
X58649810Y-44062953D02*
X58141810Y-44062953D01*
X58141810Y-43942000D01*
X58166000Y-43869429D01*
X58214381Y-43821048D01*
X58262762Y-43796857D01*
X58359524Y-43772667D01*
X58432095Y-43772667D01*
X58528857Y-43796857D01*
X58577238Y-43821048D01*
X58625619Y-43869429D01*
X58649810Y-43942000D01*
X58649810Y-44062953D01*
X54997047Y-46457810D02*
X54997047Y-45949810D01*
X55118000Y-45949810D01*
X55190571Y-45974000D01*
X55238952Y-46022381D01*
X55263143Y-46070762D01*
X55287333Y-46167524D01*
X55287333Y-46240095D01*
X55263143Y-46336857D01*
X55238952Y-46385238D01*
X55190571Y-46433619D01*
X55118000Y-46457810D01*
X54997047Y-46457810D01*
X55771143Y-46457810D02*
X55480857Y-46457810D01*
X55626000Y-46457810D02*
X55626000Y-45949810D01*
X55577619Y-46022381D01*
X55529238Y-46070762D01*
X55480857Y-46094952D01*
D15*
X54330600Y-47355276D02*
X54173362Y-47355276D01*
X54173362Y-47025076D01*
X54440667Y-47182314D02*
X54550734Y-47182314D01*
X54597905Y-47355276D02*
X54440667Y-47355276D01*
X54440667Y-47025076D01*
X54597905Y-47025076D01*
X54739419Y-47355276D02*
X54739419Y-47025076D01*
X54818038Y-47025076D01*
X54865210Y-47040800D01*
X54896657Y-47072248D01*
X54912381Y-47103695D01*
X54928105Y-47166590D01*
X54928105Y-47213762D01*
X54912381Y-47276657D01*
X54896657Y-47308105D01*
X54865210Y-47339552D01*
X54818038Y-47355276D01*
X54739419Y-47355276D01*
X54991000Y-47386724D02*
X55242581Y-47386724D01*
X55321200Y-47355276D02*
X55321200Y-47025076D01*
X55399819Y-47025076D01*
X55446991Y-47040800D01*
X55478438Y-47072248D01*
X55494162Y-47103695D01*
X55509886Y-47166590D01*
X55509886Y-47213762D01*
X55494162Y-47276657D01*
X55478438Y-47308105D01*
X55446991Y-47339552D01*
X55399819Y-47355276D01*
X55321200Y-47355276D01*
X55651400Y-47182314D02*
X55761467Y-47182314D01*
X55808638Y-47355276D02*
X55651400Y-47355276D01*
X55651400Y-47025076D01*
X55808638Y-47025076D01*
X56060219Y-47182314D02*
X56107390Y-47198038D01*
X56123114Y-47213762D01*
X56138838Y-47245210D01*
X56138838Y-47292381D01*
X56123114Y-47323829D01*
X56107390Y-47339552D01*
X56075943Y-47355276D01*
X55950152Y-47355276D01*
X55950152Y-47025076D01*
X56060219Y-47025076D01*
X56091666Y-47040800D01*
X56107390Y-47056524D01*
X56123114Y-47087971D01*
X56123114Y-47119419D01*
X56107390Y-47150867D01*
X56091666Y-47166590D01*
X56060219Y-47182314D01*
X55950152Y-47182314D01*
X56280352Y-47025076D02*
X56280352Y-47292381D01*
X56296076Y-47323829D01*
X56311800Y-47339552D01*
X56343247Y-47355276D01*
X56406143Y-47355276D01*
X56437590Y-47339552D01*
X56453314Y-47323829D01*
X56469038Y-47292381D01*
X56469038Y-47025076D01*
X56799238Y-47040800D02*
X56767790Y-47025076D01*
X56720619Y-47025076D01*
X56673447Y-47040800D01*
X56642000Y-47072248D01*
X56626276Y-47103695D01*
X56610552Y-47166590D01*
X56610552Y-47213762D01*
X56626276Y-47276657D01*
X56642000Y-47308105D01*
X56673447Y-47339552D01*
X56720619Y-47355276D01*
X56752067Y-47355276D01*
X56799238Y-47339552D01*
X56814962Y-47323829D01*
X56814962Y-47213762D01*
X56752067Y-47213762D01*
D14*
X56508952Y-45441810D02*
X56508952Y-44933810D01*
X56799238Y-45441810D02*
X56581524Y-45151524D01*
X56799238Y-44933810D02*
X56508952Y-45224095D01*
X75216052Y-28042810D02*
X75506338Y-28042810D01*
X75361195Y-28550810D02*
X75361195Y-28042810D01*
X75627290Y-28042810D02*
X75965957Y-28550810D01*
X75965957Y-28042810D02*
X75627290Y-28550810D01*
D15*
X66470643Y-47393376D02*
X66470643Y-47063176D01*
X66627881Y-47393376D02*
X66627881Y-47063176D01*
X66816567Y-47393376D01*
X66816567Y-47063176D01*
X66895186Y-47424824D02*
X67146767Y-47424824D01*
X67225386Y-47393376D02*
X67225386Y-47063176D01*
X67351177Y-47063176D01*
X67382624Y-47078900D01*
X67398348Y-47094624D01*
X67414072Y-47126071D01*
X67414072Y-47173243D01*
X67398348Y-47204690D01*
X67382624Y-47220414D01*
X67351177Y-47236138D01*
X67225386Y-47236138D01*
X67539862Y-47299033D02*
X67697100Y-47299033D01*
X67508415Y-47393376D02*
X67618481Y-47063176D01*
X67728548Y-47393376D01*
X67838615Y-47393376D02*
X67838615Y-47063176D01*
X68027301Y-47393376D01*
X68027301Y-47063176D01*
X68184539Y-47220414D02*
X68294606Y-47220414D01*
X68341777Y-47393376D02*
X68184539Y-47393376D01*
X68184539Y-47063176D01*
X68341777Y-47063176D01*
X68640529Y-47393376D02*
X68483291Y-47393376D01*
X68483291Y-47063176D01*
D14*
X66157929Y-45340210D02*
X66157929Y-44832210D01*
X66399834Y-45340210D02*
X66399834Y-44832210D01*
X66690120Y-45340210D01*
X66690120Y-44832210D01*
X66932024Y-45146686D02*
X67319072Y-45146686D01*
X67125548Y-45340210D02*
X67125548Y-44953162D01*
X68167553Y-44856400D02*
X68119172Y-44832210D01*
X68046600Y-44832210D01*
X67974029Y-44856400D01*
X67925648Y-44904781D01*
X67901457Y-44953162D01*
X67877267Y-45049924D01*
X67877267Y-45122495D01*
X67901457Y-45219257D01*
X67925648Y-45267638D01*
X67974029Y-45316019D01*
X68046600Y-45340210D01*
X68094981Y-45340210D01*
X68167553Y-45316019D01*
X68191743Y-45291829D01*
X68191743Y-45122495D01*
X68094981Y-45122495D01*
X68409457Y-45340210D02*
X68409457Y-44832210D01*
X68699743Y-45340210D01*
X68699743Y-44832210D01*
X68941647Y-45340210D02*
X68941647Y-44832210D01*
X69062600Y-44832210D01*
X69135171Y-44856400D01*
X69183552Y-44904781D01*
X69207743Y-44953162D01*
X69231933Y-45049924D01*
X69231933Y-45122495D01*
X69207743Y-45219257D01*
X69183552Y-45267638D01*
X69135171Y-45316019D01*
X69062600Y-45340210D01*
X68941647Y-45340210D01*
D15*
X50952400Y-47343785D02*
X50936676Y-47375233D01*
X50936676Y-47422404D01*
X50952400Y-47469576D01*
X50983848Y-47501023D01*
X51015295Y-47516747D01*
X51078190Y-47532471D01*
X51125362Y-47532471D01*
X51188257Y-47516747D01*
X51219705Y-47501023D01*
X51251152Y-47469576D01*
X51266876Y-47422404D01*
X51266876Y-47390956D01*
X51251152Y-47343785D01*
X51235429Y-47328061D01*
X51125362Y-47328061D01*
X51125362Y-47390956D01*
X51266876Y-47186547D02*
X50936676Y-47186547D01*
X50936676Y-47060756D01*
X50952400Y-47029309D01*
X50968124Y-47013585D01*
X50999571Y-46997861D01*
X51046743Y-46997861D01*
X51078190Y-47013585D01*
X51093914Y-47029309D01*
X51109638Y-47060756D01*
X51109638Y-47186547D01*
X51266876Y-46856347D02*
X50936676Y-46856347D01*
X50936676Y-46636214D02*
X50936676Y-46573318D01*
X50952400Y-46541871D01*
X50983848Y-46510423D01*
X51046743Y-46494699D01*
X51156810Y-46494699D01*
X51219705Y-46510423D01*
X51251152Y-46541871D01*
X51266876Y-46573318D01*
X51266876Y-46636214D01*
X51251152Y-46667661D01*
X51219705Y-46699109D01*
X51156810Y-46714833D01*
X51046743Y-46714833D01*
X50983848Y-46699109D01*
X50952400Y-46667661D01*
X50936676Y-46636214D01*
X51266876Y-46180223D02*
X51266876Y-46368909D01*
X51266876Y-46274566D02*
X50936676Y-46274566D01*
X50983848Y-46306014D01*
X51015295Y-46337461D01*
X51031019Y-46368909D01*
X51046743Y-45897195D02*
X51266876Y-45897195D01*
X50920952Y-45975814D02*
X51156810Y-46054433D01*
X51156810Y-45850023D01*
X51392667Y-45629890D02*
X51376943Y-45645614D01*
X51329771Y-45677062D01*
X51298324Y-45692785D01*
X51251152Y-45708509D01*
X51172533Y-45724233D01*
X51109638Y-45724233D01*
X51031019Y-45708509D01*
X50983848Y-45692785D01*
X50952400Y-45677062D01*
X50905229Y-45645614D01*
X50889505Y-45629890D01*
X51266876Y-45504100D02*
X50936676Y-45504100D01*
X50936676Y-45425481D01*
X50952400Y-45378309D01*
X50983848Y-45346862D01*
X51015295Y-45331138D01*
X51078190Y-45315414D01*
X51125362Y-45315414D01*
X51188257Y-45331138D01*
X51219705Y-45346862D01*
X51251152Y-45378309D01*
X51266876Y-45425481D01*
X51266876Y-45504100D01*
X50920952Y-44938043D02*
X51345495Y-45221071D01*
X51172533Y-44843700D02*
X51172533Y-44686462D01*
X51266876Y-44875147D02*
X50936676Y-44765081D01*
X51266876Y-44655014D01*
X51392667Y-44576395D02*
X51376943Y-44560671D01*
X51329771Y-44529223D01*
X51298324Y-44513499D01*
X51251152Y-44497776D01*
X51172533Y-44482052D01*
X51109638Y-44482052D01*
X51031019Y-44497776D01*
X50983848Y-44513499D01*
X50952400Y-44529223D01*
X50905229Y-44560671D01*
X50889505Y-44576395D01*
X74248433Y-44091376D02*
X74248433Y-43761176D01*
X74327052Y-43761176D01*
X74374224Y-43776900D01*
X74405671Y-43808348D01*
X74421395Y-43839795D01*
X74437119Y-43902690D01*
X74437119Y-43949862D01*
X74421395Y-44012757D01*
X74405671Y-44044205D01*
X74374224Y-44075652D01*
X74327052Y-44091376D01*
X74248433Y-44091376D01*
X74562909Y-43997033D02*
X74720147Y-43997033D01*
X74531462Y-44091376D02*
X74641528Y-43761176D01*
X74751595Y-44091376D01*
X74814491Y-43761176D02*
X75003176Y-43761176D01*
X74908833Y-44091376D02*
X74908833Y-43761176D01*
X75097519Y-43997033D02*
X75254757Y-43997033D01*
X75066072Y-44091376D02*
X75176138Y-43761176D01*
X75286205Y-44091376D01*
X75317653Y-44122824D02*
X75569234Y-44122824D01*
X75632129Y-44075652D02*
X75679301Y-44091376D01*
X75757920Y-44091376D01*
X75789367Y-44075652D01*
X75805091Y-44059929D01*
X75820815Y-44028481D01*
X75820815Y-43997033D01*
X75805091Y-43965586D01*
X75789367Y-43949862D01*
X75757920Y-43934138D01*
X75695024Y-43918414D01*
X75663577Y-43902690D01*
X75647853Y-43886967D01*
X75632129Y-43855519D01*
X75632129Y-43824071D01*
X75647853Y-43792624D01*
X75663577Y-43776900D01*
X75695024Y-43761176D01*
X75773644Y-43761176D01*
X75820815Y-43776900D01*
X76135291Y-44091376D02*
X75946605Y-44091376D01*
X76040948Y-44091376D02*
X76040948Y-43761176D01*
X76009500Y-43808348D01*
X75978053Y-43839795D01*
X75946605Y-43855519D01*
X73849291Y-46126400D02*
X73817843Y-46110676D01*
X73770672Y-46110676D01*
X73723500Y-46126400D01*
X73692053Y-46157848D01*
X73676329Y-46189295D01*
X73660605Y-46252190D01*
X73660605Y-46299362D01*
X73676329Y-46362257D01*
X73692053Y-46393705D01*
X73723500Y-46425152D01*
X73770672Y-46440876D01*
X73802120Y-46440876D01*
X73849291Y-46425152D01*
X73865015Y-46409429D01*
X73865015Y-46299362D01*
X73802120Y-46299362D01*
X74006529Y-46440876D02*
X74006529Y-46110676D01*
X74132320Y-46110676D01*
X74163767Y-46126400D01*
X74179491Y-46142124D01*
X74195215Y-46173571D01*
X74195215Y-46220743D01*
X74179491Y-46252190D01*
X74163767Y-46267914D01*
X74132320Y-46283638D01*
X74006529Y-46283638D01*
X74336729Y-46440876D02*
X74336729Y-46110676D01*
X74556862Y-46110676D02*
X74619758Y-46110676D01*
X74651205Y-46126400D01*
X74682653Y-46157848D01*
X74698377Y-46220743D01*
X74698377Y-46330810D01*
X74682653Y-46393705D01*
X74651205Y-46425152D01*
X74619758Y-46440876D01*
X74556862Y-46440876D01*
X74525415Y-46425152D01*
X74493967Y-46393705D01*
X74478243Y-46330810D01*
X74478243Y-46220743D01*
X74493967Y-46157848D01*
X74525415Y-46126400D01*
X74556862Y-46110676D01*
X75012853Y-46440876D02*
X74824167Y-46440876D01*
X74918510Y-46440876D02*
X74918510Y-46110676D01*
X74887062Y-46157848D01*
X74855615Y-46189295D01*
X74824167Y-46205019D01*
X75122919Y-46110676D02*
X75327329Y-46110676D01*
X75217262Y-46236467D01*
X75264434Y-46236467D01*
X75295881Y-46252190D01*
X75311605Y-46267914D01*
X75327329Y-46299362D01*
X75327329Y-46377981D01*
X75311605Y-46409429D01*
X75295881Y-46425152D01*
X75264434Y-46440876D01*
X75170091Y-46440876D01*
X75138643Y-46425152D01*
X75122919Y-46409429D01*
X75563186Y-46566667D02*
X75547462Y-46550943D01*
X75516014Y-46503771D01*
X75500291Y-46472324D01*
X75484567Y-46425152D01*
X75468843Y-46346533D01*
X75468843Y-46283638D01*
X75484567Y-46205019D01*
X75500291Y-46157848D01*
X75516014Y-46126400D01*
X75547462Y-46079229D01*
X75563186Y-46063505D01*
X75688976Y-46440876D02*
X75688976Y-46110676D01*
X75767595Y-46110676D01*
X75814767Y-46126400D01*
X75846214Y-46157848D01*
X75861938Y-46189295D01*
X75877662Y-46252190D01*
X75877662Y-46299362D01*
X75861938Y-46362257D01*
X75846214Y-46393705D01*
X75814767Y-46425152D01*
X75767595Y-46440876D01*
X75688976Y-46440876D01*
X75987728Y-46566667D02*
X76003452Y-46550943D01*
X76034900Y-46503771D01*
X76050624Y-46472324D01*
X76066347Y-46425152D01*
X76082071Y-46346533D01*
X76082071Y-46283638D01*
X76066347Y-46205019D01*
X76050624Y-46157848D01*
X76034900Y-46126400D01*
X76003452Y-46079229D01*
X75987728Y-46063505D01*
D14*
X66052096Y-48501300D02*
X66003715Y-48477110D01*
X65931143Y-48477110D01*
X65858572Y-48501300D01*
X65810191Y-48549681D01*
X65786000Y-48598062D01*
X65761810Y-48694824D01*
X65761810Y-48767395D01*
X65786000Y-48864157D01*
X65810191Y-48912538D01*
X65858572Y-48960919D01*
X65931143Y-48985110D01*
X65979524Y-48985110D01*
X66052096Y-48960919D01*
X66076286Y-48936729D01*
X66076286Y-48767395D01*
X65979524Y-48767395D01*
X66294000Y-48985110D02*
X66294000Y-48477110D01*
X66487524Y-48477110D01*
X66535905Y-48501300D01*
X66560096Y-48525490D01*
X66584286Y-48573871D01*
X66584286Y-48646443D01*
X66560096Y-48694824D01*
X66535905Y-48719014D01*
X66487524Y-48743205D01*
X66294000Y-48743205D01*
X66802000Y-48985110D02*
X66802000Y-48477110D01*
X67140667Y-48477110D02*
X67237429Y-48477110D01*
X67285810Y-48501300D01*
X67334191Y-48549681D01*
X67358382Y-48646443D01*
X67358382Y-48815776D01*
X67334191Y-48912538D01*
X67285810Y-48960919D01*
X67237429Y-48985110D01*
X67140667Y-48985110D01*
X67092286Y-48960919D01*
X67043905Y-48912538D01*
X67019715Y-48815776D01*
X67019715Y-48646443D01*
X67043905Y-48549681D01*
X67092286Y-48501300D01*
X67140667Y-48477110D01*
X67793810Y-48646443D02*
X67793810Y-48985110D01*
X67672857Y-48452919D02*
X67551905Y-48815776D01*
X67866381Y-48815776D01*
X62508191Y-48412400D02*
X62459810Y-48388210D01*
X62387238Y-48388210D01*
X62314667Y-48412400D01*
X62266286Y-48460781D01*
X62242095Y-48509162D01*
X62217905Y-48605924D01*
X62217905Y-48678495D01*
X62242095Y-48775257D01*
X62266286Y-48823638D01*
X62314667Y-48872019D01*
X62387238Y-48896210D01*
X62435619Y-48896210D01*
X62508191Y-48872019D01*
X62532381Y-48847829D01*
X62532381Y-48678495D01*
X62435619Y-48678495D01*
X62750095Y-48896210D02*
X62750095Y-48388210D01*
X62943619Y-48388210D01*
X62992000Y-48412400D01*
X63016191Y-48436590D01*
X63040381Y-48484971D01*
X63040381Y-48557543D01*
X63016191Y-48605924D01*
X62992000Y-48630114D01*
X62943619Y-48654305D01*
X62750095Y-48654305D01*
X63258095Y-48896210D02*
X63258095Y-48388210D01*
X63596762Y-48388210D02*
X63693524Y-48388210D01*
X63741905Y-48412400D01*
X63790286Y-48460781D01*
X63814477Y-48557543D01*
X63814477Y-48726876D01*
X63790286Y-48823638D01*
X63741905Y-48872019D01*
X63693524Y-48896210D01*
X63596762Y-48896210D01*
X63548381Y-48872019D01*
X63500000Y-48823638D01*
X63475810Y-48726876D01*
X63475810Y-48557543D01*
X63500000Y-48460781D01*
X63548381Y-48412400D01*
X63596762Y-48388210D01*
X64298286Y-48896210D02*
X64008000Y-48896210D01*
X64153143Y-48896210D02*
X64153143Y-48388210D01*
X64104762Y-48460781D01*
X64056381Y-48509162D01*
X64008000Y-48533352D01*
X64467619Y-48388210D02*
X64782096Y-48388210D01*
X64612762Y-48581733D01*
X64685334Y-48581733D01*
X64733715Y-48605924D01*
X64757905Y-48630114D01*
X64782096Y-48678495D01*
X64782096Y-48799448D01*
X64757905Y-48847829D01*
X64733715Y-48872019D01*
X64685334Y-48896210D01*
X64540191Y-48896210D01*
X64491810Y-48872019D01*
X64467619Y-48847829D01*
X59193491Y-48374300D02*
X59145110Y-48350110D01*
X59072538Y-48350110D01*
X58999967Y-48374300D01*
X58951586Y-48422681D01*
X58927395Y-48471062D01*
X58903205Y-48567824D01*
X58903205Y-48640395D01*
X58927395Y-48737157D01*
X58951586Y-48785538D01*
X58999967Y-48833919D01*
X59072538Y-48858110D01*
X59120919Y-48858110D01*
X59193491Y-48833919D01*
X59217681Y-48809729D01*
X59217681Y-48640395D01*
X59120919Y-48640395D01*
X59435395Y-48858110D02*
X59435395Y-48350110D01*
X59628919Y-48350110D01*
X59677300Y-48374300D01*
X59701491Y-48398490D01*
X59725681Y-48446871D01*
X59725681Y-48519443D01*
X59701491Y-48567824D01*
X59677300Y-48592014D01*
X59628919Y-48616205D01*
X59435395Y-48616205D01*
X59943395Y-48858110D02*
X59943395Y-48350110D01*
X60282062Y-48350110D02*
X60378824Y-48350110D01*
X60427205Y-48374300D01*
X60475586Y-48422681D01*
X60499777Y-48519443D01*
X60499777Y-48688776D01*
X60475586Y-48785538D01*
X60427205Y-48833919D01*
X60378824Y-48858110D01*
X60282062Y-48858110D01*
X60233681Y-48833919D01*
X60185300Y-48785538D01*
X60161110Y-48688776D01*
X60161110Y-48519443D01*
X60185300Y-48422681D01*
X60233681Y-48374300D01*
X60282062Y-48350110D01*
X60983586Y-48858110D02*
X60693300Y-48858110D01*
X60838443Y-48858110D02*
X60838443Y-48350110D01*
X60790062Y-48422681D01*
X60741681Y-48471062D01*
X60693300Y-48495252D01*
X61177110Y-48398490D02*
X61201300Y-48374300D01*
X61249681Y-48350110D01*
X61370634Y-48350110D01*
X61419015Y-48374300D01*
X61443205Y-48398490D01*
X61467396Y-48446871D01*
X61467396Y-48495252D01*
X61443205Y-48567824D01*
X61152919Y-48858110D01*
X61467396Y-48858110D01*
X56566404Y-48388210D02*
X56735737Y-48896210D01*
X56905071Y-48388210D01*
X57026023Y-48388210D02*
X57340500Y-48388210D01*
X57171166Y-48581733D01*
X57243738Y-48581733D01*
X57292119Y-48605924D01*
X57316309Y-48630114D01*
X57340500Y-48678495D01*
X57340500Y-48799448D01*
X57316309Y-48847829D01*
X57292119Y-48872019D01*
X57243738Y-48896210D01*
X57098595Y-48896210D01*
X57050214Y-48872019D01*
X57026023Y-48847829D01*
X57558214Y-48847829D02*
X57582405Y-48872019D01*
X57558214Y-48896210D01*
X57534024Y-48872019D01*
X57558214Y-48847829D01*
X57558214Y-48896210D01*
X57751738Y-48388210D02*
X58066215Y-48388210D01*
X57896881Y-48581733D01*
X57969453Y-48581733D01*
X58017834Y-48605924D01*
X58042024Y-48630114D01*
X58066215Y-48678495D01*
X58066215Y-48799448D01*
X58042024Y-48847829D01*
X58017834Y-48872019D01*
X57969453Y-48896210D01*
X57824310Y-48896210D01*
X57775929Y-48872019D01*
X57751738Y-48847829D01*
X53848604Y-48375510D02*
X54017937Y-48883510D01*
X54187271Y-48375510D01*
X54308223Y-48375510D02*
X54622700Y-48375510D01*
X54453366Y-48569033D01*
X54525938Y-48569033D01*
X54574319Y-48593224D01*
X54598509Y-48617414D01*
X54622700Y-48665795D01*
X54622700Y-48786748D01*
X54598509Y-48835129D01*
X54574319Y-48859319D01*
X54525938Y-48883510D01*
X54380795Y-48883510D01*
X54332414Y-48859319D01*
X54308223Y-48835129D01*
X54840414Y-48835129D02*
X54864605Y-48859319D01*
X54840414Y-48883510D01*
X54816224Y-48859319D01*
X54840414Y-48835129D01*
X54840414Y-48883510D01*
X55033938Y-48375510D02*
X55348415Y-48375510D01*
X55179081Y-48569033D01*
X55251653Y-48569033D01*
X55300034Y-48593224D01*
X55324224Y-48617414D01*
X55348415Y-48665795D01*
X55348415Y-48786748D01*
X55324224Y-48835129D01*
X55300034Y-48859319D01*
X55251653Y-48883510D01*
X55106510Y-48883510D01*
X55058129Y-48859319D01*
X55033938Y-48835129D01*
X51092704Y-48413610D02*
X51262037Y-48921610D01*
X51431371Y-48413610D01*
X51552323Y-48413610D02*
X51866800Y-48413610D01*
X51697466Y-48607133D01*
X51770038Y-48607133D01*
X51818419Y-48631324D01*
X51842609Y-48655514D01*
X51866800Y-48703895D01*
X51866800Y-48824848D01*
X51842609Y-48873229D01*
X51818419Y-48897419D01*
X51770038Y-48921610D01*
X51624895Y-48921610D01*
X51576514Y-48897419D01*
X51552323Y-48873229D01*
X52084514Y-48873229D02*
X52108705Y-48897419D01*
X52084514Y-48921610D01*
X52060324Y-48897419D01*
X52084514Y-48873229D01*
X52084514Y-48921610D01*
X52278038Y-48413610D02*
X52592515Y-48413610D01*
X52423181Y-48607133D01*
X52495753Y-48607133D01*
X52544134Y-48631324D01*
X52568324Y-48655514D01*
X52592515Y-48703895D01*
X52592515Y-48824848D01*
X52568324Y-48873229D01*
X52544134Y-48897419D01*
X52495753Y-48921610D01*
X52350610Y-48921610D01*
X52302229Y-48897419D01*
X52278038Y-48873229D01*
X74796953Y-48514000D02*
X74748572Y-48489810D01*
X74676000Y-48489810D01*
X74603429Y-48514000D01*
X74555048Y-48562381D01*
X74530857Y-48610762D01*
X74506667Y-48707524D01*
X74506667Y-48780095D01*
X74530857Y-48876857D01*
X74555048Y-48925238D01*
X74603429Y-48973619D01*
X74676000Y-48997810D01*
X74724381Y-48997810D01*
X74796953Y-48973619D01*
X74821143Y-48949429D01*
X74821143Y-48780095D01*
X74724381Y-48780095D01*
X75038857Y-48997810D02*
X75038857Y-48489810D01*
X75329143Y-48997810D01*
X75329143Y-48489810D01*
X75571047Y-48997810D02*
X75571047Y-48489810D01*
X75692000Y-48489810D01*
X75764571Y-48514000D01*
X75812952Y-48562381D01*
X75837143Y-48610762D01*
X75861333Y-48707524D01*
X75861333Y-48780095D01*
X75837143Y-48876857D01*
X75812952Y-48925238D01*
X75764571Y-48973619D01*
X75692000Y-48997810D01*
X75571047Y-48997810D01*
X72002953Y-48526700D02*
X71954572Y-48502510D01*
X71882000Y-48502510D01*
X71809429Y-48526700D01*
X71761048Y-48575081D01*
X71736857Y-48623462D01*
X71712667Y-48720224D01*
X71712667Y-48792795D01*
X71736857Y-48889557D01*
X71761048Y-48937938D01*
X71809429Y-48986319D01*
X71882000Y-49010510D01*
X71930381Y-49010510D01*
X72002953Y-48986319D01*
X72027143Y-48962129D01*
X72027143Y-48792795D01*
X71930381Y-48792795D01*
X72244857Y-49010510D02*
X72244857Y-48502510D01*
X72535143Y-49010510D01*
X72535143Y-48502510D01*
X72777047Y-49010510D02*
X72777047Y-48502510D01*
X72898000Y-48502510D01*
X72970571Y-48526700D01*
X73018952Y-48575081D01*
X73043143Y-48623462D01*
X73067333Y-48720224D01*
X73067333Y-48792795D01*
X73043143Y-48889557D01*
X73018952Y-48937938D01*
X72970571Y-48986319D01*
X72898000Y-49010510D01*
X72777047Y-49010510D01*
X69208953Y-48514000D02*
X69160572Y-48489810D01*
X69088000Y-48489810D01*
X69015429Y-48514000D01*
X68967048Y-48562381D01*
X68942857Y-48610762D01*
X68918667Y-48707524D01*
X68918667Y-48780095D01*
X68942857Y-48876857D01*
X68967048Y-48925238D01*
X69015429Y-48973619D01*
X69088000Y-48997810D01*
X69136381Y-48997810D01*
X69208953Y-48973619D01*
X69233143Y-48949429D01*
X69233143Y-48780095D01*
X69136381Y-48780095D01*
X69450857Y-48997810D02*
X69450857Y-48489810D01*
X69741143Y-48997810D01*
X69741143Y-48489810D01*
X69983047Y-48997810D02*
X69983047Y-48489810D01*
X70104000Y-48489810D01*
X70176571Y-48514000D01*
X70224952Y-48562381D01*
X70249143Y-48610762D01*
X70273333Y-48707524D01*
X70273333Y-48780095D01*
X70249143Y-48876857D01*
X70224952Y-48925238D01*
X70176571Y-48973619D01*
X70104000Y-48997810D01*
X69983047Y-48997810D01*
M02*
