G04 #@! TF.FileFunction,Copper,L2,Bot,Signal*
%FSLAX46Y46*%
G04 Gerber Fmt 4.6, Leading zero omitted, Abs format (unit mm)*
G04 Created by KiCad (PCBNEW 4.0.5+dfsg1-4) date Fri Oct 13 22:31:27 2017*
%MOMM*%
%LPD*%
G01*
G04 APERTURE LIST*
%ADD10C,0.100000*%
%ADD11R,0.914400X1.016000*%
%ADD12C,1.016000*%
%ADD13R,1.016000X1.016000*%
%ADD14O,0.914400X1.016000*%
%ADD15C,0.914400*%
%ADD16R,1.016000X0.914400*%
%ADD17O,1.016000X0.914400*%
%ADD18R,1.000760X1.501140*%
%ADD19R,1.998980X2.999740*%
%ADD20R,1.700000X0.900000*%
%ADD21C,2.100000*%
%ADD22R,1.000000X1.250000*%
%ADD23R,0.800000X0.900000*%
%ADD24R,0.900000X1.700000*%
%ADD25R,1.550000X0.600000*%
%ADD26R,2.600000X1.600000*%
%ADD27C,0.660400*%
%ADD28C,0.254000*%
G04 APERTURE END LIST*
D10*
D11*
X56642000Y-46228000D03*
D12*
X54102000Y-46228000D03*
D13*
X70358000Y-46228000D03*
D12*
X72898000Y-46228000D03*
D13*
X62230000Y-46228000D03*
D12*
X64770000Y-46228000D03*
D11*
X68548000Y-46228000D03*
D14*
X66548000Y-46228000D03*
D11*
X58420000Y-46228000D03*
D14*
X60420000Y-46228000D03*
D15*
X51816000Y-47244000D03*
X75184000Y-44704000D03*
X75184000Y-47244000D03*
D16*
X75184000Y-49784000D03*
X72390000Y-49784000D03*
X69596000Y-49784000D03*
D15*
X66802000Y-49784000D03*
X63500000Y-49784000D03*
X60198000Y-49784000D03*
D17*
X54610000Y-49784000D03*
X57404000Y-49784000D03*
X51816000Y-49784000D03*
D18*
X68577460Y-39080440D03*
X70078600Y-39080440D03*
X71579740Y-39080440D03*
D19*
X70078600Y-42031920D03*
D20*
X75184000Y-33274000D03*
X75184000Y-37338000D03*
X75184000Y-38633400D03*
X75184000Y-42697400D03*
D21*
X74866500Y-26733500D03*
D22*
X71723000Y-32893000D03*
X69723000Y-32893000D03*
X66897000Y-32893000D03*
X64897000Y-32893000D03*
D15*
X74930000Y-29369000D03*
X74930000Y-31369000D03*
D23*
X61910000Y-36687000D03*
X60010000Y-36687000D03*
X60960000Y-34687000D03*
D24*
X54250000Y-26797000D03*
X57150000Y-26797000D03*
X54229000Y-29845000D03*
X57129000Y-29845000D03*
X59256000Y-26797000D03*
X62156000Y-26797000D03*
X59309000Y-29845000D03*
X62209000Y-29845000D03*
X64410000Y-29845000D03*
X67310000Y-29845000D03*
X54229000Y-32893000D03*
X57129000Y-32893000D03*
X69342000Y-29845000D03*
X72242000Y-29845000D03*
X69342000Y-26797000D03*
X72242000Y-26797000D03*
X64336000Y-26797000D03*
X67236000Y-26797000D03*
D25*
X59276000Y-42799000D03*
X59276000Y-41529000D03*
X59276000Y-40259000D03*
X59276000Y-38989000D03*
X64676000Y-38989000D03*
X64676000Y-40259000D03*
X64676000Y-41529000D03*
X64676000Y-42799000D03*
D21*
X52133500Y-26733500D03*
D26*
X52326000Y-42164000D03*
X55926000Y-42164000D03*
X52278000Y-37084000D03*
X55878000Y-37084000D03*
D27*
X68481421Y-36700989D03*
X66245014Y-31491722D03*
X58203000Y-27322800D03*
X60683629Y-39475504D03*
X64332989Y-37879128D03*
X65207010Y-49218657D03*
X58380500Y-33300000D03*
X74404410Y-43861631D03*
X74980476Y-32791066D03*
X58928000Y-28321000D03*
X53482100Y-31287600D03*
X74567800Y-39721700D03*
X61106000Y-27797700D03*
X63024890Y-33526480D03*
D28*
X71574100Y-34048200D02*
X71574100Y-36580370D01*
X71574100Y-36580370D02*
X70078600Y-38075870D01*
X70078600Y-38075870D02*
X70078600Y-39080440D01*
X70078600Y-38075870D02*
X69502953Y-37500223D01*
X69502953Y-37500223D02*
X67756824Y-37500223D01*
X63460541Y-34454459D02*
X64897000Y-33018000D01*
X63460541Y-38929841D02*
X63460541Y-34454459D01*
X63519700Y-38989000D02*
X63460541Y-38929841D01*
X64897000Y-33018000D02*
X64897000Y-32893000D01*
X63519700Y-47145000D02*
X65151000Y-47145000D01*
X65669600Y-44688800D02*
X67357200Y-43001200D01*
X65151000Y-47145000D02*
X65669600Y-46626400D01*
X65669600Y-46626400D02*
X65669600Y-44688800D01*
X67357200Y-43001200D02*
X67357200Y-37899847D01*
X67357200Y-37899847D02*
X67756824Y-37500223D01*
X64410000Y-30949000D02*
X64897000Y-31436000D01*
X64410000Y-29845000D02*
X64410000Y-30949000D01*
X64897000Y-32014000D02*
X64897000Y-32893000D01*
X64897000Y-31436000D02*
X64897000Y-32014000D01*
X60420000Y-46228000D02*
X60839300Y-46228000D01*
X63519700Y-47145000D02*
X63519700Y-38989000D01*
X61535000Y-47145000D02*
X63519700Y-47145000D01*
X60839300Y-46449300D02*
X61535000Y-47145000D01*
X60839300Y-46228000D02*
X60839300Y-46449300D01*
X71574100Y-34048200D02*
X71723000Y-33899300D01*
X71723000Y-32893000D02*
X71723000Y-33899300D01*
X64676000Y-38989000D02*
X63519700Y-38989000D01*
X76022201Y-45214698D02*
X76022201Y-45034200D01*
X76022201Y-45034200D02*
X76022201Y-44450000D01*
X76022201Y-48234599D02*
X76022201Y-45034200D01*
X75184000Y-49784000D02*
X75184000Y-49072800D01*
X75184000Y-49072800D02*
X76022201Y-48234599D01*
X75184000Y-37338000D02*
X74493598Y-37338000D01*
X74493598Y-37338000D02*
X73856599Y-37974999D01*
X73856599Y-40063077D02*
X75184000Y-41390478D01*
X75184000Y-41390478D02*
X75184000Y-41993400D01*
X75184000Y-41993400D02*
X75184000Y-42697400D01*
X73856599Y-37974999D02*
X73856599Y-40063077D01*
X68577460Y-39080440D02*
X68577460Y-40085010D01*
X68577460Y-40085010D02*
X68222261Y-40440209D01*
X68222261Y-40440209D02*
X68222261Y-43204622D01*
X68548000Y-43530361D02*
X68548000Y-46228000D01*
X68222261Y-43204622D02*
X68548000Y-43530361D01*
X68548000Y-45338700D02*
X68548000Y-46228000D01*
X59276000Y-42799000D02*
X60773677Y-42799000D01*
X60773677Y-42799000D02*
X62082121Y-41490556D01*
X62082121Y-41490556D02*
X62082121Y-37690421D01*
X62082121Y-37690421D02*
X61910000Y-37518300D01*
X61910000Y-37518300D02*
X61910000Y-36687000D01*
X69723000Y-35459410D02*
X68811620Y-36370790D01*
X68811620Y-36370790D02*
X68481421Y-36700989D01*
X69723000Y-32893000D02*
X69723000Y-35459410D01*
X67236000Y-26797000D02*
X67236000Y-27228903D01*
X66245014Y-31024749D02*
X66245014Y-31491722D01*
X67236000Y-27228903D02*
X66245014Y-28219889D01*
X66245014Y-28219889D02*
X66245014Y-31024749D01*
X66374722Y-31491722D02*
X66245014Y-31491722D01*
X66897000Y-32014000D02*
X66374722Y-31491722D01*
X66897000Y-32893000D02*
X66897000Y-32014000D01*
X66897000Y-32893000D02*
X66897000Y-32768000D01*
X72440800Y-49784000D02*
X72390000Y-49784000D01*
X75184000Y-49618608D02*
X75184000Y-49784000D01*
X67792737Y-46228000D02*
X66348197Y-47672540D01*
X59131200Y-46228000D02*
X58420000Y-46228000D01*
X66348197Y-47672540D02*
X60575740Y-47672540D01*
X60575740Y-47672540D02*
X59131200Y-46228000D01*
X68548000Y-46228000D02*
X67792737Y-46228000D01*
X76022201Y-44301663D02*
X76022201Y-44450000D01*
X76022201Y-43281601D02*
X76022201Y-44450000D01*
X75438000Y-42697400D02*
X76022201Y-43281601D01*
X75184000Y-42697400D02*
X75438000Y-42697400D01*
X52913000Y-39751000D02*
X52278000Y-39116000D01*
X52278000Y-39116000D02*
X52278000Y-37084000D01*
X55926000Y-42164000D02*
X55926000Y-41110000D01*
X55926000Y-41110000D02*
X54567000Y-39751000D01*
X54567000Y-39751000D02*
X54267000Y-39751000D01*
X55319039Y-47045852D02*
X55319039Y-44119800D01*
X55926000Y-42164000D02*
X55926000Y-43218000D01*
X55926000Y-43218000D02*
X55319039Y-43824961D01*
X55319039Y-43824961D02*
X55319039Y-44119800D01*
X52913000Y-39751000D02*
X52578000Y-39416000D01*
X54267000Y-39751000D02*
X52913000Y-39751000D01*
X57719089Y-40424100D02*
X57719089Y-42164000D01*
X59276000Y-42799000D02*
X57871489Y-42799000D01*
X57871489Y-42799000D02*
X57719089Y-42646600D01*
X57719089Y-42646600D02*
X57719089Y-42164000D01*
X59276000Y-40259000D02*
X57884189Y-40259000D01*
X57884189Y-40259000D02*
X57719089Y-40424100D01*
X57107300Y-42164000D02*
X57719089Y-42164000D01*
X58420000Y-46228000D02*
X58420000Y-46990000D01*
X58420000Y-46990000D02*
X57645300Y-47764700D01*
X57645300Y-47764700D02*
X56037887Y-47764700D01*
X56037887Y-47764700D02*
X55319039Y-47045852D01*
X55626000Y-42164000D02*
X56366700Y-42164000D01*
X56366700Y-42164000D02*
X57107300Y-42164000D01*
X57404000Y-49784000D02*
X58166000Y-49784000D01*
X67667181Y-47441364D02*
X69178644Y-47441364D01*
X70256398Y-44627800D02*
X70978751Y-44627800D01*
X58166000Y-49784000D02*
X59769449Y-48180551D01*
X59769449Y-48180551D02*
X66927994Y-48180551D01*
X69178644Y-47441364D02*
X69415000Y-47205008D01*
X70978751Y-44627800D02*
X71842129Y-43764422D01*
X71842129Y-39342829D02*
X71579740Y-39080440D01*
X66927994Y-48180551D02*
X67667181Y-47441364D01*
X69415000Y-47205008D02*
X69415000Y-45469198D01*
X69415000Y-45469198D02*
X70256398Y-44627800D01*
X71842129Y-43764422D02*
X71842129Y-39342829D01*
X52902839Y-47858661D02*
X52902839Y-44107100D01*
X52326000Y-42164000D02*
X52326000Y-43530261D01*
X52326000Y-43530261D02*
X52902839Y-44107100D01*
X51816000Y-49784000D02*
X51816000Y-48945500D01*
X51816000Y-48945500D02*
X52902839Y-47858661D01*
X59256000Y-26797000D02*
X58424700Y-26797000D01*
X57150000Y-26797000D02*
X57981300Y-26797000D01*
X58203000Y-27018700D02*
X57981300Y-26797000D01*
X58203000Y-27018700D02*
X58424700Y-26797000D01*
X58203000Y-27322800D02*
X58203000Y-27018700D01*
X60305000Y-38989000D02*
X60683629Y-39367629D01*
X60683629Y-39367629D02*
X60683629Y-39475504D01*
X59276000Y-38989000D02*
X60305000Y-38989000D01*
X54229000Y-32893000D02*
X54229000Y-34251900D01*
X55878000Y-37084000D02*
X55878000Y-36030000D01*
X55878000Y-36030000D02*
X54229000Y-34381000D01*
X54229000Y-34381000D02*
X54229000Y-34251900D01*
X55878000Y-37084000D02*
X57925000Y-37084000D01*
X59276000Y-38989000D02*
X59276000Y-38435000D01*
X59276000Y-38435000D02*
X57925000Y-37084000D01*
X57925000Y-37084000D02*
X56932000Y-37084000D01*
X56932000Y-37084000D02*
X55578000Y-37084000D01*
X64770000Y-43471100D02*
X64770000Y-46228000D01*
X64097900Y-42799000D02*
X64770000Y-43471100D01*
X64676000Y-42799000D02*
X64097900Y-42799000D01*
X62714900Y-42413312D02*
X60750912Y-44377300D01*
X60750912Y-44377300D02*
X58441900Y-44377300D01*
X60960000Y-34687000D02*
X61614000Y-34687000D01*
X62318000Y-35391000D02*
X62445300Y-35391000D01*
X62445300Y-35391000D02*
X62714900Y-35660600D01*
X56642000Y-46177200D02*
X56642000Y-46228000D01*
X61614000Y-34687000D02*
X62318000Y-35391000D01*
X62714900Y-35660600D02*
X62714900Y-42413312D01*
X58441900Y-44377300D02*
X56642000Y-46177200D01*
X64332989Y-37267813D02*
X64332989Y-37412155D01*
X67310000Y-29845000D02*
X67310000Y-30949000D01*
X67310000Y-30949000D02*
X67799924Y-31438924D01*
X67799924Y-31438924D02*
X67799924Y-33800878D01*
X67799924Y-33800878D02*
X64332989Y-37267813D01*
X64332989Y-37412155D02*
X64332989Y-37879128D01*
X72242000Y-29845000D02*
X72242000Y-30949000D01*
X72242000Y-30949000D02*
X72817141Y-31524141D01*
X72817141Y-31524141D02*
X72817141Y-43770201D01*
X72817141Y-43770201D02*
X70359342Y-46228000D01*
X70359342Y-46228000D02*
X70358000Y-46228000D01*
X72242000Y-26797000D02*
X72242000Y-27901000D01*
X72242000Y-27901000D02*
X73348589Y-29007589D01*
X73348589Y-29007589D02*
X73348589Y-44135818D01*
X73348589Y-44135818D02*
X71811144Y-45673263D01*
X71811144Y-46896690D02*
X70689933Y-48017901D01*
X71811144Y-45673263D02*
X71811144Y-46896690D01*
X65537209Y-48888458D02*
X65207010Y-49218657D01*
X70689933Y-48017901D02*
X68003338Y-48017901D01*
X68003338Y-48017901D02*
X67132781Y-48888458D01*
X67132781Y-48888458D02*
X65537209Y-48888458D01*
X57973500Y-32893000D02*
X58380500Y-33300000D01*
X57129000Y-32893000D02*
X57973500Y-32893000D01*
X66802000Y-49784000D02*
X67622711Y-49784000D01*
X67622711Y-49784000D02*
X68821143Y-48585568D01*
X68821143Y-48585568D02*
X72628995Y-48585568D01*
X74019067Y-44246974D02*
X74074211Y-44191830D01*
X72628995Y-48585568D02*
X74019067Y-47195496D01*
X74019067Y-47195496D02*
X74019067Y-44246974D01*
X74074211Y-44191830D02*
X74404410Y-43861631D01*
X59309000Y-29845000D02*
X59309000Y-36394900D01*
X59309000Y-36394900D02*
X59601100Y-36687000D01*
X59601100Y-36687000D02*
X60010000Y-36687000D01*
X74980476Y-33106037D02*
X74980476Y-32791066D01*
X75107389Y-33232950D02*
X74980476Y-33106037D01*
X75132805Y-33232950D02*
X75107389Y-33232950D01*
X75132805Y-33554805D02*
X75132805Y-33232950D01*
X75184000Y-33606000D02*
X75132805Y-33554805D01*
X75173855Y-33274000D02*
X75132805Y-33232950D01*
X75184000Y-33274000D02*
X75173855Y-33274000D01*
X54250000Y-26797000D02*
X54250000Y-27197000D01*
X54250000Y-27197000D02*
X56898000Y-29845000D01*
X56898000Y-29845000D02*
X57129000Y-29845000D01*
X57960300Y-29845000D02*
X57960300Y-29527500D01*
X57960300Y-29527500D02*
X57960300Y-28937400D01*
X57960300Y-28821727D02*
X57960300Y-29527500D01*
X58928000Y-28321000D02*
X58461027Y-28321000D01*
X58461027Y-28321000D02*
X57960300Y-28821727D01*
X57129000Y-29845000D02*
X57960300Y-29845000D01*
X53693400Y-31076300D02*
X53482100Y-31287600D01*
X54229000Y-31076300D02*
X53693400Y-31076300D01*
X54229000Y-29845000D02*
X54229000Y-31076300D01*
X62156000Y-26797000D02*
X61454836Y-26797000D01*
X61454836Y-26797000D02*
X61106000Y-27145836D01*
X61106000Y-27145836D02*
X61106000Y-27797700D01*
X75184000Y-38633400D02*
X75184000Y-39105500D01*
X75184000Y-39105500D02*
X74567800Y-39721700D01*
X75184000Y-38354000D02*
X75184000Y-39105500D01*
X74772200Y-39517300D02*
X74567800Y-39721700D01*
X62209000Y-32710590D02*
X62694691Y-33196281D01*
X62694691Y-33196281D02*
X63024890Y-33526480D01*
X62209000Y-29845000D02*
X62209000Y-32710590D01*
X68815945Y-35023172D02*
X68815945Y-31475055D01*
X68815945Y-31475055D02*
X69342000Y-30949000D01*
X69342000Y-30949000D02*
X69342000Y-29845000D01*
X66648100Y-40031900D02*
X66648100Y-37191017D01*
X66648100Y-37191017D02*
X68815945Y-35023172D01*
X64676000Y-41529000D02*
X65151000Y-41529000D01*
X65151000Y-41529000D02*
X66648100Y-40031900D01*
X64676000Y-40259000D02*
X65493900Y-40259000D01*
X65493900Y-40259000D02*
X65985431Y-39767469D01*
X65985431Y-36756046D02*
X68307934Y-34433543D01*
X65985431Y-39767469D02*
X65985431Y-36756046D01*
X68307934Y-34433543D02*
X68307934Y-28935066D01*
X68307934Y-28935066D02*
X69342000Y-27901000D01*
X69342000Y-27901000D02*
X69342000Y-26797000D01*
X59276000Y-41529000D02*
X60305000Y-41529000D01*
X60305000Y-41529000D02*
X61498965Y-40335035D01*
X61856000Y-28321000D02*
X63212000Y-28321000D01*
X61498965Y-40335035D02*
X61498965Y-39085277D01*
X61498965Y-39085277D02*
X61025007Y-38611319D01*
X61025007Y-38611319D02*
X61025007Y-36216728D01*
X64336000Y-27197000D02*
X64336000Y-26797000D01*
X61025007Y-36216728D02*
X59996618Y-35188339D01*
X59996618Y-35188339D02*
X59996618Y-33931818D01*
X59996618Y-33931818D02*
X60878100Y-33050336D01*
X60878100Y-33050336D02*
X60878100Y-29298900D01*
X60878100Y-29298900D02*
X61856000Y-28321000D01*
X63212000Y-28321000D02*
X64336000Y-27197000D01*
M02*
