G04 #@! TF.FileFunction,Soldermask,Bot*
%FSLAX46Y46*%
G04 Gerber Fmt 4.6, Leading zero omitted, Abs format (unit mm)*
G04 Created by KiCad (PCBNEW 4.0.5+dfsg1-4) date Mon Oct 16 20:34:33 2017*
%MOMM*%
%LPD*%
G01*
G04 APERTURE LIST*
%ADD10C,0.100000*%
%ADD11C,1.314400*%
%ADD12R,1.416000X1.416000*%
%ADD13C,1.416000*%
%ADD14R,1.314400X1.416000*%
%ADD15O,1.314400X1.416000*%
%ADD16O,1.416000X1.314400*%
%ADD17R,1.416000X1.314400*%
%ADD18R,1.300000X2.100000*%
%ADD19R,1.400760X1.901140*%
%ADD20R,2.398980X3.399740*%
%ADD21R,2.100000X1.300000*%
%ADD22C,2.500000*%
%ADD23R,1.400000X1.650000*%
%ADD24R,1.200000X1.300000*%
%ADD25R,1.950000X1.000000*%
%ADD26R,3.000000X2.000000*%
G04 APERTURE END LIST*
D10*
D11*
X60421520Y-44668440D03*
D12*
X70358000Y-46228000D03*
D13*
X72898000Y-46228000D03*
D12*
X62230000Y-46228000D03*
D13*
X64770000Y-46228000D03*
D14*
X58420000Y-46228000D03*
D15*
X60420000Y-46228000D03*
D14*
X56642000Y-46228000D03*
D13*
X54102000Y-46228000D03*
D11*
X74930000Y-29369000D03*
X74930000Y-31369000D03*
D14*
X68548000Y-46228000D03*
D15*
X66548000Y-46228000D03*
D11*
X51816000Y-47244000D03*
X75184000Y-44704000D03*
X75184000Y-47244000D03*
X66802000Y-49784000D03*
X63500000Y-49784000D03*
X60198000Y-49784000D03*
D16*
X57404000Y-49784000D03*
X54610000Y-49784000D03*
X51816000Y-49784000D03*
D17*
X75184000Y-49784000D03*
X72390000Y-49784000D03*
X69596000Y-49784000D03*
D18*
X59256000Y-26797000D03*
X62156000Y-26797000D03*
D19*
X68618100Y-38996620D03*
X70119240Y-38996620D03*
X71620380Y-38996620D03*
D20*
X70119240Y-41948100D03*
D21*
X75184000Y-33274000D03*
X75184000Y-37338000D03*
X75184000Y-38633400D03*
X75184000Y-42697400D03*
D22*
X74866500Y-26733500D03*
D23*
X71723000Y-32893000D03*
X69723000Y-32893000D03*
X66897000Y-32893000D03*
X64897000Y-32893000D03*
D24*
X59057500Y-34598100D03*
X60957500Y-34598100D03*
X60007500Y-36598100D03*
D18*
X54250000Y-26797000D03*
X57150000Y-26797000D03*
X54229000Y-29845000D03*
X57129000Y-29845000D03*
X59309000Y-29845000D03*
X62209000Y-29845000D03*
X64410000Y-29845000D03*
X67310000Y-29845000D03*
X54229000Y-32893000D03*
X57129000Y-32893000D03*
X69342000Y-29845000D03*
X72242000Y-29845000D03*
X69342000Y-26797000D03*
X72242000Y-26797000D03*
X64348700Y-26873200D03*
X67248700Y-26873200D03*
D25*
X59276000Y-42799000D03*
X59276000Y-41529000D03*
X59276000Y-40259000D03*
X59276000Y-38989000D03*
X64676000Y-38989000D03*
X64676000Y-40259000D03*
X64676000Y-41529000D03*
X64676000Y-42799000D03*
D22*
X52133500Y-26733500D03*
D26*
X55914700Y-42164000D03*
X52314700Y-42164000D03*
X52278000Y-37084000D03*
X55878000Y-37084000D03*
M02*
