G04 #@! TF.FileFunction,Legend,Top*
%FSLAX46Y46*%
G04 Gerber Fmt 4.6, Leading zero omitted, Abs format (unit mm)*
G04 Created by KiCad (PCBNEW 4.0.5+dfsg1-4) date Thu Oct 12 19:57:19 2017*
%MOMM*%
%LPD*%
G01*
G04 APERTURE LIST*
%ADD10C,0.100000*%
%ADD11C,0.150000*%
%ADD12C,0.152400*%
G04 APERTURE END LIST*
D10*
D11*
X56841000Y-44914000D02*
X56841000Y-45114000D01*
X56841000Y-47508000D02*
X56841000Y-47328000D01*
X53613256Y-47197643D02*
G75*
G03X56841000Y-47514000I1727744J1003643D01*
G01*
X54288994Y-47327068D02*
G75*
G03X56392000Y-47328000I1052006J1133068D01*
G01*
X56828220Y-44887274D02*
G75*
G03X53591000Y-45234000I-1497220J-1306726D01*
G01*
X56354889Y-45114747D02*
G75*
G03X54307000Y-45134000I-1013889J-1079253D01*
G01*
X70159000Y-47542000D02*
X70159000Y-47342000D01*
X70159000Y-44948000D02*
X70159000Y-45128000D01*
X73386744Y-45258357D02*
G75*
G03X70159000Y-44942000I-1727744J-1003643D01*
G01*
X72711006Y-45128932D02*
G75*
G03X70608000Y-45128000I-1052006J-1133068D01*
G01*
X70171780Y-47568726D02*
G75*
G03X73409000Y-47222000I1497220J1306726D01*
G01*
X70645111Y-47341253D02*
G75*
G03X72693000Y-47322000I1013889J1079253D01*
G01*
X62031000Y-47542000D02*
X62031000Y-47342000D01*
X62031000Y-44948000D02*
X62031000Y-45128000D01*
X65258744Y-45258357D02*
G75*
G03X62031000Y-44942000I-1727744J-1003643D01*
G01*
X64583006Y-45128932D02*
G75*
G03X62480000Y-45128000I-1052006J-1133068D01*
G01*
X62043780Y-47568726D02*
G75*
G03X65281000Y-47222000I1497220J1306726D01*
G01*
X62517111Y-47341253D02*
G75*
G03X64565000Y-47322000I1013889J1079253D01*
G01*
X67548000Y-45228000D02*
X67548000Y-47228000D01*
X67548000Y-47228000D02*
X65548000Y-47228000D01*
X65548000Y-47228000D02*
X65548000Y-45228000D01*
X65548000Y-45228000D02*
X67548000Y-45228000D01*
X68548000Y-44728000D02*
X70048000Y-44728000D01*
X70048000Y-44728000D02*
X70048000Y-46228000D01*
X59420000Y-47228000D02*
X59420000Y-45228000D01*
X59420000Y-45228000D02*
X61420000Y-45228000D01*
X61420000Y-45228000D02*
X61420000Y-47228000D01*
X61420000Y-47228000D02*
X59420000Y-47228000D01*
X58420000Y-47728000D02*
X56920000Y-47728000D01*
X56920000Y-47728000D02*
X56920000Y-46228000D01*
X73930000Y-27416000D02*
X75930000Y-27416000D01*
X75930000Y-27416000D02*
X75930000Y-29416000D01*
X75930000Y-29416000D02*
X73930000Y-29416000D01*
X73930000Y-29416000D02*
X73930000Y-27416000D01*
X73430000Y-26416000D02*
X73430000Y-24916000D01*
X73430000Y-24916000D02*
X74930000Y-24916000D01*
X68352000Y-48234000D02*
X68352000Y-49784000D01*
X65252000Y-49784000D02*
X65252000Y-48234000D01*
X65252000Y-48234000D02*
X68352000Y-48234000D01*
X65532000Y-51054000D02*
X68072000Y-51054000D01*
X76734000Y-43154000D02*
X76734000Y-44704000D01*
X73634000Y-44704000D02*
X73634000Y-43154000D01*
X73634000Y-43154000D02*
X76734000Y-43154000D01*
X73914000Y-45974000D02*
X76454000Y-45974000D01*
X61748000Y-48234000D02*
X61748000Y-49784000D01*
X58648000Y-49784000D02*
X58648000Y-48234000D01*
X58648000Y-48234000D02*
X61748000Y-48234000D01*
X58928000Y-51054000D02*
X61468000Y-51054000D01*
X65050000Y-48234000D02*
X65050000Y-49784000D01*
X61950000Y-49784000D02*
X61950000Y-48234000D01*
X61950000Y-48234000D02*
X65050000Y-48234000D01*
X62230000Y-51054000D02*
X64770000Y-51054000D01*
X53366000Y-45694000D02*
X53366000Y-47244000D01*
X50266000Y-47244000D02*
X50266000Y-45694000D01*
X50266000Y-45694000D02*
X53366000Y-45694000D01*
X50546000Y-48514000D02*
X53086000Y-48514000D01*
X76734000Y-45694000D02*
X76734000Y-47244000D01*
X73634000Y-47244000D02*
X73634000Y-45694000D01*
X73634000Y-45694000D02*
X76734000Y-45694000D01*
X73914000Y-48514000D02*
X76454000Y-48514000D01*
X53366000Y-48234000D02*
X53366000Y-49784000D01*
X50266000Y-49784000D02*
X50266000Y-48234000D01*
X50266000Y-48234000D02*
X53366000Y-48234000D01*
X50546000Y-51054000D02*
X53086000Y-51054000D01*
X56160000Y-48234000D02*
X56160000Y-49784000D01*
X53060000Y-49784000D02*
X53060000Y-48234000D01*
X53060000Y-48234000D02*
X56160000Y-48234000D01*
X53340000Y-51054000D02*
X55880000Y-51054000D01*
X58954000Y-48234000D02*
X58954000Y-49784000D01*
X55854000Y-49784000D02*
X55854000Y-48234000D01*
X55854000Y-48234000D02*
X58954000Y-48234000D01*
X56134000Y-51054000D02*
X58674000Y-51054000D01*
X71146000Y-48234000D02*
X71146000Y-49784000D01*
X68046000Y-49784000D02*
X68046000Y-48234000D01*
X68046000Y-48234000D02*
X71146000Y-48234000D01*
X68326000Y-51054000D02*
X70866000Y-51054000D01*
X73940000Y-48234000D02*
X73940000Y-49784000D01*
X70840000Y-49784000D02*
X70840000Y-48234000D01*
X70840000Y-48234000D02*
X73940000Y-48234000D01*
X71120000Y-51054000D02*
X73660000Y-51054000D01*
X76734000Y-48234000D02*
X76734000Y-49784000D01*
X73634000Y-49784000D02*
X73634000Y-48234000D01*
X73634000Y-48234000D02*
X76734000Y-48234000D01*
X73914000Y-51054000D02*
X76454000Y-51054000D01*
D12*
X55224000Y-41007000D02*
X55224000Y-41769000D01*
X55224000Y-41769000D02*
X71226000Y-41769000D01*
X71226000Y-41769000D02*
X71226000Y-41007000D01*
D11*
X53993905Y-43620381D02*
X53993905Y-42620381D01*
X54232000Y-42620381D01*
X54374858Y-42668000D01*
X54470096Y-42763238D01*
X54517715Y-42858476D01*
X54565334Y-43048952D01*
X54565334Y-43191810D01*
X54517715Y-43382286D01*
X54470096Y-43477524D01*
X54374858Y-43572762D01*
X54232000Y-43620381D01*
X53993905Y-43620381D01*
X55517715Y-43620381D02*
X54946286Y-43620381D01*
X55232000Y-43620381D02*
X55232000Y-42620381D01*
X55136762Y-42763238D01*
X55041524Y-42858476D01*
X54946286Y-42906095D01*
X58070095Y-44940381D02*
X58070095Y-43940381D01*
X58641524Y-44940381D02*
X58212952Y-44368952D01*
X58641524Y-43940381D02*
X58070095Y-44511810D01*
X71529905Y-49740381D02*
X71529905Y-48740381D01*
X71768000Y-48740381D01*
X71910858Y-48788000D01*
X72006096Y-48883238D01*
X72053715Y-48978476D01*
X72101334Y-49168952D01*
X72101334Y-49311810D01*
X72053715Y-49502286D01*
X72006096Y-49597524D01*
X71910858Y-49692762D01*
X71768000Y-49740381D01*
X71529905Y-49740381D01*
X72482286Y-48835619D02*
X72529905Y-48788000D01*
X72625143Y-48740381D01*
X72863239Y-48740381D01*
X72958477Y-48788000D01*
X73006096Y-48835619D01*
X73053715Y-48930857D01*
X73053715Y-49026095D01*
X73006096Y-49168952D01*
X72434667Y-49740381D01*
X73053715Y-49740381D01*
X68406095Y-48420381D02*
X68406095Y-47420381D01*
X68977524Y-48420381D02*
X68548952Y-47848952D01*
X68977524Y-47420381D02*
X68406095Y-47991810D01*
X63401905Y-49740381D02*
X63401905Y-48740381D01*
X63640000Y-48740381D01*
X63782858Y-48788000D01*
X63878096Y-48883238D01*
X63925715Y-48978476D01*
X63973334Y-49168952D01*
X63973334Y-49311810D01*
X63925715Y-49502286D01*
X63878096Y-49597524D01*
X63782858Y-49692762D01*
X63640000Y-49740381D01*
X63401905Y-49740381D01*
X64306667Y-48740381D02*
X64925715Y-48740381D01*
X64592381Y-49121333D01*
X64735239Y-49121333D01*
X64830477Y-49168952D01*
X64878096Y-49216571D01*
X64925715Y-49311810D01*
X64925715Y-49549905D01*
X64878096Y-49645143D01*
X64830477Y-49692762D01*
X64735239Y-49740381D01*
X64449524Y-49740381D01*
X64354286Y-49692762D01*
X64306667Y-49645143D01*
X60278095Y-48420381D02*
X60278095Y-47420381D01*
X60849524Y-48420381D02*
X60420952Y-47848952D01*
X60849524Y-47420381D02*
X60278095Y-47991810D01*
X64582381Y-33259905D02*
X65391905Y-33259905D01*
X65487143Y-33212286D01*
X65534762Y-33164667D01*
X65582381Y-33069429D01*
X65582381Y-32878952D01*
X65534762Y-32783714D01*
X65487143Y-32736095D01*
X65391905Y-32688476D01*
X64582381Y-32688476D01*
X64677619Y-32259905D02*
X64630000Y-32212286D01*
X64582381Y-32117048D01*
X64582381Y-31878952D01*
X64630000Y-31783714D01*
X64677619Y-31736095D01*
X64772857Y-31688476D01*
X64868095Y-31688476D01*
X65010952Y-31736095D01*
X65582381Y-32307524D01*
X65582381Y-31688476D01*
M02*
