G04 #@! TF.FileFunction,Copper,L2,Bot,Signal*
%FSLAX46Y46*%
G04 Gerber Fmt 4.6, Leading zero omitted, Abs format (unit mm)*
G04 Created by KiCad (PCBNEW 4.0.5+dfsg1-4) date Fri Oct 13 23:10:58 2017*
%MOMM*%
%LPD*%
G01*
G04 APERTURE LIST*
%ADD10C,0.100000*%
%ADD11C,0.254000*%
%ADD12R,0.900000X1.700000*%
%ADD13R,0.914400X1.016000*%
%ADD14O,0.914400X1.016000*%
%ADD15C,1.016000*%
%ADD16R,1.016000X1.016000*%
%ADD17C,0.914400*%
%ADD18R,1.016000X0.914400*%
%ADD19O,1.016000X0.914400*%
%ADD20R,1.000760X1.501140*%
%ADD21R,1.998980X2.999740*%
%ADD22R,1.700000X0.900000*%
%ADD23C,2.100000*%
%ADD24R,1.000000X1.250000*%
%ADD25R,0.800000X0.900000*%
%ADD26R,1.550000X0.600000*%
%ADD27R,2.600000X1.600000*%
%ADD28C,0.660400*%
G04 APERTURE END LIST*
D10*
D11*
X52040971Y-34368618D02*
X52040971Y-34029952D01*
X51508781Y-33884809D02*
X51508781Y-34368618D01*
X52524781Y-34368618D01*
X52524781Y-33884809D01*
X51557162Y-33013952D02*
X51508781Y-33110714D01*
X51508781Y-33304237D01*
X51557162Y-33400999D01*
X51605543Y-33449380D01*
X51702305Y-33497761D01*
X51992590Y-33497761D01*
X52089352Y-33449380D01*
X52137733Y-33400999D01*
X52186114Y-33304237D01*
X52186114Y-33110714D01*
X52137733Y-33013952D01*
X51508781Y-32433380D02*
X51557162Y-32530142D01*
X51605543Y-32578523D01*
X51702305Y-32626904D01*
X51992590Y-32626904D01*
X52089352Y-32578523D01*
X52137733Y-32530142D01*
X52186114Y-32433380D01*
X52186114Y-32288238D01*
X52137733Y-32191476D01*
X52089352Y-32143095D01*
X51992590Y-32094714D01*
X51702305Y-32094714D01*
X51605543Y-32143095D01*
X51557162Y-32191476D01*
X51508781Y-32288238D01*
X51508781Y-32433380D01*
X51895829Y-31659285D02*
X51895829Y-30885190D01*
X52524781Y-30546523D02*
X52524781Y-29965952D01*
X51508781Y-30256237D02*
X52524781Y-30256237D01*
X51557162Y-29240238D02*
X51508781Y-29337000D01*
X51508781Y-29530523D01*
X51557162Y-29627285D01*
X51653924Y-29675666D01*
X52040971Y-29675666D01*
X52137733Y-29627285D01*
X52186114Y-29530523D01*
X52186114Y-29337000D01*
X52137733Y-29240238D01*
X52040971Y-29191857D01*
X51944210Y-29191857D01*
X51847448Y-29675666D01*
X51557162Y-28321000D02*
X51508781Y-28417762D01*
X51508781Y-28611285D01*
X51557162Y-28708047D01*
X51605543Y-28756428D01*
X51702305Y-28804809D01*
X51992590Y-28804809D01*
X52089352Y-28756428D01*
X52137733Y-28708047D01*
X52186114Y-28611285D01*
X52186114Y-28417762D01*
X52137733Y-28321000D01*
D12*
X59256000Y-26797000D03*
X62156000Y-26797000D03*
D13*
X68548000Y-46228000D03*
D14*
X66548000Y-46228000D03*
D13*
X56642000Y-46228000D03*
D15*
X54102000Y-46228000D03*
D16*
X70358000Y-46228000D03*
D15*
X72898000Y-46228000D03*
D16*
X62230000Y-46228000D03*
D15*
X64770000Y-46228000D03*
D13*
X58420000Y-46228000D03*
D14*
X60420000Y-46228000D03*
D17*
X51816000Y-47244000D03*
X75184000Y-44704000D03*
X75184000Y-47244000D03*
D18*
X75184000Y-49784000D03*
X72390000Y-49784000D03*
X69596000Y-49784000D03*
D17*
X66802000Y-49784000D03*
X63500000Y-49784000D03*
X60198000Y-49784000D03*
D19*
X54610000Y-49784000D03*
X57404000Y-49784000D03*
X51816000Y-49784000D03*
D20*
X68577460Y-39080440D03*
X70078600Y-39080440D03*
X71579740Y-39080440D03*
D21*
X70078600Y-42031920D03*
D22*
X75184000Y-33274000D03*
X75184000Y-37338000D03*
X75184000Y-38633400D03*
X75184000Y-42697400D03*
D23*
X74866500Y-26733500D03*
D24*
X71723000Y-32893000D03*
X69723000Y-32893000D03*
X66897000Y-32893000D03*
X64897000Y-32893000D03*
D17*
X74930000Y-29369000D03*
X74930000Y-31369000D03*
D25*
X61910000Y-36687000D03*
X60010000Y-36687000D03*
X60960000Y-34687000D03*
D12*
X54250000Y-26797000D03*
X57150000Y-26797000D03*
X54229000Y-29845000D03*
X57129000Y-29845000D03*
X59309000Y-29845000D03*
X62209000Y-29845000D03*
X64410000Y-29845000D03*
X67310000Y-29845000D03*
X54229000Y-32893000D03*
X57129000Y-32893000D03*
X69342000Y-29845000D03*
X72242000Y-29845000D03*
X69342000Y-26797000D03*
X72242000Y-26797000D03*
X64336000Y-26797000D03*
X67236000Y-26797000D03*
D26*
X59276000Y-42799000D03*
X59276000Y-41529000D03*
X59276000Y-40259000D03*
X59276000Y-38989000D03*
X64676000Y-38989000D03*
X64676000Y-40259000D03*
X64676000Y-41529000D03*
X64676000Y-42799000D03*
D23*
X52133500Y-26733500D03*
D27*
X52326000Y-42164000D03*
X55926000Y-42164000D03*
X52278000Y-37084000D03*
X55878000Y-37084000D03*
D28*
X68481421Y-36700989D03*
X66245014Y-31491722D03*
X58203000Y-27322800D03*
X60683629Y-39475504D03*
X64332989Y-37879128D03*
X65207010Y-49218657D03*
X58380500Y-33300000D03*
X74404410Y-43861631D03*
X60564174Y-26172179D03*
X74980476Y-32791066D03*
X53482100Y-31287600D03*
X61259741Y-27766374D03*
X74567800Y-39721700D03*
X63024890Y-33526480D03*
D11*
X71574100Y-34048200D02*
X71574100Y-36580370D01*
X71574100Y-36580370D02*
X70078600Y-38075870D01*
X70078600Y-38075870D02*
X70078600Y-39080440D01*
X70078600Y-38075870D02*
X69502953Y-37500223D01*
X69502953Y-37500223D02*
X67756824Y-37500223D01*
X63460541Y-34454459D02*
X64897000Y-33018000D01*
X63460541Y-38929841D02*
X63460541Y-34454459D01*
X63519700Y-38989000D02*
X63460541Y-38929841D01*
X64897000Y-33018000D02*
X64897000Y-32893000D01*
X63519700Y-47145000D02*
X65151000Y-47145000D01*
X65669600Y-44688800D02*
X67357200Y-43001200D01*
X65151000Y-47145000D02*
X65669600Y-46626400D01*
X65669600Y-46626400D02*
X65669600Y-44688800D01*
X67357200Y-43001200D02*
X67357200Y-37899847D01*
X67357200Y-37899847D02*
X67756824Y-37500223D01*
X64410000Y-30949000D02*
X64897000Y-31436000D01*
X64410000Y-29845000D02*
X64410000Y-30949000D01*
X64897000Y-32014000D02*
X64897000Y-32893000D01*
X64897000Y-31436000D02*
X64897000Y-32014000D01*
X60420000Y-46228000D02*
X60839300Y-46228000D01*
X63519700Y-47145000D02*
X63519700Y-38989000D01*
X61535000Y-47145000D02*
X63519700Y-47145000D01*
X60839300Y-46449300D02*
X61535000Y-47145000D01*
X60839300Y-46228000D02*
X60839300Y-46449300D01*
X71574100Y-34048200D02*
X71723000Y-33899300D01*
X71723000Y-32893000D02*
X71723000Y-33899300D01*
X64676000Y-38989000D02*
X63519700Y-38989000D01*
X76022201Y-45214698D02*
X76022201Y-45034200D01*
X76022201Y-45034200D02*
X76022201Y-44450000D01*
X76022201Y-48234599D02*
X76022201Y-45034200D01*
X75184000Y-49784000D02*
X75184000Y-49072800D01*
X75184000Y-49072800D02*
X76022201Y-48234599D01*
X75184000Y-37338000D02*
X74493598Y-37338000D01*
X74493598Y-37338000D02*
X73856599Y-37974999D01*
X73856599Y-40063077D02*
X75184000Y-41390478D01*
X75184000Y-41390478D02*
X75184000Y-41993400D01*
X75184000Y-41993400D02*
X75184000Y-42697400D01*
X73856599Y-37974999D02*
X73856599Y-40063077D01*
X68577460Y-39080440D02*
X68577460Y-40085010D01*
X68577460Y-40085010D02*
X68222261Y-40440209D01*
X68222261Y-40440209D02*
X68222261Y-43204622D01*
X68548000Y-43530361D02*
X68548000Y-46228000D01*
X68222261Y-43204622D02*
X68548000Y-43530361D01*
X68548000Y-45338700D02*
X68548000Y-46228000D01*
X59276000Y-42799000D02*
X60773677Y-42799000D01*
X60773677Y-42799000D02*
X62082121Y-41490556D01*
X62082121Y-41490556D02*
X62082121Y-37690421D01*
X62082121Y-37690421D02*
X61910000Y-37518300D01*
X61910000Y-37518300D02*
X61910000Y-36687000D01*
X69723000Y-35459410D02*
X68811620Y-36370790D01*
X68811620Y-36370790D02*
X68481421Y-36700989D01*
X69723000Y-32893000D02*
X69723000Y-35459410D01*
X67236000Y-26797000D02*
X67236000Y-27228903D01*
X66245014Y-31024749D02*
X66245014Y-31491722D01*
X67236000Y-27228903D02*
X66245014Y-28219889D01*
X66245014Y-28219889D02*
X66245014Y-31024749D01*
X66374722Y-31491722D02*
X66245014Y-31491722D01*
X66897000Y-32014000D02*
X66374722Y-31491722D01*
X66897000Y-32893000D02*
X66897000Y-32014000D01*
X66897000Y-32893000D02*
X66897000Y-32768000D01*
X72440800Y-49784000D02*
X72390000Y-49784000D01*
X75184000Y-49618608D02*
X75184000Y-49784000D01*
X67792737Y-46228000D02*
X66348197Y-47672540D01*
X59131200Y-46228000D02*
X58420000Y-46228000D01*
X66348197Y-47672540D02*
X60575740Y-47672540D01*
X60575740Y-47672540D02*
X59131200Y-46228000D01*
X68548000Y-46228000D02*
X67792737Y-46228000D01*
X76022201Y-44301663D02*
X76022201Y-44450000D01*
X76022201Y-43281601D02*
X76022201Y-44450000D01*
X75438000Y-42697400D02*
X76022201Y-43281601D01*
X75184000Y-42697400D02*
X75438000Y-42697400D01*
X52913000Y-39751000D02*
X52278000Y-39116000D01*
X52278000Y-39116000D02*
X52278000Y-37084000D01*
X55926000Y-42164000D02*
X55926000Y-41110000D01*
X55926000Y-41110000D02*
X54567000Y-39751000D01*
X54567000Y-39751000D02*
X54267000Y-39751000D01*
X55319039Y-47045852D02*
X55319039Y-44119800D01*
X55926000Y-42164000D02*
X55926000Y-43218000D01*
X55926000Y-43218000D02*
X55319039Y-43824961D01*
X55319039Y-43824961D02*
X55319039Y-44119800D01*
X52913000Y-39751000D02*
X52578000Y-39416000D01*
X54267000Y-39751000D02*
X52913000Y-39751000D01*
X57719089Y-40424100D02*
X57719089Y-42164000D01*
X59276000Y-42799000D02*
X57871489Y-42799000D01*
X57871489Y-42799000D02*
X57719089Y-42646600D01*
X57719089Y-42646600D02*
X57719089Y-42164000D01*
X59276000Y-40259000D02*
X57884189Y-40259000D01*
X57884189Y-40259000D02*
X57719089Y-40424100D01*
X57107300Y-42164000D02*
X57719089Y-42164000D01*
X58420000Y-46228000D02*
X58420000Y-46990000D01*
X58420000Y-46990000D02*
X57645300Y-47764700D01*
X57645300Y-47764700D02*
X56037887Y-47764700D01*
X56037887Y-47764700D02*
X55319039Y-47045852D01*
X55626000Y-42164000D02*
X56366700Y-42164000D01*
X56366700Y-42164000D02*
X57107300Y-42164000D01*
X57404000Y-49784000D02*
X58166000Y-49784000D01*
X67667181Y-47441364D02*
X69178644Y-47441364D01*
X70256398Y-44627800D02*
X70978751Y-44627800D01*
X58166000Y-49784000D02*
X59769449Y-48180551D01*
X59769449Y-48180551D02*
X66927994Y-48180551D01*
X69178644Y-47441364D02*
X69415000Y-47205008D01*
X70978751Y-44627800D02*
X71842129Y-43764422D01*
X71842129Y-39342829D02*
X71579740Y-39080440D01*
X66927994Y-48180551D02*
X67667181Y-47441364D01*
X69415000Y-47205008D02*
X69415000Y-45469198D01*
X69415000Y-45469198D02*
X70256398Y-44627800D01*
X71842129Y-43764422D02*
X71842129Y-39342829D01*
X52902839Y-47858661D02*
X52902839Y-44107100D01*
X52326000Y-42164000D02*
X52326000Y-43530261D01*
X52326000Y-43530261D02*
X52902839Y-44107100D01*
X51816000Y-49784000D02*
X51816000Y-48945500D01*
X51816000Y-48945500D02*
X52902839Y-47858661D01*
X59256000Y-26797000D02*
X58424700Y-26797000D01*
X57150000Y-26797000D02*
X57981300Y-26797000D01*
X58203000Y-27018700D02*
X57981300Y-26797000D01*
X58203000Y-27018700D02*
X58424700Y-26797000D01*
X58203000Y-27322800D02*
X58203000Y-27018700D01*
X60305000Y-38989000D02*
X60683629Y-39367629D01*
X60683629Y-39367629D02*
X60683629Y-39475504D01*
X59276000Y-38989000D02*
X60305000Y-38989000D01*
X54229000Y-32893000D02*
X54229000Y-34251900D01*
X55878000Y-37084000D02*
X55878000Y-36030000D01*
X55878000Y-36030000D02*
X54229000Y-34381000D01*
X54229000Y-34381000D02*
X54229000Y-34251900D01*
X55878000Y-37084000D02*
X57925000Y-37084000D01*
X59276000Y-38989000D02*
X59276000Y-38435000D01*
X59276000Y-38435000D02*
X57925000Y-37084000D01*
X57925000Y-37084000D02*
X56932000Y-37084000D01*
X56932000Y-37084000D02*
X55578000Y-37084000D01*
X64770000Y-43471100D02*
X64770000Y-46228000D01*
X64097900Y-42799000D02*
X64770000Y-43471100D01*
X64676000Y-42799000D02*
X64097900Y-42799000D01*
X62714900Y-42413312D02*
X60750912Y-44377300D01*
X60750912Y-44377300D02*
X58441900Y-44377300D01*
X60960000Y-34687000D02*
X61614000Y-34687000D01*
X62318000Y-35391000D02*
X62445300Y-35391000D01*
X62445300Y-35391000D02*
X62714900Y-35660600D01*
X56642000Y-46177200D02*
X56642000Y-46228000D01*
X61614000Y-34687000D02*
X62318000Y-35391000D01*
X62714900Y-35660600D02*
X62714900Y-42413312D01*
X58441900Y-44377300D02*
X56642000Y-46177200D01*
X64332989Y-37267813D02*
X64332989Y-37412155D01*
X67310000Y-29845000D02*
X67310000Y-30949000D01*
X67310000Y-30949000D02*
X67799924Y-31438924D01*
X67799924Y-31438924D02*
X67799924Y-33800878D01*
X67799924Y-33800878D02*
X64332989Y-37267813D01*
X64332989Y-37412155D02*
X64332989Y-37879128D01*
X72242000Y-29845000D02*
X72242000Y-30949000D01*
X72242000Y-30949000D02*
X72817141Y-31524141D01*
X72817141Y-31524141D02*
X72817141Y-43770201D01*
X72817141Y-43770201D02*
X70359342Y-46228000D01*
X70359342Y-46228000D02*
X70358000Y-46228000D01*
X72242000Y-26797000D02*
X72242000Y-27901000D01*
X72242000Y-27901000D02*
X73348589Y-29007589D01*
X73348589Y-29007589D02*
X73348589Y-44135818D01*
X73348589Y-44135818D02*
X71811144Y-45673263D01*
X71811144Y-46896690D02*
X70689933Y-48017901D01*
X71811144Y-45673263D02*
X71811144Y-46896690D01*
X65537209Y-48888458D02*
X65207010Y-49218657D01*
X70689933Y-48017901D02*
X68003338Y-48017901D01*
X68003338Y-48017901D02*
X67132781Y-48888458D01*
X67132781Y-48888458D02*
X65537209Y-48888458D01*
X57973500Y-32893000D02*
X58380500Y-33300000D01*
X57129000Y-32893000D02*
X57973500Y-32893000D01*
X66802000Y-49784000D02*
X67622711Y-49784000D01*
X67622711Y-49784000D02*
X68821143Y-48585568D01*
X68821143Y-48585568D02*
X72628995Y-48585568D01*
X74019067Y-44246974D02*
X74074211Y-44191830D01*
X72628995Y-48585568D02*
X74019067Y-47195496D01*
X74019067Y-47195496D02*
X74019067Y-44246974D01*
X74074211Y-44191830D02*
X74404410Y-43861631D01*
X59309000Y-29845000D02*
X59309000Y-36394900D01*
X59309000Y-36394900D02*
X59601100Y-36687000D01*
X59601100Y-36687000D02*
X60010000Y-36687000D01*
X57960300Y-28821727D02*
X58434345Y-28347682D01*
X60564174Y-26639152D02*
X60564174Y-26172179D01*
X60564174Y-27332186D02*
X60564174Y-26639152D01*
X59548678Y-28347682D02*
X60564174Y-27332186D01*
X58434345Y-28347682D02*
X59548678Y-28347682D01*
X57960300Y-29527500D02*
X57960300Y-28821727D01*
X74980476Y-33106037D02*
X74980476Y-32791066D01*
X75107389Y-33232950D02*
X74980476Y-33106037D01*
X75132805Y-33232950D02*
X75107389Y-33232950D01*
X75132805Y-33554805D02*
X75132805Y-33232950D01*
X75184000Y-33606000D02*
X75132805Y-33554805D01*
X75173855Y-33274000D02*
X75132805Y-33232950D01*
X75184000Y-33274000D02*
X75173855Y-33274000D01*
X54250000Y-26797000D02*
X54250000Y-27197000D01*
X54250000Y-27197000D02*
X56898000Y-29845000D01*
X56898000Y-29845000D02*
X57129000Y-29845000D01*
X57960300Y-29845000D02*
X57960300Y-29527500D01*
X57960300Y-29527500D02*
X57960300Y-28937400D01*
X57129000Y-29845000D02*
X57960300Y-29845000D01*
X53482100Y-31287600D02*
X53482100Y-30096600D01*
X53482100Y-30096600D02*
X53733700Y-29845000D01*
X53733700Y-29845000D02*
X54229000Y-29845000D01*
X61259741Y-27299401D02*
X61259741Y-27766374D01*
X62156000Y-26797000D02*
X61452000Y-26797000D01*
X61452000Y-26797000D02*
X61259741Y-26989259D01*
X61259741Y-26989259D02*
X61259741Y-27299401D01*
X75184000Y-38633400D02*
X75184000Y-39105500D01*
X75184000Y-39105500D02*
X74567800Y-39721700D01*
X75184000Y-38354000D02*
X75184000Y-39105500D01*
X74772200Y-39517300D02*
X74567800Y-39721700D01*
X62209000Y-32710590D02*
X62694691Y-33196281D01*
X62694691Y-33196281D02*
X63024890Y-33526480D01*
X62209000Y-29845000D02*
X62209000Y-32710590D01*
X68815945Y-35023172D02*
X68815945Y-31475055D01*
X68815945Y-31475055D02*
X69342000Y-30949000D01*
X69342000Y-30949000D02*
X69342000Y-29845000D01*
X66648100Y-40031900D02*
X66648100Y-37191017D01*
X66648100Y-37191017D02*
X68815945Y-35023172D01*
X64676000Y-41529000D02*
X65151000Y-41529000D01*
X65151000Y-41529000D02*
X66648100Y-40031900D01*
X64676000Y-40259000D02*
X65493900Y-40259000D01*
X65493900Y-40259000D02*
X65985431Y-39767469D01*
X65985431Y-36756046D02*
X68307934Y-34433543D01*
X65985431Y-39767469D02*
X65985431Y-36756046D01*
X68307934Y-34433543D02*
X68307934Y-28935066D01*
X68307934Y-28935066D02*
X69342000Y-27901000D01*
X69342000Y-27901000D02*
X69342000Y-26797000D01*
X59276000Y-41529000D02*
X60305000Y-41529000D01*
X60305000Y-41529000D02*
X61498965Y-40335035D01*
X61856000Y-28321000D02*
X63212000Y-28321000D01*
X61498965Y-40335035D02*
X61498965Y-39085277D01*
X61498965Y-39085277D02*
X61025007Y-38611319D01*
X61025007Y-38611319D02*
X61025007Y-36216728D01*
X64336000Y-27197000D02*
X64336000Y-26797000D01*
X61025007Y-36216728D02*
X59996618Y-35188339D01*
X59996618Y-35188339D02*
X59996618Y-33931818D01*
X59996618Y-33931818D02*
X60878100Y-33050336D01*
X60878100Y-33050336D02*
X60878100Y-29298900D01*
X60878100Y-29298900D02*
X61856000Y-28321000D01*
X63212000Y-28321000D02*
X64336000Y-27197000D01*
G36*
X74408358Y-47761289D02*
X74665358Y-48018738D01*
X75001317Y-48158241D01*
X75365087Y-48158558D01*
X75667800Y-48033479D01*
X75667800Y-48691800D01*
X75469750Y-48691800D01*
X75311000Y-48850550D01*
X75311000Y-49657000D01*
X75331000Y-49657000D01*
X75331000Y-49911000D01*
X75311000Y-49911000D01*
X75311000Y-49931000D01*
X75057000Y-49931000D01*
X75057000Y-49911000D01*
X74199750Y-49911000D01*
X74041000Y-50069750D01*
X74041000Y-50267800D01*
X73533000Y-50267800D01*
X73533000Y-50069750D01*
X73374250Y-49911000D01*
X72517000Y-49911000D01*
X72517000Y-49931000D01*
X72263000Y-49931000D01*
X72263000Y-49911000D01*
X71405750Y-49911000D01*
X71247000Y-50069750D01*
X71247000Y-50267800D01*
X70739000Y-50267800D01*
X70739000Y-50069750D01*
X70580250Y-49911000D01*
X69723000Y-49911000D01*
X69723000Y-49931000D01*
X69469000Y-49931000D01*
X69469000Y-49911000D01*
X68611750Y-49911000D01*
X68453000Y-50069750D01*
X68453000Y-50267800D01*
X67929981Y-50267800D01*
X68035803Y-50197092D01*
X68593823Y-49639073D01*
X68611750Y-49657000D01*
X69469000Y-49657000D01*
X69469000Y-49637000D01*
X69723000Y-49637000D01*
X69723000Y-49657000D01*
X70580250Y-49657000D01*
X70739000Y-49498250D01*
X70739000Y-49200490D01*
X70726275Y-49169768D01*
X71259725Y-49169768D01*
X71247000Y-49200490D01*
X71247000Y-49498250D01*
X71405750Y-49657000D01*
X72263000Y-49657000D01*
X72263000Y-49637000D01*
X72517000Y-49637000D01*
X72517000Y-49657000D01*
X73374250Y-49657000D01*
X73533000Y-49498250D01*
X73533000Y-49200490D01*
X74041000Y-49200490D01*
X74041000Y-49498250D01*
X74199750Y-49657000D01*
X75057000Y-49657000D01*
X75057000Y-48850550D01*
X74898250Y-48691800D01*
X74549691Y-48691800D01*
X74316302Y-48788473D01*
X74137673Y-48967101D01*
X74041000Y-49200490D01*
X73533000Y-49200490D01*
X73436327Y-48967101D01*
X73257698Y-48788473D01*
X73253863Y-48786884D01*
X74370670Y-47670077D01*
X74408358Y-47761289D01*
X74408358Y-47761289D01*
G37*
X74408358Y-47761289D02*
X74665358Y-48018738D01*
X75001317Y-48158241D01*
X75365087Y-48158558D01*
X75667800Y-48033479D01*
X75667800Y-48691800D01*
X75469750Y-48691800D01*
X75311000Y-48850550D01*
X75311000Y-49657000D01*
X75331000Y-49657000D01*
X75331000Y-49911000D01*
X75311000Y-49911000D01*
X75311000Y-49931000D01*
X75057000Y-49931000D01*
X75057000Y-49911000D01*
X74199750Y-49911000D01*
X74041000Y-50069750D01*
X74041000Y-50267800D01*
X73533000Y-50267800D01*
X73533000Y-50069750D01*
X73374250Y-49911000D01*
X72517000Y-49911000D01*
X72517000Y-49931000D01*
X72263000Y-49931000D01*
X72263000Y-49911000D01*
X71405750Y-49911000D01*
X71247000Y-50069750D01*
X71247000Y-50267800D01*
X70739000Y-50267800D01*
X70739000Y-50069750D01*
X70580250Y-49911000D01*
X69723000Y-49911000D01*
X69723000Y-49931000D01*
X69469000Y-49931000D01*
X69469000Y-49911000D01*
X68611750Y-49911000D01*
X68453000Y-50069750D01*
X68453000Y-50267800D01*
X67929981Y-50267800D01*
X68035803Y-50197092D01*
X68593823Y-49639073D01*
X68611750Y-49657000D01*
X69469000Y-49657000D01*
X69469000Y-49637000D01*
X69723000Y-49637000D01*
X69723000Y-49657000D01*
X70580250Y-49657000D01*
X70739000Y-49498250D01*
X70739000Y-49200490D01*
X70726275Y-49169768D01*
X71259725Y-49169768D01*
X71247000Y-49200490D01*
X71247000Y-49498250D01*
X71405750Y-49657000D01*
X72263000Y-49657000D01*
X72263000Y-49637000D01*
X72517000Y-49637000D01*
X72517000Y-49657000D01*
X73374250Y-49657000D01*
X73533000Y-49498250D01*
X73533000Y-49200490D01*
X74041000Y-49200490D01*
X74041000Y-49498250D01*
X74199750Y-49657000D01*
X75057000Y-49657000D01*
X75057000Y-48850550D01*
X74898250Y-48691800D01*
X74549691Y-48691800D01*
X74316302Y-48788473D01*
X74137673Y-48967101D01*
X74041000Y-49200490D01*
X73533000Y-49200490D01*
X73436327Y-48967101D01*
X73257698Y-48788473D01*
X73253863Y-48786884D01*
X74370670Y-47670077D01*
X74408358Y-47761289D01*
G36*
X53312843Y-32069903D02*
X53312843Y-33743000D01*
X53344723Y-33912428D01*
X53444855Y-34068038D01*
X53597639Y-34172430D01*
X53644800Y-34181980D01*
X53644800Y-34381000D01*
X53689270Y-34604564D01*
X53724378Y-34657107D01*
X53815908Y-34794092D01*
X54839659Y-35817843D01*
X54578000Y-35817843D01*
X54408572Y-35849723D01*
X54252962Y-35949855D01*
X54174486Y-36064709D01*
X54116327Y-35924301D01*
X53937698Y-35745673D01*
X53704309Y-35649000D01*
X52563750Y-35649000D01*
X52405000Y-35807750D01*
X52405000Y-36957000D01*
X52425000Y-36957000D01*
X52425000Y-37211000D01*
X52405000Y-37211000D01*
X52405000Y-38360250D01*
X52563750Y-38519000D01*
X53704309Y-38519000D01*
X53937698Y-38422327D01*
X54116327Y-38243699D01*
X54175004Y-38102040D01*
X54243855Y-38209038D01*
X54396639Y-38313430D01*
X54578000Y-38350157D01*
X57178000Y-38350157D01*
X57347428Y-38318277D01*
X57503038Y-38218145D01*
X57607430Y-38065361D01*
X57644157Y-37884000D01*
X57644157Y-37668200D01*
X57683016Y-37668200D01*
X58293827Y-38279011D01*
X58175962Y-38354855D01*
X58071570Y-38507639D01*
X58034843Y-38689000D01*
X58034843Y-39289000D01*
X58066723Y-39458428D01*
X58081141Y-39480834D01*
X57962673Y-39599301D01*
X57866000Y-39832690D01*
X57866000Y-39973250D01*
X58024750Y-40132000D01*
X59149000Y-40132000D01*
X59149000Y-40112000D01*
X59403000Y-40112000D01*
X59403000Y-40132000D01*
X59423000Y-40132000D01*
X59423000Y-40386000D01*
X59403000Y-40386000D01*
X59403000Y-40406000D01*
X59149000Y-40406000D01*
X59149000Y-40386000D01*
X58024750Y-40386000D01*
X57866000Y-40544750D01*
X57866000Y-40685310D01*
X57962673Y-40918699D01*
X58079706Y-41035731D01*
X58071570Y-41047639D01*
X58034843Y-41229000D01*
X58034843Y-41829000D01*
X58066723Y-41998428D01*
X58081141Y-42020834D01*
X57962673Y-42139301D01*
X57866000Y-42372690D01*
X57866000Y-42513250D01*
X58024750Y-42672000D01*
X59149000Y-42672000D01*
X59149000Y-42652000D01*
X59403000Y-42652000D01*
X59403000Y-42672000D01*
X60527250Y-42672000D01*
X60686000Y-42513250D01*
X60686000Y-42372690D01*
X60589327Y-42139301D01*
X60520383Y-42070357D01*
X60528564Y-42068730D01*
X60718092Y-41942092D01*
X61912054Y-40748129D01*
X61912057Y-40748127D01*
X62038695Y-40558599D01*
X62083165Y-40335035D01*
X62083165Y-39085277D01*
X62038695Y-38861713D01*
X61912057Y-38672185D01*
X61609207Y-38369335D01*
X61609207Y-37772000D01*
X61624250Y-37772000D01*
X61783000Y-37613250D01*
X61783000Y-36814000D01*
X61763000Y-36814000D01*
X61763000Y-36560000D01*
X61783000Y-36560000D01*
X61783000Y-36540000D01*
X62037000Y-36540000D01*
X62037000Y-36560000D01*
X62057000Y-36560000D01*
X62057000Y-36814000D01*
X62037000Y-36814000D01*
X62037000Y-37613250D01*
X62130700Y-37706950D01*
X62130700Y-42171329D01*
X60508928Y-43793100D01*
X58441900Y-43793100D01*
X58218336Y-43837570D01*
X58106562Y-43912255D01*
X58028808Y-43964208D01*
X56739173Y-45253843D01*
X56184800Y-45253843D01*
X56015372Y-45285723D01*
X55859762Y-45385855D01*
X55755370Y-45538639D01*
X55718643Y-45720000D01*
X55718643Y-46736000D01*
X55750523Y-46905428D01*
X55850655Y-47061038D01*
X56003439Y-47165430D01*
X56184800Y-47202157D01*
X57099200Y-47202157D01*
X57268628Y-47170277D01*
X57416067Y-47075403D01*
X57424473Y-47095698D01*
X57603101Y-47274327D01*
X57836490Y-47371000D01*
X58134250Y-47371000D01*
X58293000Y-47212250D01*
X58293000Y-46355000D01*
X58273000Y-46355000D01*
X58273000Y-46101000D01*
X58293000Y-46101000D01*
X58293000Y-46081000D01*
X58547000Y-46081000D01*
X58547000Y-46101000D01*
X58567000Y-46101000D01*
X58567000Y-46355000D01*
X58547000Y-46355000D01*
X58547000Y-47212250D01*
X58705750Y-47371000D01*
X59003510Y-47371000D01*
X59236899Y-47274327D01*
X59415527Y-47095698D01*
X59512200Y-46862309D01*
X59512200Y-46513750D01*
X59353452Y-46355002D01*
X59512200Y-46355002D01*
X59512200Y-46330889D01*
X59575205Y-46647635D01*
X59773422Y-46944287D01*
X60070074Y-47142504D01*
X60420000Y-47212109D01*
X60716873Y-47153057D01*
X61121908Y-47558092D01*
X61179167Y-47596351D01*
X59769449Y-47596351D01*
X59545885Y-47640821D01*
X59390362Y-47744738D01*
X59356357Y-47767459D01*
X58040024Y-49083792D01*
X57823635Y-48939205D01*
X57473709Y-48869600D01*
X57334291Y-48869600D01*
X56984365Y-48939205D01*
X56687713Y-49137422D01*
X56489496Y-49434074D01*
X56419891Y-49784000D01*
X56489496Y-50133926D01*
X56578948Y-50267800D01*
X55435052Y-50267800D01*
X55524504Y-50133926D01*
X55594109Y-49784000D01*
X55524504Y-49434074D01*
X55326287Y-49137422D01*
X55029635Y-48939205D01*
X54679709Y-48869600D01*
X54540291Y-48869600D01*
X54190365Y-48939205D01*
X53893713Y-49137422D01*
X53695496Y-49434074D01*
X53625891Y-49784000D01*
X53695496Y-50133926D01*
X53784948Y-50267800D01*
X52641052Y-50267800D01*
X52730504Y-50133926D01*
X52800109Y-49784000D01*
X52730504Y-49434074D01*
X52532287Y-49137422D01*
X52483117Y-49104567D01*
X53315928Y-48271755D01*
X53315931Y-48271753D01*
X53442569Y-48082225D01*
X53487039Y-47858661D01*
X53487039Y-46978156D01*
X53554544Y-47045779D01*
X53909168Y-47193032D01*
X54293148Y-47193367D01*
X54648027Y-47046734D01*
X54919779Y-46775456D01*
X55067032Y-46420832D01*
X55067367Y-46036852D01*
X54920734Y-45681973D01*
X54649456Y-45410221D01*
X54294832Y-45262968D01*
X53910852Y-45262633D01*
X53555973Y-45409266D01*
X53487039Y-45478080D01*
X53487039Y-44107105D01*
X53487040Y-44107100D01*
X53442570Y-43883537D01*
X53374992Y-43782400D01*
X53315931Y-43694008D01*
X53315928Y-43694006D01*
X53052079Y-43430157D01*
X53626000Y-43430157D01*
X53795428Y-43398277D01*
X53951038Y-43298145D01*
X54029514Y-43183291D01*
X54087673Y-43323699D01*
X54266302Y-43502327D01*
X54499691Y-43599000D01*
X55640250Y-43599000D01*
X55799000Y-43440250D01*
X55799000Y-42291000D01*
X56053000Y-42291000D01*
X56053000Y-43440250D01*
X56211750Y-43599000D01*
X57352309Y-43599000D01*
X57585698Y-43502327D01*
X57764327Y-43323699D01*
X57861000Y-43090310D01*
X57861000Y-43084750D01*
X57866000Y-43084750D01*
X57866000Y-43225310D01*
X57962673Y-43458699D01*
X58141302Y-43637327D01*
X58374691Y-43734000D01*
X58990250Y-43734000D01*
X59149000Y-43575250D01*
X59149000Y-42926000D01*
X59403000Y-42926000D01*
X59403000Y-43575250D01*
X59561750Y-43734000D01*
X60177309Y-43734000D01*
X60410698Y-43637327D01*
X60589327Y-43458699D01*
X60686000Y-43225310D01*
X60686000Y-43084750D01*
X60527250Y-42926000D01*
X59403000Y-42926000D01*
X59149000Y-42926000D01*
X58024750Y-42926000D01*
X57866000Y-43084750D01*
X57861000Y-43084750D01*
X57861000Y-42449750D01*
X57702250Y-42291000D01*
X56053000Y-42291000D01*
X55799000Y-42291000D01*
X55779000Y-42291000D01*
X55779000Y-42037000D01*
X55799000Y-42037000D01*
X55799000Y-40887750D01*
X56053000Y-40887750D01*
X56053000Y-42037000D01*
X57702250Y-42037000D01*
X57861000Y-41878250D01*
X57861000Y-41237690D01*
X57764327Y-41004301D01*
X57585698Y-40825673D01*
X57352309Y-40729000D01*
X56211750Y-40729000D01*
X56053000Y-40887750D01*
X55799000Y-40887750D01*
X55640250Y-40729000D01*
X54499691Y-40729000D01*
X54266302Y-40825673D01*
X54087673Y-41004301D01*
X54028996Y-41145960D01*
X53960145Y-41038962D01*
X53807361Y-40934570D01*
X53626000Y-40897843D01*
X51332200Y-40897843D01*
X51332200Y-38519000D01*
X51992250Y-38519000D01*
X52151000Y-38360250D01*
X52151000Y-37211000D01*
X52131000Y-37211000D01*
X52131000Y-36957000D01*
X52151000Y-36957000D01*
X52151000Y-35807750D01*
X51992250Y-35649000D01*
X51332200Y-35649000D01*
X51332200Y-35067724D01*
X53263800Y-35067724D01*
X53263800Y-32049538D01*
X53312843Y-32069903D01*
X53312843Y-32069903D01*
G37*
X53312843Y-32069903D02*
X53312843Y-33743000D01*
X53344723Y-33912428D01*
X53444855Y-34068038D01*
X53597639Y-34172430D01*
X53644800Y-34181980D01*
X53644800Y-34381000D01*
X53689270Y-34604564D01*
X53724378Y-34657107D01*
X53815908Y-34794092D01*
X54839659Y-35817843D01*
X54578000Y-35817843D01*
X54408572Y-35849723D01*
X54252962Y-35949855D01*
X54174486Y-36064709D01*
X54116327Y-35924301D01*
X53937698Y-35745673D01*
X53704309Y-35649000D01*
X52563750Y-35649000D01*
X52405000Y-35807750D01*
X52405000Y-36957000D01*
X52425000Y-36957000D01*
X52425000Y-37211000D01*
X52405000Y-37211000D01*
X52405000Y-38360250D01*
X52563750Y-38519000D01*
X53704309Y-38519000D01*
X53937698Y-38422327D01*
X54116327Y-38243699D01*
X54175004Y-38102040D01*
X54243855Y-38209038D01*
X54396639Y-38313430D01*
X54578000Y-38350157D01*
X57178000Y-38350157D01*
X57347428Y-38318277D01*
X57503038Y-38218145D01*
X57607430Y-38065361D01*
X57644157Y-37884000D01*
X57644157Y-37668200D01*
X57683016Y-37668200D01*
X58293827Y-38279011D01*
X58175962Y-38354855D01*
X58071570Y-38507639D01*
X58034843Y-38689000D01*
X58034843Y-39289000D01*
X58066723Y-39458428D01*
X58081141Y-39480834D01*
X57962673Y-39599301D01*
X57866000Y-39832690D01*
X57866000Y-39973250D01*
X58024750Y-40132000D01*
X59149000Y-40132000D01*
X59149000Y-40112000D01*
X59403000Y-40112000D01*
X59403000Y-40132000D01*
X59423000Y-40132000D01*
X59423000Y-40386000D01*
X59403000Y-40386000D01*
X59403000Y-40406000D01*
X59149000Y-40406000D01*
X59149000Y-40386000D01*
X58024750Y-40386000D01*
X57866000Y-40544750D01*
X57866000Y-40685310D01*
X57962673Y-40918699D01*
X58079706Y-41035731D01*
X58071570Y-41047639D01*
X58034843Y-41229000D01*
X58034843Y-41829000D01*
X58066723Y-41998428D01*
X58081141Y-42020834D01*
X57962673Y-42139301D01*
X57866000Y-42372690D01*
X57866000Y-42513250D01*
X58024750Y-42672000D01*
X59149000Y-42672000D01*
X59149000Y-42652000D01*
X59403000Y-42652000D01*
X59403000Y-42672000D01*
X60527250Y-42672000D01*
X60686000Y-42513250D01*
X60686000Y-42372690D01*
X60589327Y-42139301D01*
X60520383Y-42070357D01*
X60528564Y-42068730D01*
X60718092Y-41942092D01*
X61912054Y-40748129D01*
X61912057Y-40748127D01*
X62038695Y-40558599D01*
X62083165Y-40335035D01*
X62083165Y-39085277D01*
X62038695Y-38861713D01*
X61912057Y-38672185D01*
X61609207Y-38369335D01*
X61609207Y-37772000D01*
X61624250Y-37772000D01*
X61783000Y-37613250D01*
X61783000Y-36814000D01*
X61763000Y-36814000D01*
X61763000Y-36560000D01*
X61783000Y-36560000D01*
X61783000Y-36540000D01*
X62037000Y-36540000D01*
X62037000Y-36560000D01*
X62057000Y-36560000D01*
X62057000Y-36814000D01*
X62037000Y-36814000D01*
X62037000Y-37613250D01*
X62130700Y-37706950D01*
X62130700Y-42171329D01*
X60508928Y-43793100D01*
X58441900Y-43793100D01*
X58218336Y-43837570D01*
X58106562Y-43912255D01*
X58028808Y-43964208D01*
X56739173Y-45253843D01*
X56184800Y-45253843D01*
X56015372Y-45285723D01*
X55859762Y-45385855D01*
X55755370Y-45538639D01*
X55718643Y-45720000D01*
X55718643Y-46736000D01*
X55750523Y-46905428D01*
X55850655Y-47061038D01*
X56003439Y-47165430D01*
X56184800Y-47202157D01*
X57099200Y-47202157D01*
X57268628Y-47170277D01*
X57416067Y-47075403D01*
X57424473Y-47095698D01*
X57603101Y-47274327D01*
X57836490Y-47371000D01*
X58134250Y-47371000D01*
X58293000Y-47212250D01*
X58293000Y-46355000D01*
X58273000Y-46355000D01*
X58273000Y-46101000D01*
X58293000Y-46101000D01*
X58293000Y-46081000D01*
X58547000Y-46081000D01*
X58547000Y-46101000D01*
X58567000Y-46101000D01*
X58567000Y-46355000D01*
X58547000Y-46355000D01*
X58547000Y-47212250D01*
X58705750Y-47371000D01*
X59003510Y-47371000D01*
X59236899Y-47274327D01*
X59415527Y-47095698D01*
X59512200Y-46862309D01*
X59512200Y-46513750D01*
X59353452Y-46355002D01*
X59512200Y-46355002D01*
X59512200Y-46330889D01*
X59575205Y-46647635D01*
X59773422Y-46944287D01*
X60070074Y-47142504D01*
X60420000Y-47212109D01*
X60716873Y-47153057D01*
X61121908Y-47558092D01*
X61179167Y-47596351D01*
X59769449Y-47596351D01*
X59545885Y-47640821D01*
X59390362Y-47744738D01*
X59356357Y-47767459D01*
X58040024Y-49083792D01*
X57823635Y-48939205D01*
X57473709Y-48869600D01*
X57334291Y-48869600D01*
X56984365Y-48939205D01*
X56687713Y-49137422D01*
X56489496Y-49434074D01*
X56419891Y-49784000D01*
X56489496Y-50133926D01*
X56578948Y-50267800D01*
X55435052Y-50267800D01*
X55524504Y-50133926D01*
X55594109Y-49784000D01*
X55524504Y-49434074D01*
X55326287Y-49137422D01*
X55029635Y-48939205D01*
X54679709Y-48869600D01*
X54540291Y-48869600D01*
X54190365Y-48939205D01*
X53893713Y-49137422D01*
X53695496Y-49434074D01*
X53625891Y-49784000D01*
X53695496Y-50133926D01*
X53784948Y-50267800D01*
X52641052Y-50267800D01*
X52730504Y-50133926D01*
X52800109Y-49784000D01*
X52730504Y-49434074D01*
X52532287Y-49137422D01*
X52483117Y-49104567D01*
X53315928Y-48271755D01*
X53315931Y-48271753D01*
X53442569Y-48082225D01*
X53487039Y-47858661D01*
X53487039Y-46978156D01*
X53554544Y-47045779D01*
X53909168Y-47193032D01*
X54293148Y-47193367D01*
X54648027Y-47046734D01*
X54919779Y-46775456D01*
X55067032Y-46420832D01*
X55067367Y-46036852D01*
X54920734Y-45681973D01*
X54649456Y-45410221D01*
X54294832Y-45262968D01*
X53910852Y-45262633D01*
X53555973Y-45409266D01*
X53487039Y-45478080D01*
X53487039Y-44107105D01*
X53487040Y-44107100D01*
X53442570Y-43883537D01*
X53374992Y-43782400D01*
X53315931Y-43694008D01*
X53315928Y-43694006D01*
X53052079Y-43430157D01*
X53626000Y-43430157D01*
X53795428Y-43398277D01*
X53951038Y-43298145D01*
X54029514Y-43183291D01*
X54087673Y-43323699D01*
X54266302Y-43502327D01*
X54499691Y-43599000D01*
X55640250Y-43599000D01*
X55799000Y-43440250D01*
X55799000Y-42291000D01*
X56053000Y-42291000D01*
X56053000Y-43440250D01*
X56211750Y-43599000D01*
X57352309Y-43599000D01*
X57585698Y-43502327D01*
X57764327Y-43323699D01*
X57861000Y-43090310D01*
X57861000Y-43084750D01*
X57866000Y-43084750D01*
X57866000Y-43225310D01*
X57962673Y-43458699D01*
X58141302Y-43637327D01*
X58374691Y-43734000D01*
X58990250Y-43734000D01*
X59149000Y-43575250D01*
X59149000Y-42926000D01*
X59403000Y-42926000D01*
X59403000Y-43575250D01*
X59561750Y-43734000D01*
X60177309Y-43734000D01*
X60410698Y-43637327D01*
X60589327Y-43458699D01*
X60686000Y-43225310D01*
X60686000Y-43084750D01*
X60527250Y-42926000D01*
X59403000Y-42926000D01*
X59149000Y-42926000D01*
X58024750Y-42926000D01*
X57866000Y-43084750D01*
X57861000Y-43084750D01*
X57861000Y-42449750D01*
X57702250Y-42291000D01*
X56053000Y-42291000D01*
X55799000Y-42291000D01*
X55779000Y-42291000D01*
X55779000Y-42037000D01*
X55799000Y-42037000D01*
X55799000Y-40887750D01*
X56053000Y-40887750D01*
X56053000Y-42037000D01*
X57702250Y-42037000D01*
X57861000Y-41878250D01*
X57861000Y-41237690D01*
X57764327Y-41004301D01*
X57585698Y-40825673D01*
X57352309Y-40729000D01*
X56211750Y-40729000D01*
X56053000Y-40887750D01*
X55799000Y-40887750D01*
X55640250Y-40729000D01*
X54499691Y-40729000D01*
X54266302Y-40825673D01*
X54087673Y-41004301D01*
X54028996Y-41145960D01*
X53960145Y-41038962D01*
X53807361Y-40934570D01*
X53626000Y-40897843D01*
X51332200Y-40897843D01*
X51332200Y-38519000D01*
X51992250Y-38519000D01*
X52151000Y-38360250D01*
X52151000Y-37211000D01*
X52131000Y-37211000D01*
X52131000Y-36957000D01*
X52151000Y-36957000D01*
X52151000Y-35807750D01*
X51992250Y-35649000D01*
X51332200Y-35649000D01*
X51332200Y-35067724D01*
X53263800Y-35067724D01*
X53263800Y-32049538D01*
X53312843Y-32069903D01*
G36*
X68704460Y-38953440D02*
X68724460Y-38953440D01*
X68724460Y-39207440D01*
X68704460Y-39207440D01*
X68704460Y-40270515D01*
X68649680Y-40350689D01*
X68612953Y-40532050D01*
X68612953Y-43531790D01*
X68644833Y-43701218D01*
X68744965Y-43856828D01*
X68897749Y-43961220D01*
X69079110Y-43997947D01*
X70782420Y-43997947D01*
X70736767Y-44043600D01*
X70256398Y-44043600D01*
X70032834Y-44088070D01*
X69843306Y-44214708D01*
X69843304Y-44214711D01*
X69001908Y-45056106D01*
X68982602Y-45085000D01*
X68833750Y-45085000D01*
X68675000Y-45243750D01*
X68675000Y-46101000D01*
X68695000Y-46101000D01*
X68695000Y-46355000D01*
X68675000Y-46355000D01*
X68675000Y-46375000D01*
X68421000Y-46375000D01*
X68421000Y-46355000D01*
X68401000Y-46355000D01*
X68401000Y-46101000D01*
X68421000Y-46101000D01*
X68421000Y-45243750D01*
X68262250Y-45085000D01*
X67964490Y-45085000D01*
X67731101Y-45181673D01*
X67552473Y-45360302D01*
X67455800Y-45593691D01*
X67455800Y-45942250D01*
X67614548Y-46100998D01*
X67455800Y-46100998D01*
X67455800Y-46125111D01*
X67392795Y-45808365D01*
X67194578Y-45511713D01*
X66897926Y-45313496D01*
X66548000Y-45243891D01*
X66253800Y-45302411D01*
X66253800Y-44930784D01*
X67770292Y-43414292D01*
X67808500Y-43357109D01*
X67896930Y-43224764D01*
X67941400Y-43001200D01*
X67941400Y-40462128D01*
X67950771Y-40466010D01*
X68291710Y-40466010D01*
X68450460Y-40307260D01*
X68450460Y-39207440D01*
X68430460Y-39207440D01*
X68430460Y-38953440D01*
X68450460Y-38953440D01*
X68450460Y-38933440D01*
X68704460Y-38933440D01*
X68704460Y-38953440D01*
X68704460Y-38953440D01*
G37*
X68704460Y-38953440D02*
X68724460Y-38953440D01*
X68724460Y-39207440D01*
X68704460Y-39207440D01*
X68704460Y-40270515D01*
X68649680Y-40350689D01*
X68612953Y-40532050D01*
X68612953Y-43531790D01*
X68644833Y-43701218D01*
X68744965Y-43856828D01*
X68897749Y-43961220D01*
X69079110Y-43997947D01*
X70782420Y-43997947D01*
X70736767Y-44043600D01*
X70256398Y-44043600D01*
X70032834Y-44088070D01*
X69843306Y-44214708D01*
X69843304Y-44214711D01*
X69001908Y-45056106D01*
X68982602Y-45085000D01*
X68833750Y-45085000D01*
X68675000Y-45243750D01*
X68675000Y-46101000D01*
X68695000Y-46101000D01*
X68695000Y-46355000D01*
X68675000Y-46355000D01*
X68675000Y-46375000D01*
X68421000Y-46375000D01*
X68421000Y-46355000D01*
X68401000Y-46355000D01*
X68401000Y-46101000D01*
X68421000Y-46101000D01*
X68421000Y-45243750D01*
X68262250Y-45085000D01*
X67964490Y-45085000D01*
X67731101Y-45181673D01*
X67552473Y-45360302D01*
X67455800Y-45593691D01*
X67455800Y-45942250D01*
X67614548Y-46100998D01*
X67455800Y-46100998D01*
X67455800Y-46125111D01*
X67392795Y-45808365D01*
X67194578Y-45511713D01*
X66897926Y-45313496D01*
X66548000Y-45243891D01*
X66253800Y-45302411D01*
X66253800Y-44930784D01*
X67770292Y-43414292D01*
X67808500Y-43357109D01*
X67896930Y-43224764D01*
X67941400Y-43001200D01*
X67941400Y-40462128D01*
X67950771Y-40466010D01*
X68291710Y-40466010D01*
X68450460Y-40307260D01*
X68450460Y-39207440D01*
X68430460Y-39207440D01*
X68430460Y-38953440D01*
X68450460Y-38953440D01*
X68450460Y-38933440D01*
X68704460Y-38933440D01*
X68704460Y-38953440D01*
G36*
X75667800Y-41612400D02*
X75469750Y-41612400D01*
X75311000Y-41771150D01*
X75311000Y-42570400D01*
X75331000Y-42570400D01*
X75331000Y-42824400D01*
X75311000Y-42824400D01*
X75311000Y-42844400D01*
X75057000Y-42844400D01*
X75057000Y-42824400D01*
X75037000Y-42824400D01*
X75037000Y-42570400D01*
X75057000Y-42570400D01*
X75057000Y-41771150D01*
X74898250Y-41612400D01*
X74207690Y-41612400D01*
X73974301Y-41709073D01*
X73932789Y-41750585D01*
X73932789Y-40200105D01*
X74121191Y-40388836D01*
X74410489Y-40508963D01*
X74723736Y-40509236D01*
X75013244Y-40389614D01*
X75234936Y-40168309D01*
X75355063Y-39879011D01*
X75355166Y-39760518D01*
X75566127Y-39549557D01*
X75667800Y-39549557D01*
X75667800Y-41612400D01*
X75667800Y-41612400D01*
G37*
X75667800Y-41612400D02*
X75469750Y-41612400D01*
X75311000Y-41771150D01*
X75311000Y-42570400D01*
X75331000Y-42570400D01*
X75331000Y-42824400D01*
X75311000Y-42824400D01*
X75311000Y-42844400D01*
X75057000Y-42844400D01*
X75057000Y-42824400D01*
X75037000Y-42824400D01*
X75037000Y-42570400D01*
X75057000Y-42570400D01*
X75057000Y-41771150D01*
X74898250Y-41612400D01*
X74207690Y-41612400D01*
X73974301Y-41709073D01*
X73932789Y-41750585D01*
X73932789Y-40200105D01*
X74121191Y-40388836D01*
X74410489Y-40508963D01*
X74723736Y-40509236D01*
X75013244Y-40389614D01*
X75234936Y-40168309D01*
X75355063Y-39879011D01*
X75355166Y-39760518D01*
X75566127Y-39549557D01*
X75667800Y-39549557D01*
X75667800Y-41612400D01*
G36*
X73999855Y-34049038D02*
X74152639Y-34153430D01*
X74334000Y-34190157D01*
X75183779Y-34190157D01*
X75184000Y-34190201D01*
X75184221Y-34190157D01*
X75667800Y-34190157D01*
X75667800Y-36253000D01*
X75469750Y-36253000D01*
X75311000Y-36411750D01*
X75311000Y-37211000D01*
X75331000Y-37211000D01*
X75331000Y-37465000D01*
X75311000Y-37465000D01*
X75311000Y-37485000D01*
X75057000Y-37485000D01*
X75057000Y-37465000D01*
X75037000Y-37465000D01*
X75037000Y-37211000D01*
X75057000Y-37211000D01*
X75057000Y-36411750D01*
X74898250Y-36253000D01*
X74207690Y-36253000D01*
X73974301Y-36349673D01*
X73932789Y-36391185D01*
X73932789Y-33944814D01*
X73999855Y-34049038D01*
X73999855Y-34049038D01*
G37*
X73999855Y-34049038D02*
X74152639Y-34153430D01*
X74334000Y-34190157D01*
X75183779Y-34190157D01*
X75184000Y-34190201D01*
X75184221Y-34190157D01*
X75667800Y-34190157D01*
X75667800Y-36253000D01*
X75469750Y-36253000D01*
X75311000Y-36411750D01*
X75311000Y-37211000D01*
X75331000Y-37211000D01*
X75331000Y-37465000D01*
X75311000Y-37465000D01*
X75311000Y-37485000D01*
X75057000Y-37485000D01*
X75057000Y-37465000D01*
X75037000Y-37465000D01*
X75037000Y-37211000D01*
X75057000Y-37211000D01*
X75057000Y-36411750D01*
X74898250Y-36253000D01*
X74207690Y-36253000D01*
X73974301Y-36349673D01*
X73932789Y-36391185D01*
X73932789Y-33944814D01*
X73999855Y-34049038D01*
G36*
X71325843Y-25947000D02*
X71325843Y-27647000D01*
X71357723Y-27816428D01*
X71457855Y-27972038D01*
X71610639Y-28076430D01*
X71696140Y-28093745D01*
X71702270Y-28124564D01*
X71777749Y-28237527D01*
X71828908Y-28314092D01*
X72043659Y-28528843D01*
X71792000Y-28528843D01*
X71622572Y-28560723D01*
X71466962Y-28660855D01*
X71362570Y-28813639D01*
X71325843Y-28995000D01*
X71325843Y-30695000D01*
X71357723Y-30864428D01*
X71457855Y-31020038D01*
X71610639Y-31124430D01*
X71696140Y-31141745D01*
X71702270Y-31172564D01*
X71787805Y-31300577D01*
X71828908Y-31362092D01*
X72232941Y-31766125D01*
X72232941Y-31803856D01*
X72223000Y-31801843D01*
X71223000Y-31801843D01*
X71053572Y-31833723D01*
X70897962Y-31933855D01*
X70819486Y-32048709D01*
X70761327Y-31908301D01*
X70582698Y-31729673D01*
X70349309Y-31633000D01*
X70008750Y-31633000D01*
X69850000Y-31791750D01*
X69850000Y-32766000D01*
X69870000Y-32766000D01*
X69870000Y-33020000D01*
X69850000Y-33020000D01*
X69850000Y-33994250D01*
X70008750Y-34153000D01*
X70349309Y-34153000D01*
X70582698Y-34056327D01*
X70761327Y-33877699D01*
X70820004Y-33736040D01*
X70888855Y-33843038D01*
X71013737Y-33928365D01*
X70989900Y-34048200D01*
X70989900Y-36338386D01*
X70078600Y-37249686D01*
X69916045Y-37087131D01*
X69911359Y-37084000D01*
X69726517Y-36960493D01*
X69502953Y-36916023D01*
X67756829Y-36916023D01*
X67756824Y-36916022D01*
X67747406Y-36917895D01*
X69229037Y-35436264D01*
X69355676Y-35246735D01*
X69400145Y-35023172D01*
X69400145Y-34153000D01*
X69437250Y-34153000D01*
X69596000Y-33994250D01*
X69596000Y-33020000D01*
X69576000Y-33020000D01*
X69576000Y-32766000D01*
X69596000Y-32766000D01*
X69596000Y-31791750D01*
X69460717Y-31656467D01*
X69755092Y-31362092D01*
X69796195Y-31300577D01*
X69881730Y-31172564D01*
X69887576Y-31143173D01*
X69961428Y-31129277D01*
X70117038Y-31029145D01*
X70221430Y-30876361D01*
X70258157Y-30695000D01*
X70258157Y-28995000D01*
X70226277Y-28825572D01*
X70126145Y-28669962D01*
X69973361Y-28565570D01*
X69792000Y-28528843D01*
X69540341Y-28528843D01*
X69755092Y-28314092D01*
X69806251Y-28237527D01*
X69881730Y-28124564D01*
X69887576Y-28095173D01*
X69961428Y-28081277D01*
X70117038Y-27981145D01*
X70221430Y-27828361D01*
X70258157Y-27647000D01*
X70258157Y-25947000D01*
X70255372Y-25932200D01*
X71328840Y-25932200D01*
X71325843Y-25947000D01*
X71325843Y-25947000D01*
G37*
X71325843Y-25947000D02*
X71325843Y-27647000D01*
X71357723Y-27816428D01*
X71457855Y-27972038D01*
X71610639Y-28076430D01*
X71696140Y-28093745D01*
X71702270Y-28124564D01*
X71777749Y-28237527D01*
X71828908Y-28314092D01*
X72043659Y-28528843D01*
X71792000Y-28528843D01*
X71622572Y-28560723D01*
X71466962Y-28660855D01*
X71362570Y-28813639D01*
X71325843Y-28995000D01*
X71325843Y-30695000D01*
X71357723Y-30864428D01*
X71457855Y-31020038D01*
X71610639Y-31124430D01*
X71696140Y-31141745D01*
X71702270Y-31172564D01*
X71787805Y-31300577D01*
X71828908Y-31362092D01*
X72232941Y-31766125D01*
X72232941Y-31803856D01*
X72223000Y-31801843D01*
X71223000Y-31801843D01*
X71053572Y-31833723D01*
X70897962Y-31933855D01*
X70819486Y-32048709D01*
X70761327Y-31908301D01*
X70582698Y-31729673D01*
X70349309Y-31633000D01*
X70008750Y-31633000D01*
X69850000Y-31791750D01*
X69850000Y-32766000D01*
X69870000Y-32766000D01*
X69870000Y-33020000D01*
X69850000Y-33020000D01*
X69850000Y-33994250D01*
X70008750Y-34153000D01*
X70349309Y-34153000D01*
X70582698Y-34056327D01*
X70761327Y-33877699D01*
X70820004Y-33736040D01*
X70888855Y-33843038D01*
X71013737Y-33928365D01*
X70989900Y-34048200D01*
X70989900Y-36338386D01*
X70078600Y-37249686D01*
X69916045Y-37087131D01*
X69911359Y-37084000D01*
X69726517Y-36960493D01*
X69502953Y-36916023D01*
X67756829Y-36916023D01*
X67756824Y-36916022D01*
X67747406Y-36917895D01*
X69229037Y-35436264D01*
X69355676Y-35246735D01*
X69400145Y-35023172D01*
X69400145Y-34153000D01*
X69437250Y-34153000D01*
X69596000Y-33994250D01*
X69596000Y-33020000D01*
X69576000Y-33020000D01*
X69576000Y-32766000D01*
X69596000Y-32766000D01*
X69596000Y-31791750D01*
X69460717Y-31656467D01*
X69755092Y-31362092D01*
X69796195Y-31300577D01*
X69881730Y-31172564D01*
X69887576Y-31143173D01*
X69961428Y-31129277D01*
X70117038Y-31029145D01*
X70221430Y-30876361D01*
X70258157Y-30695000D01*
X70258157Y-28995000D01*
X70226277Y-28825572D01*
X70126145Y-28669962D01*
X69973361Y-28565570D01*
X69792000Y-28528843D01*
X69540341Y-28528843D01*
X69755092Y-28314092D01*
X69806251Y-28237527D01*
X69881730Y-28124564D01*
X69887576Y-28095173D01*
X69961428Y-28081277D01*
X70117038Y-27981145D01*
X70221430Y-27828361D01*
X70258157Y-27647000D01*
X70258157Y-25947000D01*
X70255372Y-25932200D01*
X71328840Y-25932200D01*
X71325843Y-25947000D01*
G36*
X66151000Y-26511250D02*
X66309750Y-26670000D01*
X67109000Y-26670000D01*
X67109000Y-26650000D01*
X67363000Y-26650000D01*
X67363000Y-26670000D01*
X68162250Y-26670000D01*
X68321000Y-26511250D01*
X68321000Y-25932200D01*
X68428840Y-25932200D01*
X68425843Y-25947000D01*
X68425843Y-27647000D01*
X68457723Y-27816428D01*
X68513581Y-27903235D01*
X67894842Y-28521974D01*
X67874728Y-28552076D01*
X67760000Y-28528843D01*
X66860000Y-28528843D01*
X66690572Y-28560723D01*
X66534962Y-28660855D01*
X66430570Y-28813639D01*
X66393843Y-28995000D01*
X66393843Y-30695000D01*
X66425723Y-30864428D01*
X66525855Y-31020038D01*
X66678639Y-31124430D01*
X66764140Y-31141745D01*
X66770270Y-31172564D01*
X66855805Y-31300577D01*
X66896908Y-31362092D01*
X67175283Y-31640467D01*
X67024000Y-31791750D01*
X67024000Y-32766000D01*
X67044000Y-32766000D01*
X67044000Y-33020000D01*
X67024000Y-33020000D01*
X67024000Y-33040000D01*
X66770000Y-33040000D01*
X66770000Y-33020000D01*
X66750000Y-33020000D01*
X66750000Y-32766000D01*
X66770000Y-32766000D01*
X66770000Y-31791750D01*
X66611250Y-31633000D01*
X66270691Y-31633000D01*
X66037302Y-31729673D01*
X65858673Y-31908301D01*
X65799996Y-32049960D01*
X65731145Y-31942962D01*
X65578361Y-31838570D01*
X65481200Y-31818894D01*
X65481200Y-31436000D01*
X65436730Y-31212436D01*
X65310092Y-31022908D01*
X65238331Y-30951147D01*
X65289430Y-30876361D01*
X65326157Y-30695000D01*
X65326157Y-28995000D01*
X65294277Y-28825572D01*
X65194145Y-28669962D01*
X65041361Y-28565570D01*
X64860000Y-28528843D01*
X63960000Y-28528843D01*
X63800289Y-28558895D01*
X64246027Y-28113157D01*
X64786000Y-28113157D01*
X64955428Y-28081277D01*
X65111038Y-27981145D01*
X65215430Y-27828361D01*
X65252157Y-27647000D01*
X65252157Y-27082750D01*
X66151000Y-27082750D01*
X66151000Y-27773310D01*
X66247673Y-28006699D01*
X66426302Y-28185327D01*
X66659691Y-28282000D01*
X66950250Y-28282000D01*
X67109000Y-28123250D01*
X67109000Y-26924000D01*
X67363000Y-26924000D01*
X67363000Y-28123250D01*
X67521750Y-28282000D01*
X67812309Y-28282000D01*
X68045698Y-28185327D01*
X68224327Y-28006699D01*
X68321000Y-27773310D01*
X68321000Y-27082750D01*
X68162250Y-26924000D01*
X67363000Y-26924000D01*
X67109000Y-26924000D01*
X66309750Y-26924000D01*
X66151000Y-27082750D01*
X65252157Y-27082750D01*
X65252157Y-25947000D01*
X65249372Y-25932200D01*
X66151000Y-25932200D01*
X66151000Y-26511250D01*
X66151000Y-26511250D01*
G37*
X66151000Y-26511250D02*
X66309750Y-26670000D01*
X67109000Y-26670000D01*
X67109000Y-26650000D01*
X67363000Y-26650000D01*
X67363000Y-26670000D01*
X68162250Y-26670000D01*
X68321000Y-26511250D01*
X68321000Y-25932200D01*
X68428840Y-25932200D01*
X68425843Y-25947000D01*
X68425843Y-27647000D01*
X68457723Y-27816428D01*
X68513581Y-27903235D01*
X67894842Y-28521974D01*
X67874728Y-28552076D01*
X67760000Y-28528843D01*
X66860000Y-28528843D01*
X66690572Y-28560723D01*
X66534962Y-28660855D01*
X66430570Y-28813639D01*
X66393843Y-28995000D01*
X66393843Y-30695000D01*
X66425723Y-30864428D01*
X66525855Y-31020038D01*
X66678639Y-31124430D01*
X66764140Y-31141745D01*
X66770270Y-31172564D01*
X66855805Y-31300577D01*
X66896908Y-31362092D01*
X67175283Y-31640467D01*
X67024000Y-31791750D01*
X67024000Y-32766000D01*
X67044000Y-32766000D01*
X67044000Y-33020000D01*
X67024000Y-33020000D01*
X67024000Y-33040000D01*
X66770000Y-33040000D01*
X66770000Y-33020000D01*
X66750000Y-33020000D01*
X66750000Y-32766000D01*
X66770000Y-32766000D01*
X66770000Y-31791750D01*
X66611250Y-31633000D01*
X66270691Y-31633000D01*
X66037302Y-31729673D01*
X65858673Y-31908301D01*
X65799996Y-32049960D01*
X65731145Y-31942962D01*
X65578361Y-31838570D01*
X65481200Y-31818894D01*
X65481200Y-31436000D01*
X65436730Y-31212436D01*
X65310092Y-31022908D01*
X65238331Y-30951147D01*
X65289430Y-30876361D01*
X65326157Y-30695000D01*
X65326157Y-28995000D01*
X65294277Y-28825572D01*
X65194145Y-28669962D01*
X65041361Y-28565570D01*
X64860000Y-28528843D01*
X63960000Y-28528843D01*
X63800289Y-28558895D01*
X64246027Y-28113157D01*
X64786000Y-28113157D01*
X64955428Y-28081277D01*
X65111038Y-27981145D01*
X65215430Y-27828361D01*
X65252157Y-27647000D01*
X65252157Y-27082750D01*
X66151000Y-27082750D01*
X66151000Y-27773310D01*
X66247673Y-28006699D01*
X66426302Y-28185327D01*
X66659691Y-28282000D01*
X66950250Y-28282000D01*
X67109000Y-28123250D01*
X67109000Y-26924000D01*
X67363000Y-26924000D01*
X67363000Y-28123250D01*
X67521750Y-28282000D01*
X67812309Y-28282000D01*
X68045698Y-28185327D01*
X68224327Y-28006699D01*
X68321000Y-27773310D01*
X68321000Y-27082750D01*
X68162250Y-26924000D01*
X67363000Y-26924000D01*
X67109000Y-26924000D01*
X66309750Y-26924000D01*
X66151000Y-27082750D01*
X65252157Y-27082750D01*
X65252157Y-25947000D01*
X65249372Y-25932200D01*
X66151000Y-25932200D01*
X66151000Y-26511250D01*
M02*
