G04 #@! TF.FileFunction,Copper,L1,Top,Signal*
%FSLAX46Y46*%
G04 Gerber Fmt 4.6, Leading zero omitted, Abs format (unit mm)*
G04 Created by KiCad (PCBNEW 4.0.5+dfsg1-4) date Fri Oct 13 22:31:27 2017*
%MOMM*%
%LPD*%
G01*
G04 APERTURE LIST*
%ADD10C,0.100000*%
%ADD11R,0.914400X1.016000*%
%ADD12C,1.016000*%
%ADD13R,1.016000X1.016000*%
%ADD14O,0.914400X1.016000*%
%ADD15C,0.914400*%
%ADD16R,1.016000X0.914400*%
%ADD17O,1.016000X0.914400*%
%ADD18C,2.100000*%
%ADD19R,2.500000X1.100000*%
%ADD20R,1.100000X2.500000*%
%ADD21C,0.660400*%
%ADD22C,0.254000*%
%ADD23C,0.203200*%
G04 APERTURE END LIST*
D10*
D11*
X56642000Y-46228000D03*
D12*
X54102000Y-46228000D03*
D13*
X70358000Y-46228000D03*
D12*
X72898000Y-46228000D03*
D13*
X62230000Y-46228000D03*
D12*
X64770000Y-46228000D03*
D11*
X68548000Y-46228000D03*
D14*
X66548000Y-46228000D03*
D11*
X58420000Y-46228000D03*
D14*
X60420000Y-46228000D03*
D15*
X51816000Y-47244000D03*
X75184000Y-44704000D03*
X75184000Y-47244000D03*
D16*
X75184000Y-49784000D03*
X72390000Y-49784000D03*
X69596000Y-49784000D03*
D15*
X66802000Y-49784000D03*
X63500000Y-49784000D03*
X60198000Y-49784000D03*
D17*
X54610000Y-49784000D03*
X57404000Y-49784000D03*
X51816000Y-49784000D03*
D18*
X74866500Y-26733500D03*
D15*
X74930000Y-29369000D03*
X74930000Y-31369000D03*
D19*
X55540000Y-26148000D03*
X55540000Y-28148000D03*
X55540000Y-30148000D03*
X55540000Y-32148000D03*
X55540000Y-34148000D03*
X55540000Y-36148000D03*
X55540000Y-38148000D03*
X55540000Y-40148000D03*
X70940000Y-40148000D03*
X70940000Y-38148000D03*
X70940000Y-36148000D03*
X70940000Y-34148000D03*
X70940000Y-32148000D03*
X70940000Y-30148000D03*
X70940000Y-28148000D03*
X70940000Y-26148000D03*
D20*
X58230000Y-41848000D03*
X60230000Y-41848000D03*
X62230000Y-41848000D03*
X64230000Y-41848000D03*
X66230000Y-41848000D03*
X68230000Y-41848000D03*
D18*
X52133500Y-26733500D03*
D21*
X68481421Y-36700989D03*
X66245014Y-31491722D03*
X58203000Y-27322800D03*
X60683629Y-39475504D03*
X64332989Y-37879128D03*
X65207010Y-49218657D03*
X58380500Y-33300000D03*
X74404410Y-43861631D03*
X74980476Y-32791066D03*
X58928000Y-28321000D03*
X53482100Y-31287600D03*
X74567800Y-39721700D03*
X61106000Y-27797700D03*
X63024890Y-33526480D03*
D22*
X68151222Y-36370790D02*
X68481421Y-36700989D01*
X61994862Y-33511650D02*
X61994862Y-33965955D01*
X64014790Y-31491722D02*
X61994862Y-33511650D01*
X66245014Y-31491722D02*
X64014790Y-31491722D01*
X63317288Y-35288381D02*
X67068813Y-35288381D01*
X61994862Y-33965955D02*
X63317288Y-35288381D01*
X69308700Y-40148000D02*
X69308700Y-37528268D01*
X68811620Y-37031188D02*
X68481421Y-36700989D01*
X67068813Y-35288381D02*
X68151222Y-36370790D01*
X69308700Y-37528268D02*
X68811620Y-37031188D01*
X69308700Y-44613200D02*
X72835242Y-44613200D01*
X72835242Y-44613200D02*
X74095634Y-45873592D01*
X74095634Y-45873592D02*
X74095634Y-48136986D01*
X74095634Y-48136986D02*
X72448620Y-49784000D01*
X72448620Y-49784000D02*
X72390000Y-49784000D01*
X72390000Y-49784000D02*
X75184000Y-49784000D01*
X69596000Y-49784000D02*
X72390000Y-49784000D01*
X70240000Y-40148000D02*
X69308700Y-40148000D01*
X68548000Y-46228000D02*
X68548000Y-45338700D01*
X69308700Y-44613200D02*
X69308700Y-40148000D01*
X69273500Y-44613200D02*
X69308700Y-44613200D01*
X68548000Y-45338700D02*
X69273500Y-44613200D01*
X53529873Y-35217100D02*
X52028531Y-36718442D01*
X52028531Y-36718442D02*
X52028531Y-46215993D01*
X52028531Y-46215993D02*
X52730184Y-46917646D01*
X52730184Y-46917646D02*
X52730184Y-48970284D01*
X52730184Y-48970284D02*
X53124600Y-49364700D01*
X57669299Y-35052000D02*
X57669299Y-36357801D01*
X57669299Y-36357801D02*
X56891993Y-37135107D01*
X56891993Y-37135107D02*
X53984265Y-37135107D01*
X53984265Y-37135107D02*
X53518436Y-37600936D01*
X53518436Y-37600936D02*
X53518436Y-39729536D01*
X53518436Y-39729536D02*
X53936900Y-40148000D01*
X53936900Y-40148000D02*
X56240000Y-40148000D01*
X53606455Y-35140518D02*
X53529873Y-35217100D01*
X53598973Y-35148000D02*
X53529873Y-35217100D01*
X57573299Y-35148000D02*
X53598973Y-35148000D01*
X57171300Y-35148000D02*
X57163818Y-35140518D01*
X57669299Y-30480000D02*
X57669299Y-27856501D01*
X57669299Y-27856501D02*
X58203000Y-27322800D01*
X57669299Y-30480000D02*
X57669299Y-30035500D01*
X56240000Y-30148000D02*
X57556799Y-30148000D01*
X57556799Y-30148000D02*
X57669299Y-30035500D01*
X57669299Y-30480000D02*
X57669299Y-35052000D01*
D23*
X57573299Y-35148000D02*
X57669299Y-35052000D01*
X57171300Y-35148000D02*
X57573299Y-35148000D01*
D22*
X54610000Y-49784000D02*
X55499300Y-49784000D01*
X56959400Y-49784000D02*
X55499300Y-49784000D01*
X57404000Y-49784000D02*
X56959400Y-49784000D01*
X54610000Y-49784000D02*
X54610000Y-49364700D01*
X51816000Y-49784000D02*
X52705300Y-49784000D01*
X54610000Y-49364700D02*
X53124600Y-49364700D01*
X53124600Y-49364700D02*
X52705300Y-49784000D01*
X61013828Y-39805703D02*
X60683629Y-39475504D01*
X61161400Y-39953275D02*
X61013828Y-39805703D01*
X64051580Y-46228000D02*
X61161400Y-43337820D01*
X64770000Y-46228000D02*
X64051580Y-46228000D01*
X61161400Y-43337820D02*
X61161400Y-39953275D01*
X72898000Y-46228000D02*
X71851666Y-47274334D01*
X65816334Y-47274334D02*
X65277999Y-46735999D01*
X65277999Y-46735999D02*
X64770000Y-46228000D01*
X71851666Y-47274334D02*
X65816334Y-47274334D01*
X54102000Y-46228000D02*
X57218217Y-43111783D01*
X57218217Y-43111783D02*
X57218217Y-40492283D01*
X57218217Y-40492283D02*
X59831372Y-37879128D01*
X59831372Y-37879128D02*
X63866016Y-37879128D01*
X63866016Y-37879128D02*
X64332989Y-37879128D01*
X62230000Y-46990000D02*
X64458657Y-49218657D01*
X62230000Y-46228000D02*
X62230000Y-46990000D01*
X64458657Y-49218657D02*
X64740037Y-49218657D01*
X64740037Y-49218657D02*
X65207010Y-49218657D01*
X58380500Y-33300000D02*
X59814151Y-33300000D01*
X59814151Y-33300000D02*
X62702676Y-36188525D01*
X62702676Y-36188525D02*
X65065495Y-36188525D01*
X65065495Y-36188525D02*
X65900878Y-37023908D01*
X65900878Y-37023908D02*
X65900878Y-39069975D01*
X65900878Y-39069975D02*
X65228361Y-39742492D01*
X65228361Y-44857561D02*
X66548000Y-46177200D01*
X65228361Y-39742492D02*
X65228361Y-44857561D01*
X66548000Y-46177200D02*
X66548000Y-46228000D01*
X72571300Y-27010300D02*
X74930000Y-29369000D01*
X72571300Y-26148000D02*
X72571300Y-27010300D01*
X70240000Y-26148000D02*
X72571300Y-26148000D01*
X70240000Y-28148000D02*
X72571300Y-28148000D01*
X72571300Y-28600800D02*
X72571300Y-28148000D01*
X74930000Y-30959500D02*
X72571300Y-28600800D01*
X74930000Y-31369000D02*
X74930000Y-30959500D01*
X75279300Y-35245348D02*
X75279300Y-42986741D01*
X72181952Y-32148000D02*
X75279300Y-35245348D01*
X74734609Y-43531432D02*
X74404410Y-43861631D01*
X75279300Y-42986741D02*
X74734609Y-43531432D01*
X70240000Y-32148000D02*
X72181952Y-32148000D01*
X70240000Y-30148000D02*
X72188500Y-30148000D01*
X72188500Y-30148000D02*
X73175488Y-31134988D01*
X73175488Y-31134988D02*
X73175488Y-32007788D01*
X73175488Y-32007788D02*
X75808600Y-34640900D01*
X75808600Y-34640900D02*
X75808600Y-44079400D01*
X75808600Y-44079400D02*
X75184000Y-44704000D01*
X56240000Y-36148000D02*
X53942619Y-36148000D01*
X53942619Y-36148000D02*
X52838000Y-37252619D01*
X52838000Y-37252619D02*
X52838000Y-46307026D01*
X58616500Y-48202500D02*
X59740801Y-49326801D01*
X52838000Y-46307026D02*
X54733474Y-48202500D01*
X54733474Y-48202500D02*
X58616500Y-48202500D01*
X59740801Y-49326801D02*
X60198000Y-49784000D01*
X63500000Y-49784000D02*
X62370348Y-49784000D01*
X62370348Y-49784000D02*
X59465454Y-46879106D01*
X59465454Y-46879106D02*
X59465454Y-45296475D01*
X65169722Y-37471246D02*
X64748724Y-37050248D01*
X59465454Y-45296475D02*
X59224016Y-45055037D01*
X59224016Y-45055037D02*
X59224016Y-39700824D01*
X59224016Y-39700824D02*
X60179810Y-38745030D01*
X60179810Y-38745030D02*
X64724657Y-38745030D01*
X64748724Y-37050248D02*
X59108552Y-37050248D01*
X64724657Y-38745030D02*
X65169722Y-38299965D01*
X65169722Y-38299965D02*
X65169722Y-37471246D01*
X59108552Y-37050248D02*
X58010800Y-38148000D01*
X58010800Y-38148000D02*
X56240000Y-38148000D01*
X56240000Y-34148000D02*
X53632100Y-34148000D01*
X51816000Y-47244000D02*
X51358801Y-46786801D01*
X51358801Y-46786801D02*
X51358801Y-36421299D01*
X51358801Y-36421299D02*
X53632100Y-34148000D01*
X75184000Y-46155921D02*
X75184000Y-46597422D01*
X75184000Y-46597422D02*
X75184000Y-47244000D01*
X73130292Y-44102213D02*
X75184000Y-46155921D01*
X73130292Y-38738438D02*
X73130292Y-44102213D01*
X70240000Y-38148000D02*
X72539854Y-38148000D01*
X72539854Y-38148000D02*
X73130292Y-38738438D01*
X59070755Y-26910345D02*
X58938100Y-27043000D01*
X73815500Y-30635800D02*
X72396300Y-29216600D01*
X72396300Y-29216600D02*
X68115200Y-29216600D01*
X68115200Y-29216600D02*
X65808945Y-26910345D01*
X65808945Y-26910345D02*
X59070755Y-26910345D01*
X73815500Y-30635800D02*
X73815500Y-31626090D01*
X74650277Y-32460867D02*
X74980476Y-32791066D01*
X73815500Y-31626090D02*
X74650277Y-32460867D01*
X58938100Y-27043000D02*
X58938100Y-28310900D01*
X58938100Y-28310900D02*
X58928000Y-28321000D01*
X56240000Y-26148000D02*
X57171300Y-26148000D01*
X73815500Y-30851100D02*
X73815500Y-30635800D01*
X58043100Y-26148000D02*
X58938100Y-27043000D01*
X57171300Y-26148000D02*
X58043100Y-26148000D01*
X53908700Y-31714200D02*
X53482100Y-31287600D01*
X53908700Y-32148000D02*
X53908700Y-31714200D01*
X56240000Y-32148000D02*
X53908700Y-32148000D01*
X66410820Y-30318820D02*
X66410820Y-29092918D01*
X70240000Y-34148000D02*
X66410820Y-30318820D01*
X61572973Y-27797700D02*
X61106000Y-27797700D01*
X65115602Y-27797700D02*
X61572973Y-27797700D01*
X66410820Y-29092918D02*
X65115602Y-27797700D01*
X70240000Y-34148000D02*
X72951467Y-34148000D01*
X72951467Y-34148000D02*
X74567800Y-35764333D01*
X74567800Y-35764333D02*
X74567800Y-39721700D01*
X67618480Y-33526480D02*
X63491863Y-33526480D01*
X70240000Y-36148000D02*
X67618480Y-33526480D01*
X63491863Y-33526480D02*
X63024890Y-33526480D01*
M02*
