M48
;DRILL file {KiCad 4.0.5+dfsg1-4} date Mon Oct 16 20:34:27 2017
;FORMAT={-:-/ absolute / inch / decimal}
FMAT,2
INCH,TZ
T1C0.016
T2C0.028
T3C0.079
%
G90
G05
M72
T1
X2.0938Y-1.177
X2.2915Y-1.0757
X2.2984Y-1.311
X2.3844Y-1.0304
X2.3886Y-1.5508
X2.4892Y-1.0626
X2.4978Y-1.2987
X2.5328Y-1.4913
X2.5647Y-1.9583
X2.6081Y-1.2398
X2.6788Y-1.4233
X2.9293Y-1.7268
X2.9357Y-1.5638
X2.952Y-1.291
T2
X2.04Y-1.86
X2.04Y-1.96
X2.13Y-1.82
X2.15Y-1.96
X2.23Y-1.82
X2.26Y-1.96
X2.3Y-1.82
X2.37Y-1.96
X2.3787Y-1.82
X2.3788Y-1.7586
X2.45Y-1.82
X2.5Y-1.96
X2.55Y-1.82
X2.62Y-1.82
X2.63Y-1.96
X2.6987Y-1.82
X2.74Y-1.96
X2.77Y-1.82
X2.85Y-1.96
X2.87Y-1.82
X2.95Y-1.1563
X2.95Y-1.235
X2.96Y-1.76
X2.96Y-1.86
X2.96Y-1.96
T3
X2.0525Y-1.0525
X2.9475Y-1.0525
T0
M30
