M48
;DRILL file {KiCad 4.0.5+dfsg1-4} date Thu Oct 12 19:57:30 2017
;FORMAT={-:-/ absolute / inch / decimal}
FMAT,2
INCH,TZ
T1C0.028
%
G90
G05
M72
T1
X2.04Y-1.86
X2.04Y-1.96
X2.13Y-1.82
X2.15Y-1.96
X2.23Y-1.82
X2.26Y-1.96
X2.3Y-1.82
X2.37Y-1.96
X2.3787Y-1.82
X2.45Y-1.82
X2.5Y-1.96
X2.55Y-1.82
X2.62Y-1.82
X2.63Y-1.96
X2.6987Y-1.82
X2.74Y-1.96
X2.77Y-1.82
X2.85Y-1.96
X2.87Y-1.82
X2.95Y-1.04
X2.95Y-1.1187
X2.96Y-1.76
X2.96Y-1.86
X2.96Y-1.96
T0
M30
